<ttFont>
    <TTGlyph name=".notdef" xMin="14" yMin="-500" xMax="647" yMax="1050">
      <contour>
        <pt x="14" y="-500" on="1"/>
        <pt x="232" y="1050" on="1"/>
        <pt x="647" y="1050" on="1"/>
        <pt x="429" y="-500" on="1"/>
      </contour>
      <contour>
        <pt x="76" y="-448" on="1"/>
        <pt x="383" y="-448" on="1"/>
        <pt x="586" y="998" on="1"/>
        <pt x="279" y="998" on="1"/>
      </contour>
      <contour>
        <pt x="394" y="451" on="0"/>
        <pt x="441" y="400" on="0"/>
        <pt x="441" y="359" on="1"/>
        <pt x="441" y="350" on="0"/>
        <pt x="439" y="332" on="1"/>
        <pt x="432" y="280" on="0"/>
        <pt x="381" y="225" on="0"/>
        <pt x="331" y="218" on="1"/>
        <pt x="323" y="171" on="1"/>
        <pt x="322" y="160" on="0"/>
        <pt x="307" y="149" on="0"/>
        <pt x="298" y="149" on="1"/>
        <pt x="287" y="149" on="0"/>
        <pt x="273" y="164" on="0"/>
        <pt x="274" y="175" on="1"/>
        <pt x="284" y="257" on="1"/>
        <pt x="337" y="260" on="0"/>
        <pt x="381" y="296" on="0"/>
        <pt x="387" y="338" on="1"/>
        <pt x="389" y="354" on="0"/>
        <pt x="389" y="359" on="1"/>
        <pt x="389" y="380" on="0"/>
        <pt x="367" y="403" on="0"/>
        <pt x="339" y="403" on="1"/>
        <pt x="310" y="403" on="0"/>
        <pt x="285" y="390" on="1"/>
        <pt x="273" y="389" on="1"/>
        <pt x="261" y="389" on="0"/>
        <pt x="248" y="405" on="0"/>
        <pt x="250" y="416" on="1"/>
        <pt x="252" y="433" on="0"/>
        <pt x="309" y="451" on="0"/>
        <pt x="342" y="451" on="1"/>
      </contour>
      <contour>
        <pt x="303" y="120" on="0"/>
        <pt x="321" y="101" on="0"/>
        <pt x="321" y="86" on="1"/>
        <pt x="321" y="70" on="0"/>
        <pt x="299" y="48" on="0"/>
        <pt x="284" y="48" on="1"/>
        <pt x="268" y="48" on="0"/>
        <pt x="250" y="72" on="0"/>
        <pt x="253" y="89" on="1"/>
        <pt x="254" y="102" on="0"/>
        <pt x="274" y="120" on="0"/>
        <pt x="288" y="120" on="1"/>
      </contour>
    </TTGlyph>
    <TTGlyph name="A" xMin="-42" yMin="0" xMax="542" yMax="691">
      <contour>
        <pt x="158" y="160" on="1"/>
        <pt x="94" y="0" on="1"/>
        <pt x="-42" y="0" on="1"/>
        <pt x="267" y="691" on="1"/>
        <pt x="428" y="691" on="1"/>
        <pt x="542" y="0" on="1"/>
        <pt x="405" y="0" on="1"/>
        <pt x="386" y="160" on="1"/>
      </contour>
      <contour>
        <pt x="332" y="595" on="1"/>
        <pt x="198" y="260" on="1"/>
        <pt x="373" y="260" on="1"/>
      </contour>
    </TTGlyph>
    <TTGlyph name="AE" xMin="-54" yMin="0" xMax="802" yMax="691">
      <contour>
        <pt x="505" y="399" on="1"/>
        <pt x="751" y="399" on="1"/>
        <pt x="738" y="301" on="1"/>
        <pt x="513" y="301" on="1"/>
        <pt x="531" y="99" on="1"/>
        <pt x="757" y="99" on="1"/>
        <pt x="743" y="0" on="1"/>
        <pt x="414" y="0" on="1"/>
        <pt x="404" y="160" on="1"/>
        <pt x="165" y="160" on="1"/>
        <pt x="86" y="0" on="1"/>
        <pt x="-54" y="0" on="1"/>
        <pt x="307" y="691" on="1"/>
        <pt x="802" y="691" on="1"/>
        <pt x="774" y="593" on="1"/>
        <pt x="488" y="593" on="1"/>
      </contour>
      <contour>
        <pt x="375" y="591" on="1"/>
        <pt x="213" y="260" on="1"/>
        <pt x="397" y="260" on="1"/>
      </contour>
    </TTGlyph>
    <TTGlyph name="AEacute" xMin="-54" yMin="0" xMax="802" yMax="936">
      <component glyphName="AE" x="0" y="0" flags="0x0"/>
      <component glyphName="acute.case" x="319" y="0" flags="0x0"/>
    </TTGlyph>
    <TTGlyph name="Aacute" xMin="-42" yMin="0" xMax="542" yMax="936">
      <component glyphName="A" x="0" y="0" flags="0x0"/>
      <component glyphName="acute.case" x="133" y="0" flags="0x0"/>
    </TTGlyph>
    <TTGlyph name="Abreve" xMin="-42" yMin="0" xMax="542" yMax="914">
      <component glyphName="A" x="0" y="0" flags="0x0"/>
      <component glyphName="breve.case" x="90" y="0" flags="0x0"/>
    </TTGlyph>
    <TTGlyph name="Acircumflex" xMin="-42" yMin="0" xMax="546" yMax="933">
      <component glyphName="A" x="0" y="0" flags="0x0"/>
      <component glyphName="circumflex.case" x="87" y="0" flags="0x0"/>
    </TTGlyph>
    <TTGlyph name="Adieresis" xMin="-42" yMin="0" xMax="547" yMax="911">
      <component glyphName="A" x="0" y="0" flags="0x0"/>
      <component glyphName="dieresis.case" x="121" y="0" flags="0x0"/>
    </TTGlyph>
    <TTGlyph name="Agrave" xMin="-42" yMin="0" xMax="542" yMax="936">
      <component glyphName="A" x="0" y="0" flags="0x0"/>
      <component glyphName="grave.case" x="133" y="0" flags="0x0"/>
    </TTGlyph>
    <TTGlyph name="Alpha" xMin="-42" yMin="0" xMax="542" yMax="691">
      <contour>
        <pt x="158" y="160" on="1"/>
        <pt x="94" y="0" on="1"/>
        <pt x="-42" y="0" on="1"/>
        <pt x="267" y="691" on="1"/>
        <pt x="428" y="691" on="1"/>
        <pt x="542" y="0" on="1"/>
        <pt x="405" y="0" on="1"/>
        <pt x="386" y="160" on="1"/>
      </contour>
      <contour>
        <pt x="332" y="595" on="1"/>
        <pt x="198" y="260" on="1"/>
        <pt x="373" y="260" on="1"/>
      </contour>
    </TTGlyph>
    <TTGlyph name="Alphatonos" xMin="-42" yMin="0" xMax="542" yMax="717">
      <component glyphName="A" x="0" y="0" flags="0x0"/>
      <component glyphName="tonos.case" x="-43" y="0" flags="0x0"/>
    </TTGlyph>
    <TTGlyph name="Amacron" xMin="-42" yMin="0" xMax="542" yMax="878">
      <component glyphName="A" x="0" y="0" flags="0x0"/>
      <component glyphName="macron.case" x="157" y="0" flags="0x0"/>
    </TTGlyph>
    <TTGlyph name="Aogonek" xMin="-42" yMin="-239" xMax="542" yMax="691">
      <contour>
        <pt x="347" y="-52" on="0"/>
        <pt x="347" y="-119" on="1"/>
        <pt x="347" y="-153" on="0"/>
        <pt x="393" y="-153" on="1"/>
        <pt x="418" y="-153" on="0"/>
        <pt x="455" y="-145" on="1"/>
        <pt x="437" y="-232" on="1"/>
        <pt x="400" y="-239" on="0"/>
        <pt x="371" y="-239" on="1"/>
        <pt x="315" y="-239" on="0"/>
        <pt x="248" y="-184" on="0"/>
        <pt x="248" y="-139" on="1"/>
        <pt x="248" y="-35" on="0"/>
        <pt x="402" y="23" on="1"/>
        <pt x="386" y="160" on="1"/>
        <pt x="158" y="160" on="1"/>
        <pt x="94" y="0" on="1"/>
        <pt x="-42" y="0" on="1"/>
        <pt x="267" y="691" on="1"/>
        <pt x="428" y="691" on="1"/>
        <pt x="542" y="0" on="1"/>
        <pt x="485" y="0" on="1"/>
      </contour>
      <contour>
        <pt x="332" y="595" on="1"/>
        <pt x="198" y="260" on="1"/>
        <pt x="373" y="260" on="1"/>
      </contour>
    </TTGlyph>
    <TTGlyph name="Aring" xMin="-42" yMin="0" xMax="542" yMax="979">
      <component glyphName="A" x="0" y="0" flags="0x0"/>
      <component glyphName="ring.case" x="175" y="0" flags="0x0"/>
    </TTGlyph>
    <TTGlyph name="Atilde" xMin="-42" yMin="0" xMax="550" yMax="910">
      <component glyphName="A" x="0" y="0" flags="0x0"/>
      <component glyphName="tilde.case" x="124" y="0" flags="0x0"/>
    </TTGlyph>
    <TTGlyph name="B" xMin="43" yMin="0" xMax="578" yMax="691">
      <contour>
        <pt x="487" y="354" on="0"/>
        <pt x="563" y="287" on="0"/>
        <pt x="563" y="220" on="1"/>
        <pt x="563" y="120" on="0"/>
        <pt x="417" y="0" on="0"/>
        <pt x="250" y="0" on="1"/>
        <pt x="43" y="0" on="1"/>
        <pt x="140" y="691" on="1"/>
        <pt x="337" y="691" on="1"/>
        <pt x="450" y="691" on="0"/>
        <pt x="578" y="615" on="0"/>
        <pt x="578" y="536" on="1"/>
        <pt x="578" y="466" on="0"/>
        <pt x="491" y="379" on="0"/>
        <pt x="425" y="365" on="1"/>
      </contour>
      <contour>
        <pt x="230" y="407" on="1"/>
        <pt x="309" y="407" on="1"/>
        <pt x="371" y="407" on="0"/>
        <pt x="444" y="472" on="0"/>
        <pt x="444" y="526" on="1"/>
        <pt x="444" y="563" on="0"/>
        <pt x="389" y="594" on="0"/>
        <pt x="339" y="594" on="1"/>
        <pt x="256" y="594" on="1"/>
      </contour>
      <contour>
        <pt x="353" y="99" on="0"/>
        <pt x="428" y="167" on="0"/>
        <pt x="428" y="228" on="1"/>
        <pt x="428" y="315" on="0"/>
        <pt x="310" y="315" on="1"/>
        <pt x="217" y="315" on="1"/>
        <pt x="187" y="99" on="1"/>
        <pt x="259" y="99" on="1"/>
      </contour>
    </TTGlyph>
    <TTGlyph name="Beta" xMin="43" yMin="0" xMax="578" yMax="691">
      <component glyphName="B" x="0" y="0" flags="0x0"/>
    </TTGlyph>
    <TTGlyph name="C" xMin="49" yMin="-15" xMax="591" yMax="706">
      <contour>
        <pt x="514" y="706" on="0"/>
        <pt x="591" y="629" on="1"/>
        <pt x="516" y="556" on="1"/>
        <pt x="465" y="604" on="0"/>
        <pt x="399" y="604" on="1"/>
        <pt x="323" y="604" on="0"/>
        <pt x="227" y="498" on="0"/>
        <pt x="185" y="343" on="0"/>
        <pt x="185" y="265" on="1"/>
        <pt x="185" y="176" on="0"/>
        <pt x="257" y="91" on="0"/>
        <pt x="320" y="91" on="1"/>
        <pt x="361" y="91" on="0"/>
        <pt x="428" y="122" on="0"/>
        <pt x="468" y="150" on="1"/>
        <pt x="521" y="67" on="1"/>
        <pt x="479" y="31" on="0"/>
        <pt x="370" y="-15" on="0"/>
        <pt x="307" y="-15" on="1"/>
        <pt x="187" y="-15" on="0"/>
        <pt x="49" y="132" on="0"/>
        <pt x="49" y="269" on="1"/>
        <pt x="49" y="371" on="0"/>
        <pt x="121" y="572" on="0"/>
        <pt x="277" y="706" on="0"/>
        <pt x="394" y="706" on="1"/>
      </contour>
    </TTGlyph>
    <TTGlyph name="Cacute" xMin="49" yMin="-15" xMax="591" yMax="936">
      <component glyphName="C" x="0" y="0" flags="0x0"/>
      <component glyphName="acute.case" x="192" y="0" flags="0x0"/>
    </TTGlyph>
    <TTGlyph name="Cacute.loclPLK" xMin="49" yMin="-15" xMax="591" yMax="947">
      <component glyphName="C" x="0" y="0" flags="0x0"/>
      <component glyphName="acute.case.loclPLK" x="177" y="0" flags="0x0"/>
    </TTGlyph>
    <TTGlyph name="Ccaron" xMin="49" yMin="-15" xMax="604" yMax="928">
      <component glyphName="C" x="0" y="0" flags="0x0"/>
      <component glyphName="caron.case" x="137" y="0" flags="0x0"/>
    </TTGlyph>
    <TTGlyph name="Ccedilla" xMin="49" yMin="-252" xMax="591" yMax="706">
      <contour>
        <pt x="480" y="32" on="0"/>
        <pt x="374" y="-14" on="0"/>
        <pt x="312" y="-15" on="1"/>
        <pt x="306" y="-51" on="1"/>
        <pt x="349" y="-55" on="0"/>
        <pt x="392" y="-100" on="0"/>
        <pt x="392" y="-134" on="1"/>
        <pt x="392" y="-163" on="0"/>
        <pt x="361" y="-217" on="0"/>
        <pt x="295" y="-252" on="0"/>
        <pt x="244" y="-252" on="1"/>
        <pt x="213" y="-252" on="0"/>
        <pt x="162" y="-236" on="0"/>
        <pt x="145" y="-223" on="1"/>
        <pt x="183" y="-162" on="1"/>
        <pt x="210" y="-178" on="0"/>
        <pt x="241" y="-178" on="1"/>
        <pt x="264" y="-179" on="0"/>
        <pt x="297" y="-158" on="0"/>
        <pt x="297" y="-139" on="1"/>
        <pt x="297" y="-121" on="0"/>
        <pt x="259" y="-106" on="0"/>
        <pt x="213" y="-106" on="1"/>
        <pt x="237" y="-7" on="1"/>
        <pt x="148" y="13" on="0"/>
        <pt x="49" y="154" on="0"/>
        <pt x="49" y="269" on="1"/>
        <pt x="49" y="371" on="0"/>
        <pt x="121" y="572" on="0"/>
        <pt x="277" y="706" on="0"/>
        <pt x="394" y="706" on="1"/>
        <pt x="514" y="706" on="0"/>
        <pt x="591" y="629" on="1"/>
        <pt x="516" y="556" on="1"/>
        <pt x="465" y="604" on="0"/>
        <pt x="399" y="604" on="1"/>
        <pt x="323" y="604" on="0"/>
        <pt x="227" y="498" on="0"/>
        <pt x="185" y="343" on="0"/>
        <pt x="185" y="265" on="1"/>
        <pt x="185" y="176" on="0"/>
        <pt x="257" y="91" on="0"/>
        <pt x="320" y="91" on="1"/>
        <pt x="361" y="91" on="0"/>
        <pt x="428" y="122" on="0"/>
        <pt x="468" y="150" on="1"/>
        <pt x="521" y="67" on="1"/>
      </contour>
    </TTGlyph>
    <TTGlyph name="Ccircumflex" xMin="49" yMin="-15" xMax="605" yMax="933">
      <component glyphName="C" x="0" y="0" flags="0x0"/>
      <component glyphName="circumflex.case" x="146" y="0" flags="0x0"/>
    </TTGlyph>
    <TTGlyph name="Cdotaccent" xMin="49" yMin="-15" xMax="591" yMax="923">
      <component glyphName="C" x="0" y="0" flags="0x0"/>
      <component glyphName="dotaccent.case" x="282" y="0" flags="0x0"/>
    </TTGlyph>
    <TTGlyph name="Chi" xMin="-38" yMin="0" xMax="595" yMax="691">
      <component glyphName="X" x="0" y="0" flags="0x0"/>
    </TTGlyph>
    <TTGlyph name="D" xMin="43" yMin="0" xMax="615" yMax="691">
      <contour>
        <pt x="447" y="691" on="0"/>
        <pt x="615" y="577" on="0"/>
        <pt x="615" y="429" on="1"/>
        <pt x="615" y="310" on="0"/>
        <pt x="538" y="117" on="0"/>
        <pt x="367" y="0" on="0"/>
        <pt x="231" y="0" on="1"/>
        <pt x="43" y="0" on="1"/>
        <pt x="140" y="691" on="1"/>
        <pt x="307" y="691" on="1"/>
      </contour>
      <contour>
        <pt x="188" y="99" on="1"/>
        <pt x="250" y="99" on="1"/>
        <pt x="334" y="99" on="0"/>
        <pt x="438" y="197" on="0"/>
        <pt x="481" y="347" on="0"/>
        <pt x="481" y="430" on="1"/>
        <pt x="481" y="525" on="0"/>
        <pt x="395" y="592" on="0"/>
        <pt x="318" y="592" on="1"/>
        <pt x="257" y="592" on="1"/>
      </contour>
    </TTGlyph>
    <TTGlyph name="Dcaron" xMin="43" yMin="0" xMax="615" yMax="928">
      <component glyphName="D" x="0" y="0" flags="0x0"/>
      <component glyphName="caron.case" x="86" y="0" flags="0x0"/>
    </TTGlyph>
    <TTGlyph name="Dcroat" xMin="24" yMin="0" xMax="625" yMax="691">
      <component glyphName="Eth" x="0" y="0" flags="0x0"/>
    </TTGlyph>
    <TTGlyph name="Delta" xMin="-42" yMin="0" xMax="551" yMax="691">
      <contour>
        <pt x="-42" y="0" on="1"/>
        <pt x="272" y="691" on="1"/>
        <pt x="432" y="691" on="1"/>
        <pt x="551" y="0" on="1"/>
      </contour>
      <contour>
        <pt x="403" y="101" on="1"/>
        <pt x="338" y="589" on="1"/>
        <pt x="133" y="101" on="1"/>
      </contour>
    </TTGlyph>
    <TTGlyph name="E" xMin="43" yMin="0" xMax="536" yMax="691">
      <contour>
        <pt x="257" y="593" on="1"/>
        <pt x="229" y="400" on="1"/>
        <pt x="448" y="400" on="1"/>
        <pt x="435" y="302" on="1"/>
        <pt x="216" y="302" on="1"/>
        <pt x="188" y="99" on="1"/>
        <pt x="457" y="99" on="1"/>
        <pt x="443" y="0" on="1"/>
        <pt x="43" y="0" on="1"/>
        <pt x="140" y="691" on="1"/>
        <pt x="536" y="691" on="1"/>
        <pt x="508" y="593" on="1"/>
      </contour>
    </TTGlyph>
    <TTGlyph name="Eacute" xMin="43" yMin="0" xMax="536" yMax="936">
      <component glyphName="E" x="0" y="0" flags="0x0"/>
      <component glyphName="acute.case" x="126" y="0" flags="0x0"/>
    </TTGlyph>
    <TTGlyph name="Ebreve" xMin="43" yMin="0" xMax="536" yMax="914">
      <component glyphName="E" x="0" y="0" flags="0x0"/>
      <component glyphName="breve.case" x="83" y="0" flags="0x0"/>
    </TTGlyph>
    <TTGlyph name="Ecaron" xMin="43" yMin="0" xMax="538" yMax="928">
      <component glyphName="E" x="0" y="0" flags="0x0"/>
      <component glyphName="caron.case" x="71" y="0" flags="0x0"/>
    </TTGlyph>
    <TTGlyph name="Ecircumflex" xMin="43" yMin="0" xMax="539" yMax="933">
      <component glyphName="E" x="0" y="0" flags="0x0"/>
      <component glyphName="circumflex.case" x="80" y="0" flags="0x0"/>
    </TTGlyph>
    <TTGlyph name="Edieresis" xMin="43" yMin="0" xMax="540" yMax="911">
      <component glyphName="E" x="0" y="0" flags="0x0"/>
      <component glyphName="dieresis.case" x="113" y="0" flags="0x0"/>
    </TTGlyph>
    <TTGlyph name="Edotaccent" xMin="43" yMin="0" xMax="536" yMax="923">
      <component glyphName="E" x="0" y="0" flags="0x0"/>
      <component glyphName="dotaccent.case" x="216" y="0" flags="0x0"/>
    </TTGlyph>
    <TTGlyph name="Egrave" xMin="43" yMin="0" xMax="536" yMax="936">
      <component glyphName="E" x="0" y="0" flags="0x0"/>
      <component glyphName="grave.case" x="126" y="0" flags="0x0"/>
    </TTGlyph>
    <TTGlyph name="Emacron" xMin="43" yMin="0" xMax="536" yMax="878">
      <component glyphName="E" x="0" y="0" flags="0x0"/>
      <component glyphName="macron.case" x="150" y="0" flags="0x0"/>
    </TTGlyph>
    <TTGlyph name="Eng" xMin="43" yMin="-218" xMax="644" yMax="691">
      <contour>
        <pt x="533" y="-88" on="0"/>
        <pt x="432" y="-186" on="0"/>
        <pt x="329" y="-218" on="1"/>
        <pt x="299" y="-128" on="1"/>
        <pt x="360" y="-106" on="0"/>
        <pt x="420" y="-54" on="0"/>
        <pt x="434" y="0" on="1"/>
        <pt x="380" y="0" on="1"/>
        <pt x="221" y="580" on="1"/>
        <pt x="222" y="508" on="0"/>
        <pt x="213" y="368" on="0"/>
        <pt x="200" y="276" on="1"/>
        <pt x="162" y="0" on="1"/>
        <pt x="43" y="0" on="1"/>
        <pt x="140" y="691" on="1"/>
        <pt x="307" y="691" on="1"/>
        <pt x="468" y="111" on="1"/>
        <pt x="467" y="135" on="0"/>
        <pt x="467" y="177" on="1"/>
        <pt x="467" y="274" on="0"/>
        <pt x="480" y="373" on="1"/>
        <pt x="526" y="691" on="1"/>
        <pt x="644" y="691" on="1"/>
        <pt x="547" y="0" on="1"/>
      </contour>
    </TTGlyph>
    <TTGlyph name="Eogonek" xMin="43" yMin="-239" xMax="536" yMax="691">
      <contour>
        <pt x="229" y="400" on="1"/>
        <pt x="448" y="400" on="1"/>
        <pt x="435" y="302" on="1"/>
        <pt x="216" y="302" on="1"/>
        <pt x="188" y="99" on="1"/>
        <pt x="457" y="99" on="1"/>
        <pt x="443" y="0" on="1"/>
        <pt x="405" y="0" on="1"/>
        <pt x="267" y="-54" on="0"/>
        <pt x="267" y="-119" on="1"/>
        <pt x="267" y="-136" on="0"/>
        <pt x="291" y="-154" on="0"/>
        <pt x="313" y="-154" on="1"/>
        <pt x="338" y="-154" on="0"/>
        <pt x="376" y="-146" on="1"/>
        <pt x="357" y="-232" on="1"/>
        <pt x="328" y="-239" on="0"/>
        <pt x="292" y="-239" on="1"/>
        <pt x="236" y="-239" on="0"/>
        <pt x="168" y="-184" on="0"/>
        <pt x="168" y="-139" on="1"/>
        <pt x="168" y="-54" on="0"/>
        <pt x="270" y="0" on="1"/>
        <pt x="43" y="0" on="1"/>
        <pt x="140" y="691" on="1"/>
        <pt x="536" y="691" on="1"/>
        <pt x="508" y="593" on="1"/>
        <pt x="257" y="593" on="1"/>
      </contour>
    </TTGlyph>
    <TTGlyph name="Epsilon" xMin="43" yMin="0" xMax="536" yMax="691">
      <contour>
        <pt x="257" y="593" on="1"/>
        <pt x="229" y="400" on="1"/>
        <pt x="448" y="400" on="1"/>
        <pt x="435" y="302" on="1"/>
        <pt x="216" y="302" on="1"/>
        <pt x="188" y="99" on="1"/>
        <pt x="457" y="99" on="1"/>
        <pt x="443" y="0" on="1"/>
        <pt x="43" y="0" on="1"/>
        <pt x="140" y="691" on="1"/>
        <pt x="536" y="691" on="1"/>
        <pt x="508" y="593" on="1"/>
      </contour>
    </TTGlyph>
    <TTGlyph name="Epsilontonos" xMin="-77" yMin="0" xMax="536" yMax="721">
      <component glyphName="E" x="0" y="0" flags="0x0"/>
      <component glyphName="tonos.case" x="-145" y="4" flags="0x0"/>
    </TTGlyph>
    <TTGlyph name="Eta" xMin="43" yMin="0" xMax="644" yMax="691">
      <contour>
        <pt x="217" y="309" on="1"/>
        <pt x="174" y="0" on="1"/>
        <pt x="43" y="0" on="1"/>
        <pt x="140" y="691" on="1"/>
        <pt x="271" y="691" on="1"/>
        <pt x="231" y="414" on="1"/>
        <pt x="474" y="414" on="1"/>
        <pt x="513" y="691" on="1"/>
        <pt x="644" y="691" on="1"/>
        <pt x="547" y="0" on="1"/>
        <pt x="416" y="0" on="1"/>
        <pt x="459" y="309" on="1"/>
      </contour>
    </TTGlyph>
    <TTGlyph name="Etatonos" xMin="-78" yMin="0" xMax="644" yMax="721">
      <component glyphName="H" x="0" y="0" flags="0x0"/>
      <component glyphName="tonos.case" x="-146" y="4" flags="0x0"/>
    </TTGlyph>
    <TTGlyph name="Eth" xMin="24" yMin="0" xMax="625" yMax="691">
      <contour>
        <pt x="456" y="691" on="0"/>
        <pt x="625" y="576" on="0"/>
        <pt x="625" y="429" on="1"/>
        <pt x="625" y="309" on="0"/>
        <pt x="548" y="117" on="0"/>
        <pt x="377" y="0" on="0"/>
        <pt x="241" y="0" on="1"/>
        <pt x="52" y="0" on="1"/>
        <pt x="96" y="310" on="1"/>
        <pt x="24" y="310" on="1"/>
        <pt x="35" y="396" on="1"/>
        <pt x="108" y="396" on="1"/>
        <pt x="150" y="691" on="1"/>
        <pt x="317" y="691" on="1"/>
      </contour>
      <contour>
        <pt x="344" y="99" on="0"/>
        <pt x="447" y="197" on="0"/>
        <pt x="490" y="346" on="0"/>
        <pt x="490" y="430" on="1"/>
        <pt x="490" y="525" on="0"/>
        <pt x="404" y="592" on="0"/>
        <pt x="328" y="592" on="1"/>
        <pt x="266" y="592" on="1"/>
        <pt x="239" y="396" on="1"/>
        <pt x="385" y="396" on="1"/>
        <pt x="373" y="310" on="1"/>
        <pt x="227" y="310" on="1"/>
        <pt x="198" y="99" on="1"/>
        <pt x="260" y="99" on="1"/>
      </contour>
    </TTGlyph>
    <TTGlyph name="Euro" xMin="10" yMin="-15" xMax="609" yMax="685">
      <contour>
        <pt x="373" y="588" on="0"/>
        <pt x="286" y="520" on="0"/>
        <pt x="260" y="450" on="1"/>
        <pt x="506" y="450" on="1"/>
        <pt x="478" y="377" on="1"/>
        <pt x="244" y="377" on="1"/>
        <pt x="233" y="297" on="1"/>
        <pt x="449" y="297" on="1"/>
        <pt x="421" y="225" on="1"/>
        <pt x="226" y="225" on="1"/>
        <pt x="228" y="150" on="0"/>
        <pt x="292" y="83" on="0"/>
        <pt x="357" y="83" on="1"/>
        <pt x="396" y="83" on="0"/>
        <pt x="468" y="106" on="0"/>
        <pt x="506" y="126" on="1"/>
        <pt x="495" y="22" on="1"/>
        <pt x="452" y="3" on="0"/>
        <pt x="378" y="-15" on="0"/>
        <pt x="335" y="-15" on="1"/>
        <pt x="226" y="-15" on="0"/>
        <pt x="103" y="110" on="0"/>
        <pt x="97" y="225" on="1"/>
        <pt x="10" y="225" on="1"/>
        <pt x="38" y="297" on="1"/>
        <pt x="103" y="297" on="1"/>
        <pt x="114" y="377" on="1"/>
        <pt x="32" y="377" on="1"/>
        <pt x="60" y="450" on="1"/>
        <pt x="128" y="450" on="1"/>
        <pt x="167" y="562" on="0"/>
        <pt x="326" y="685" on="0"/>
        <pt x="428" y="685" on="1"/>
        <pt x="531" y="685" on="0"/>
        <pt x="609" y="626" on="1"/>
        <pt x="555" y="548" on="1"/>
        <pt x="525" y="569" on="0"/>
        <pt x="467" y="588" on="0"/>
        <pt x="430" y="588" on="1"/>
      </contour>
    </TTGlyph>
    <TTGlyph name="Euro.osf" xMin="10" yMin="-15" xMax="609" yMax="685">
      <component glyphName="Euro" x="0" y="0" flags="0x0"/>
    </TTGlyph>
    <TTGlyph name="Euro.tf" xMin="16" yMin="-15" xMax="610" yMax="706">
      <contour>
        <pt x="305" y="609" on="0"/>
        <pt x="260" y="460" on="1"/>
        <pt x="511" y="460" on="1"/>
        <pt x="483" y="387" on="1"/>
        <pt x="247" y="387" on="1"/>
        <pt x="237" y="307" on="1"/>
        <pt x="454" y="307" on="1"/>
        <pt x="427" y="235" on="1"/>
        <pt x="230" y="235" on="1"/>
        <pt x="231" y="153" on="0"/>
        <pt x="291" y="83" on="0"/>
        <pt x="356" y="83" on="1"/>
        <pt x="394" y="83" on="0"/>
        <pt x="464" y="106" on="0"/>
        <pt x="503" y="126" on="1"/>
        <pt x="492" y="22" on="1"/>
        <pt x="449" y="3" on="0"/>
        <pt x="375" y="-15" on="0"/>
        <pt x="332" y="-15" on="1"/>
        <pt x="225" y="-15" on="0"/>
        <pt x="109" y="113" on="0"/>
        <pt x="104" y="235" on="1"/>
        <pt x="16" y="235" on="1"/>
        <pt x="44" y="307" on="1"/>
        <pt x="110" y="307" on="1"/>
        <pt x="120" y="387" on="1"/>
        <pt x="37" y="387" on="1"/>
        <pt x="65" y="460" on="1"/>
        <pt x="132" y="460" on="1"/>
        <pt x="167" y="583" on="0"/>
        <pt x="323" y="706" on="0"/>
        <pt x="430" y="706" on="1"/>
        <pt x="534" y="706" on="0"/>
        <pt x="610" y="648" on="1"/>
        <pt x="559" y="569" on="1"/>
        <pt x="527" y="590" on="0"/>
        <pt x="469" y="609" on="0"/>
        <pt x="431" y="609" on="1"/>
      </contour>
    </TTGlyph>
    <TTGlyph name="Euro.tosf" xMin="30" yMin="-15" xMax="617" yMax="685">
      <contour>
        <pt x="387" y="588" on="0"/>
        <pt x="303" y="520" on="0"/>
        <pt x="280" y="450" on="1"/>
        <pt x="515" y="450" on="1"/>
        <pt x="486" y="377" on="1"/>
        <pt x="264" y="377" on="1"/>
        <pt x="253" y="297" on="1"/>
        <pt x="458" y="297" on="1"/>
        <pt x="430" y="225" on="1"/>
        <pt x="246" y="225" on="1"/>
        <pt x="248" y="150" on="0"/>
        <pt x="308" y="83" on="0"/>
        <pt x="371" y="83" on="1"/>
        <pt x="407" y="83" on="0"/>
        <pt x="475" y="106" on="0"/>
        <pt x="514" y="126" on="1"/>
        <pt x="502" y="22" on="1"/>
        <pt x="460" y="3" on="0"/>
        <pt x="389" y="-15" on="0"/>
        <pt x="349" y="-15" on="1"/>
        <pt x="242" y="-15" on="0"/>
        <pt x="123" y="110" on="0"/>
        <pt x="117" y="225" on="1"/>
        <pt x="30" y="225" on="1"/>
        <pt x="59" y="297" on="1"/>
        <pt x="123" y="297" on="1"/>
        <pt x="134" y="377" on="1"/>
        <pt x="52" y="377" on="1"/>
        <pt x="80" y="450" on="1"/>
        <pt x="148" y="450" on="1"/>
        <pt x="188" y="562" on="0"/>
        <pt x="342" y="685" on="0"/>
        <pt x="441" y="685" on="1"/>
        <pt x="539" y="685" on="0"/>
        <pt x="617" y="626" on="1"/>
        <pt x="563" y="548" on="1"/>
        <pt x="532" y="570" on="0"/>
        <pt x="478" y="588" on="0"/>
        <pt x="443" y="588" on="1"/>
      </contour>
    </TTGlyph>
    <TTGlyph name="F" xMin="43" yMin="0" xMax="526" yMax="691">
      <contour>
        <pt x="257" y="593" on="1"/>
        <pt x="228" y="386" on="1"/>
        <pt x="438" y="386" on="1"/>
        <pt x="425" y="288" on="1"/>
        <pt x="214" y="288" on="1"/>
        <pt x="174" y="0" on="1"/>
        <pt x="43" y="0" on="1"/>
        <pt x="140" y="691" on="1"/>
        <pt x="526" y="691" on="1"/>
        <pt x="499" y="593" on="1"/>
      </contour>
    </TTGlyph>
    <TTGlyph name="G" xMin="48" yMin="-15" xMax="623" yMax="706">
      <contour>
        <pt x="541" y="706" on="0"/>
        <pt x="623" y="622" on="1"/>
        <pt x="543" y="552" on="1"/>
        <pt x="513" y="581" on="0"/>
        <pt x="452" y="606" on="0"/>
        <pt x="411" y="606" on="1"/>
        <pt x="331" y="606" on="0"/>
        <pt x="229" y="497" on="0"/>
        <pt x="183" y="332" on="0"/>
        <pt x="183" y="246" on="1"/>
        <pt x="183" y="162" on="0"/>
        <pt x="249" y="86" on="0"/>
        <pt x="316" y="86" on="1"/>
        <pt x="376" y="86" on="0"/>
        <pt x="428" y="115" on="1"/>
        <pt x="454" y="293" on="1"/>
        <pt x="352" y="293" on="1"/>
        <pt x="352" y="391" on="1"/>
        <pt x="596" y="391" on="1"/>
        <pt x="550" y="55" on="1"/>
        <pt x="438" y="-15" on="0"/>
        <pt x="305" y="-15" on="1"/>
        <pt x="181" y="-15" on="0"/>
        <pt x="48" y="125" on="0"/>
        <pt x="48" y="259" on="1"/>
        <pt x="48" y="368" on="0"/>
        <pt x="125" y="573" on="0"/>
        <pt x="289" y="706" on="0"/>
        <pt x="412" y="706" on="1"/>
      </contour>
    </TTGlyph>
    <TTGlyph name="Gamma" xMin="44" yMin="0" xMax="558" yMax="691">
      <component glyphName="uni0413" x="0" y="0" flags="0x0"/>
    </TTGlyph>
    <TTGlyph name="Gbreve" xMin="48" yMin="-15" xMax="623" yMax="914">
      <component glyphName="G" x="0" y="0" flags="0x0"/>
      <component glyphName="breve.case" x="151" y="0" flags="0x0"/>
    </TTGlyph>
    <TTGlyph name="Gcircumflex" xMin="48" yMin="-15" xMax="623" yMax="933">
      <component glyphName="G" x="0" y="0" flags="0x0"/>
      <component glyphName="circumflex.case" x="148" y="0" flags="0x0"/>
    </TTGlyph>
    <TTGlyph name="Gcommaaccent" xMin="48" yMin="-312" xMax="623" yMax="706">
      <component glyphName="G" x="0" y="0" flags="0x0"/>
      <component glyphName="uni0326.case" x="244" y="0" flags="0x0"/>
    </TTGlyph>
    <TTGlyph name="Gdotaccent" xMin="48" yMin="-15" xMax="623" yMax="923">
      <component glyphName="G" x="0" y="0" flags="0x0"/>
      <component glyphName="dotaccent.case" x="284" y="0" flags="0x0"/>
    </TTGlyph>
    <TTGlyph name="H" xMin="43" yMin="0" xMax="644" yMax="691">
      <contour>
        <pt x="217" y="309" on="1"/>
        <pt x="174" y="0" on="1"/>
        <pt x="43" y="0" on="1"/>
        <pt x="140" y="691" on="1"/>
        <pt x="271" y="691" on="1"/>
        <pt x="231" y="414" on="1"/>
        <pt x="474" y="414" on="1"/>
        <pt x="513" y="691" on="1"/>
        <pt x="644" y="691" on="1"/>
        <pt x="547" y="0" on="1"/>
        <pt x="416" y="0" on="1"/>
        <pt x="459" y="309" on="1"/>
      </contour>
    </TTGlyph>
    <TTGlyph name="Hbar" xMin="49" yMin="0" xMax="697" yMax="692">
      <contour>
        <pt x="623" y="504" on="1"/>
        <pt x="553" y="0" on="1"/>
        <pt x="422" y="0" on="1"/>
        <pt x="465" y="308" on="1"/>
        <pt x="222" y="308" on="1"/>
        <pt x="179" y="0" on="1"/>
        <pt x="49" y="0" on="1"/>
        <pt x="119" y="504" on="1"/>
        <pt x="58" y="504" on="1"/>
        <pt x="69" y="585" on="1"/>
        <pt x="131" y="585" on="1"/>
        <pt x="146" y="692" on="1"/>
        <pt x="276" y="692" on="1"/>
        <pt x="261" y="585" on="1"/>
        <pt x="504" y="585" on="1"/>
        <pt x="519" y="692" on="1"/>
        <pt x="650" y="692" on="1"/>
        <pt x="635" y="585" on="1"/>
        <pt x="697" y="585" on="1"/>
        <pt x="685" y="504" on="1"/>
      </contour>
      <contour>
        <pt x="249" y="504" on="1"/>
        <pt x="237" y="414" on="1"/>
        <pt x="480" y="414" on="1"/>
        <pt x="492" y="504" on="1"/>
      </contour>
    </TTGlyph>
    <TTGlyph name="Hcircumflex" xMin="43" yMin="0" xMax="644" yMax="933">
      <component glyphName="H" x="0" y="0" flags="0x0"/>
      <component glyphName="circumflex.case" x="132" y="0" flags="0x0"/>
    </TTGlyph>
    <TTGlyph name="I" xMin="43" yMin="0" xMax="272" yMax="691">
      <contour>
        <pt x="43" y="0" on="1"/>
        <pt x="140" y="691" on="1"/>
        <pt x="272" y="691" on="1"/>
        <pt x="175" y="0" on="1"/>
      </contour>
    </TTGlyph>
    <TTGlyph name="IJ" xMin="43" yMin="-155" xMax="581" yMax="691">
      <component glyphName="I" x="0" y="0" flags="0x0"/>
      <component glyphName="J" x="292" y="0" flags="0x0"/>
    </TTGlyph>
    <TTGlyph name="Iacute" xMin="43" yMin="0" xMax="358" yMax="936">
      <component glyphName="I" x="0" y="0" flags="0x0"/>
      <component glyphName="acute.case" x="-8" y="0" flags="0x0"/>
    </TTGlyph>
    <TTGlyph name="Ibreve" xMin="43" yMin="0" xMax="387" yMax="914">
      <component glyphName="I" x="0" y="0" flags="0x0"/>
      <component glyphName="breve.case" x="-51" y="0" flags="0x0"/>
    </TTGlyph>
    <TTGlyph name="Icircumflex" xMin="43" yMin="0" xMax="404" yMax="933">
      <component glyphName="I" x="0" y="0" flags="0x0"/>
      <component glyphName="circumflex.case" x="-54" y="0" flags="0x0"/>
    </TTGlyph>
    <TTGlyph name="Idieresis" xMin="43" yMin="0" xMax="405" yMax="911">
      <component glyphName="I" x="0" y="0" flags="0x0"/>
      <component glyphName="dieresis.case" x="-21" y="0" flags="0x0"/>
    </TTGlyph>
    <TTGlyph name="Idotaccent" xMin="43" yMin="0" xMax="307" yMax="923">
      <component glyphName="I" x="0" y="0" flags="0x0"/>
      <component glyphName="dotaccent.case" x="81" y="0" flags="0x0"/>
    </TTGlyph>
    <TTGlyph name="Igrave" xMin="43" yMin="0" xMax="357" yMax="936">
      <component glyphName="I" x="0" y="0" flags="0x0"/>
      <component glyphName="grave.case" x="-8" y="0" flags="0x0"/>
    </TTGlyph>
    <TTGlyph name="Imacron" xMin="43" yMin="0" xMax="375" yMax="878">
      <component glyphName="I" x="0" y="0" flags="0x0"/>
      <component glyphName="macron.case" x="15" y="0" flags="0x0"/>
    </TTGlyph>
    <TTGlyph name="Iogonek" xMin="-76" yMin="-239" xMax="272" yMax="691">
      <contour>
        <pt x="175" y="0" on="1"/>
        <pt x="161" y="0" on="1"/>
        <pt x="23" y="-54" on="0"/>
        <pt x="23" y="-119" on="1"/>
        <pt x="23" y="-136" on="0"/>
        <pt x="47" y="-154" on="0"/>
        <pt x="69" y="-154" on="1"/>
        <pt x="94" y="-154" on="0"/>
        <pt x="132" y="-146" on="1"/>
        <pt x="113" y="-232" on="1"/>
        <pt x="84" y="-239" on="0"/>
        <pt x="48" y="-239" on="1"/>
        <pt x="-8" y="-239" on="0"/>
        <pt x="-76" y="-184" on="0"/>
        <pt x="-76" y="-139" on="1"/>
        <pt x="-76" y="-47" on="0"/>
        <pt x="44" y="9" on="1"/>
        <pt x="140" y="691" on="1"/>
        <pt x="272" y="691" on="1"/>
      </contour>
    </TTGlyph>
    <TTGlyph name="Iota" xMin="43" yMin="0" xMax="272" yMax="691">
      <contour>
        <pt x="43" y="0" on="1"/>
        <pt x="140" y="691" on="1"/>
        <pt x="272" y="691" on="1"/>
        <pt x="175" y="0" on="1"/>
      </contour>
    </TTGlyph>
    <TTGlyph name="Iotadieresis" xMin="43" yMin="0" xMax="405" yMax="911">
      <component glyphName="I" x="0" y="0" flags="0x0"/>
      <component glyphName="dieresis.case" x="-21" y="0" flags="0x0"/>
    </TTGlyph>
    <TTGlyph name="Iotatonos" xMin="-76" yMin="0" xMax="272" yMax="721">
      <component glyphName="I" x="0" y="0" flags="0x0"/>
      <component glyphName="tonos.case" x="-144" y="4" flags="0x0"/>
    </TTGlyph>
    <TTGlyph name="Itilde" xMin="43" yMin="0" xMax="409" yMax="910">
      <component glyphName="I" x="0" y="0" flags="0x0"/>
      <component glyphName="tilde.case" x="-17" y="0" flags="0x0"/>
    </TTGlyph>
    <TTGlyph name="J" xMin="-53" yMin="-155" xMax="289" yMax="691">
      <contour>
        <pt x="191" y="-12" on="0"/>
        <pt x="73" y="-124" on="0"/>
        <pt x="-28" y="-155" on="1"/>
        <pt x="-53" y="-59" on="1"/>
        <pt x="-7" y="-42" on="0"/>
        <pt x="45" y="2" on="0"/>
        <pt x="70" y="62" on="0"/>
        <pt x="76" y="108" on="1"/>
        <pt x="159" y="691" on="1"/>
        <pt x="289" y="691" on="1"/>
        <pt x="206" y="99" on="1"/>
      </contour>
    </TTGlyph>
    <TTGlyph name="Jcircumflex" xMin="-53" yMin="-155" xMax="422" yMax="933">
      <component glyphName="J" x="0" y="0" flags="0x0"/>
      <component glyphName="circumflex.case" x="-36" y="0" flags="0x0"/>
    </TTGlyph>
    <TTGlyph name="K" xMin="43" yMin="0" xMax="654" yMax="691">
      <contour>
        <pt x="43" y="0" on="1"/>
        <pt x="140" y="691" on="1"/>
        <pt x="271" y="691" on="1"/>
        <pt x="174" y="0" on="1"/>
      </contour>
      <contour>
        <pt x="575" y="0" on="1"/>
        <pt x="423" y="0" on="1"/>
        <pt x="231" y="369" on="1"/>
        <pt x="510" y="691" on="1"/>
        <pt x="654" y="691" on="1"/>
        <pt x="371" y="369" on="1"/>
      </contour>
    </TTGlyph>
    <TTGlyph name="Kappa" xMin="43" yMin="0" xMax="654" yMax="691">
      <component glyphName="K" x="0" y="0" flags="0x0"/>
    </TTGlyph>
    <TTGlyph name="Kcommaaccent" xMin="43" yMin="-312" xMax="654" yMax="691">
      <component glyphName="K" x="0" y="0" flags="0x0"/>
      <component glyphName="uni0326.case" x="219" y="0" flags="0x0"/>
    </TTGlyph>
    <TTGlyph name="L" xMin="43" yMin="0" xMax="461" yMax="691">
      <contour>
        <pt x="461" y="108" on="1"/>
        <pt x="432" y="0" on="1"/>
        <pt x="43" y="0" on="1"/>
        <pt x="140" y="691" on="1"/>
        <pt x="271" y="691" on="1"/>
        <pt x="189" y="108" on="1"/>
      </contour>
    </TTGlyph>
    <TTGlyph name="Lacute" xMin="43" yMin="0" xMax="461" yMax="936">
      <component glyphName="L" x="0" y="0" flags="0x0"/>
      <component glyphName="acute.case" x="-9" y="0" flags="0x0"/>
    </TTGlyph>
    <TTGlyph name="Lambda" xMin="-42" yMin="0" xMax="542" yMax="691">
      <contour>
        <pt x="405" y="0" on="1"/>
        <pt x="333" y="590" on="1"/>
        <pt x="94" y="0" on="1"/>
        <pt x="-42" y="0" on="1"/>
        <pt x="267" y="691" on="1"/>
        <pt x="428" y="691" on="1"/>
        <pt x="542" y="0" on="1"/>
      </contour>
    </TTGlyph>
    <TTGlyph name="Lcaron" xMin="43" yMin="0" xMax="461" yMax="703">
      <component glyphName="L" x="0" y="0" flags="0x0"/>
      <component glyphName="caron.alt" x="206" y="0" flags="0x0"/>
    </TTGlyph>
    <TTGlyph name="Lcommaaccent" xMin="43" yMin="-312" xMax="461" yMax="691">
      <component glyphName="L" x="0" y="0" flags="0x0"/>
      <component glyphName="uni0326.case" x="177" y="0" flags="0x0"/>
    </TTGlyph>
    <TTGlyph name="Ldot" xMin="43" yMin="0" xMax="487" yMax="691">
      <component glyphName="L" x="0" y="0" flags="0x0"/>
      <component glyphName="dotaccent" x="238" y="-326" flags="0x0"/>
    </TTGlyph>
    <TTGlyph name="Lslash" xMin="15" yMin="0" xMax="484" yMax="691">
      <contour>
        <pt x="66" y="0" on="1"/>
        <pt x="100" y="237" on="1"/>
        <pt x="50" y="209" on="1"/>
        <pt x="15" y="284" on="1"/>
        <pt x="114" y="341" on="1"/>
        <pt x="163" y="691" on="1"/>
        <pt x="294" y="691" on="1"/>
        <pt x="256" y="424" on="1"/>
        <pt x="411" y="513" on="1"/>
        <pt x="447" y="438" on="1"/>
        <pt x="241" y="319" on="1"/>
        <pt x="212" y="108" on="1"/>
        <pt x="484" y="108" on="1"/>
        <pt x="455" y="0" on="1"/>
      </contour>
    </TTGlyph>
    <TTGlyph name="M" xMin="9" yMin="0" xMax="734" yMax="691">
      <contour>
        <pt x="563" y="0" on="1"/>
        <pt x="586" y="292" on="1"/>
        <pt x="600" y="468" on="0"/>
        <pt x="617" y="578" on="1"/>
        <pt x="423" y="75" on="1"/>
        <pt x="298" y="75" on="1"/>
        <pt x="235" y="576" on="1"/>
        <pt x="226" y="448" on="0"/>
        <pt x="192" y="283" on="1"/>
        <pt x="136" y="0" on="1"/>
        <pt x="9" y="0" on="1"/>
        <pt x="161" y="691" on="1"/>
        <pt x="322" y="691" on="1"/>
        <pt x="378" y="202" on="1"/>
        <pt x="559" y="691" on="1"/>
        <pt x="734" y="691" on="1"/>
        <pt x="691" y="0" on="1"/>
      </contour>
    </TTGlyph>
    <TTGlyph name="Mu" xMin="9" yMin="0" xMax="734" yMax="691">
      <component glyphName="M" x="0" y="0" flags="0x0"/>
    </TTGlyph>
    <TTGlyph name="N" xMin="43" yMin="0" xMax="644" yMax="691">
      <contour>
        <pt x="380" y="0" on="1"/>
        <pt x="221" y="580" on="1"/>
        <pt x="222" y="508" on="0"/>
        <pt x="213" y="368" on="0"/>
        <pt x="200" y="276" on="1"/>
        <pt x="162" y="0" on="1"/>
        <pt x="43" y="0" on="1"/>
        <pt x="140" y="691" on="1"/>
        <pt x="307" y="691" on="1"/>
        <pt x="468" y="111" on="1"/>
        <pt x="467" y="135" on="0"/>
        <pt x="467" y="177" on="1"/>
        <pt x="467" y="274" on="0"/>
        <pt x="480" y="373" on="1"/>
        <pt x="526" y="691" on="1"/>
        <pt x="644" y="691" on="1"/>
        <pt x="547" y="0" on="1"/>
      </contour>
    </TTGlyph>
    <TTGlyph name="Nacute" xMin="43" yMin="0" xMax="644" yMax="936">
      <component glyphName="N" x="0" y="0" flags="0x0"/>
      <component glyphName="acute.case" x="185" y="0" flags="0x0"/>
    </TTGlyph>
    <TTGlyph name="Nacute.loclPLK" xMin="43" yMin="0" xMax="644" yMax="947">
      <component glyphName="N" x="0" y="0" flags="0x0"/>
      <component glyphName="acute.case.loclPLK" x="170" y="0" flags="0x0"/>
    </TTGlyph>
    <TTGlyph name="Ncaron" xMin="43" yMin="0" xMax="644" yMax="928">
      <component glyphName="N" x="0" y="0" flags="0x0"/>
      <component glyphName="caron.case" x="130" y="0" flags="0x0"/>
    </TTGlyph>
    <TTGlyph name="Ncommaaccent" xMin="43" yMin="-312" xMax="644" yMax="691">
      <component glyphName="N" x="0" y="0" flags="0x0"/>
      <component glyphName="uni0326.case" x="236" y="0" flags="0x0"/>
    </TTGlyph>
    <TTGlyph name="Ntilde" xMin="43" yMin="0" xMax="644" yMax="910">
      <component glyphName="N" x="0" y="0" flags="0x0"/>
      <component glyphName="tilde.case" x="176" y="0" flags="0x0"/>
    </TTGlyph>
    <TTGlyph name="Nu" xMin="43" yMin="0" xMax="644" yMax="691">
      <component glyphName="N" x="0" y="0" flags="0x0"/>
    </TTGlyph>
    <TTGlyph name="O" xMin="49" yMin="-15" xMax="658" yMax="706">
      <contour>
        <pt x="522" y="706" on="0"/>
        <pt x="658" y="559" on="0"/>
        <pt x="658" y="424" on="1"/>
        <pt x="658" y="321" on="0"/>
        <pt x="588" y="120" on="0"/>
        <pt x="430" y="-15" on="0"/>
        <pt x="306" y="-15" on="1"/>
        <pt x="185" y="-15" on="0"/>
        <pt x="49" y="132" on="0"/>
        <pt x="49" y="266" on="1"/>
        <pt x="49" y="368" on="0"/>
        <pt x="119" y="569" on="0"/>
        <pt x="277" y="706" on="0"/>
        <pt x="401" y="706" on="1"/>
      </contour>
      <contour>
        <pt x="316" y="605" on="0"/>
        <pt x="222" y="491" on="0"/>
        <pt x="184" y="330" on="0"/>
        <pt x="184" y="252" on="1"/>
        <pt x="184" y="86" on="0"/>
        <pt x="313" y="86" on="1"/>
        <pt x="391" y="86" on="0"/>
        <pt x="485" y="200" on="0"/>
        <pt x="522" y="363" on="0"/>
        <pt x="522" y="443" on="1"/>
        <pt x="522" y="605" on="0"/>
        <pt x="393" y="605" on="1"/>
      </contour>
    </TTGlyph>
    <TTGlyph name="OE" xMin="49" yMin="-15" xMax="902" yMax="706">
      <contour>
        <pt x="587" y="593" on="1"/>
        <pt x="635" y="526" on="0"/>
        <pt x="635" y="412" on="1"/>
        <pt x="635" y="400" on="1"/>
        <pt x="815" y="400" on="1"/>
        <pt x="802" y="302" on="1"/>
        <pt x="624" y="302" on="1"/>
        <pt x="600" y="178" on="0"/>
        <pt x="522" y="99" on="1"/>
        <pt x="823" y="99" on="1"/>
        <pt x="809" y="0" on="1"/>
        <pt x="378" y="0" on="1"/>
        <pt x="336" y="-15" on="0"/>
        <pt x="291" y="-15" on="1"/>
        <pt x="179" y="-15" on="0"/>
        <pt x="49" y="132" on="0"/>
        <pt x="49" y="265" on="1"/>
        <pt x="49" y="365" on="0"/>
        <pt x="118" y="568" on="0"/>
        <pt x="270" y="706" on="0"/>
        <pt x="385" y="706" on="1"/>
        <pt x="432" y="706" on="0"/>
        <pt x="471" y="691" on="1"/>
        <pt x="902" y="691" on="1"/>
        <pt x="875" y="593" on="1"/>
      </contour>
      <contour>
        <pt x="184" y="166" on="0"/>
        <pt x="246" y="86" on="0"/>
        <pt x="303" y="86" on="1"/>
        <pt x="375" y="86" on="0"/>
        <pt x="464" y="197" on="0"/>
        <pt x="502" y="360" on="0"/>
        <pt x="502" y="444" on="1"/>
        <pt x="502" y="605" on="0"/>
        <pt x="383" y="605" on="1"/>
        <pt x="311" y="605" on="0"/>
        <pt x="222" y="494" on="0"/>
        <pt x="184" y="333" on="0"/>
        <pt x="184" y="251" on="1"/>
      </contour>
    </TTGlyph>
    <TTGlyph name="Oacute" xMin="49" yMin="-15" xMax="658" yMax="936">
      <component glyphName="O" x="0" y="0" flags="0x0"/>
      <component glyphName="acute.case" x="190" y="0" flags="0x0"/>
    </TTGlyph>
    <TTGlyph name="Oacute.loclPLK" xMin="49" yMin="-15" xMax="658" yMax="947">
      <component glyphName="O" x="0" y="0" flags="0x0"/>
      <component glyphName="acute.case.loclPLK" x="174" y="0" flags="0x0"/>
    </TTGlyph>
    <TTGlyph name="Obreve" xMin="49" yMin="-15" xMax="658" yMax="914">
      <component glyphName="O" x="0" y="0" flags="0x0"/>
      <component glyphName="breve.case" x="146" y="0" flags="0x0"/>
    </TTGlyph>
    <TTGlyph name="Ocircumflex" xMin="49" yMin="-15" xMax="658" yMax="933">
      <component glyphName="O" x="0" y="0" flags="0x0"/>
      <component glyphName="circumflex.case" x="144" y="0" flags="0x0"/>
    </TTGlyph>
    <TTGlyph name="Odieresis" xMin="49" yMin="-15" xMax="658" yMax="911">
      <component glyphName="O" x="0" y="0" flags="0x0"/>
      <component glyphName="dieresis.case" x="177" y="0" flags="0x0"/>
    </TTGlyph>
    <TTGlyph name="Ograve" xMin="49" yMin="-15" xMax="658" yMax="936">
      <component glyphName="O" x="0" y="0" flags="0x0"/>
      <component glyphName="grave.case" x="190" y="0" flags="0x0"/>
    </TTGlyph>
    <TTGlyph name="Ohm" xMin="27" yMin="0" xMax="659" yMax="706">
      <component glyphName="Omega" x="0" y="0" flags="0x0"/>
    </TTGlyph>
    <TTGlyph name="Ohungarumlaut" xMin="49" yMin="-15" xMax="658" yMax="974">
      <component glyphName="O" x="0" y="0" flags="0x0"/>
      <component glyphName="hungarumlaut.case" x="190" y="0" flags="0x0"/>
    </TTGlyph>
    <TTGlyph name="Omacron" xMin="49" yMin="-15" xMax="658" yMax="878">
      <component glyphName="O" x="0" y="0" flags="0x0"/>
      <component glyphName="macron.case" x="214" y="0" flags="0x0"/>
    </TTGlyph>
    <TTGlyph name="Omega" xMin="27" yMin="0" xMax="659" yMax="706">
      <contour>
        <pt x="523" y="706" on="0"/>
        <pt x="659" y="560" on="0"/>
        <pt x="659" y="433" on="1"/>
        <pt x="659" y="328" on="0"/>
        <pt x="583" y="148" on="0"/>
        <pt x="490" y="101" on="1"/>
        <pt x="596" y="101" on="1"/>
        <pt x="582" y="0" on="1"/>
        <pt x="349" y="0" on="1"/>
        <pt x="361" y="99" on="1"/>
        <pt x="452" y="132" on="0"/>
        <pt x="523" y="335" on="0"/>
        <pt x="523" y="447" on="1"/>
        <pt x="523" y="605" on="0"/>
        <pt x="393" y="605" on="1"/>
        <pt x="316" y="605" on="0"/>
        <pt x="223" y="494" on="0"/>
        <pt x="185" y="335" on="0"/>
        <pt x="185" y="254" on="1"/>
        <pt x="185" y="189" on="0"/>
        <pt x="227" y="116" on="0"/>
        <pt x="272" y="97" on="1"/>
        <pt x="260" y="0" on="1"/>
        <pt x="27" y="0" on="1"/>
        <pt x="41" y="101" on="1"/>
        <pt x="147" y="101" on="1"/>
        <pt x="98" y="131" on="0"/>
        <pt x="51" y="226" on="0"/>
        <pt x="51" y="297" on="1"/>
        <pt x="51" y="387" on="0"/>
        <pt x="123" y="576" on="0"/>
        <pt x="280" y="706" on="0"/>
        <pt x="400" y="706" on="1"/>
      </contour>
    </TTGlyph>
    <TTGlyph name="Omegatonos" xMin="-60" yMin="0" xMax="659" yMax="721">
      <component glyphName="Omega" x="0" y="0" flags="0x0"/>
      <component glyphName="tonos.case" x="-128" y="4" flags="0x0"/>
    </TTGlyph>
    <TTGlyph name="Omicron" xMin="49" yMin="-15" xMax="658" yMax="706">
      <contour>
        <pt x="522" y="706" on="0"/>
        <pt x="658" y="559" on="0"/>
        <pt x="658" y="424" on="1"/>
        <pt x="658" y="321" on="0"/>
        <pt x="588" y="120" on="0"/>
        <pt x="430" y="-15" on="0"/>
        <pt x="306" y="-15" on="1"/>
        <pt x="185" y="-15" on="0"/>
        <pt x="49" y="132" on="0"/>
        <pt x="49" y="266" on="1"/>
        <pt x="49" y="368" on="0"/>
        <pt x="119" y="569" on="0"/>
        <pt x="277" y="706" on="0"/>
        <pt x="401" y="706" on="1"/>
      </contour>
      <contour>
        <pt x="316" y="605" on="0"/>
        <pt x="222" y="491" on="0"/>
        <pt x="184" y="330" on="0"/>
        <pt x="184" y="252" on="1"/>
        <pt x="184" y="86" on="0"/>
        <pt x="313" y="86" on="1"/>
        <pt x="391" y="86" on="0"/>
        <pt x="485" y="200" on="0"/>
        <pt x="522" y="363" on="0"/>
        <pt x="522" y="443" on="1"/>
        <pt x="522" y="605" on="0"/>
        <pt x="393" y="605" on="1"/>
      </contour>
    </TTGlyph>
    <TTGlyph name="Omicrontonos" xMin="-53" yMin="-15" xMax="658" yMax="721">
      <component glyphName="O" x="0" y="0" flags="0x0"/>
      <component glyphName="tonos.case" x="-121" y="4" flags="0x0"/>
    </TTGlyph>
    <TTGlyph name="Oslash" xMin="49" yMin="-131" xMax="658" yMax="824">
      <contour>
        <pt x="604" y="631" on="0"/>
        <pt x="658" y="509" on="0"/>
        <pt x="658" y="424" on="1"/>
        <pt x="658" y="321" on="0"/>
        <pt x="588" y="120" on="0"/>
        <pt x="430" y="-15" on="0"/>
        <pt x="306" y="-15" on="1"/>
        <pt x="278" y="-15" on="0"/>
        <pt x="248" y="-10" on="1"/>
        <pt x="195" y="-131" on="1"/>
        <pt x="95" y="-104" on="1"/>
        <pt x="154" y="27" on="1"/>
        <pt x="103" y="61" on="0"/>
        <pt x="49" y="182" on="0"/>
        <pt x="49" y="266" on="1"/>
        <pt x="49" y="368" on="0"/>
        <pt x="119" y="569" on="0"/>
        <pt x="277" y="706" on="0"/>
        <pt x="401" y="706" on="1"/>
        <pt x="434" y="706" on="0"/>
        <pt x="458" y="702" on="1"/>
        <pt x="512" y="824" on="1"/>
        <pt x="611" y="796" on="1"/>
        <pt x="552" y="665" on="1"/>
      </contour>
      <contour>
        <pt x="316" y="605" on="0"/>
        <pt x="221" y="491" on="0"/>
        <pt x="182" y="330" on="0"/>
        <pt x="182" y="252" on="1"/>
        <pt x="182" y="158" on="0"/>
        <pt x="216" y="121" on="1"/>
        <pt x="427" y="603" on="1"/>
        <pt x="407" y="605" on="0"/>
        <pt x="393" y="605" on="1"/>
      </contour>
      <contour>
        <pt x="391" y="86" on="0"/>
        <pt x="486" y="200" on="0"/>
        <pt x="524" y="363" on="0"/>
        <pt x="524" y="443" on="1"/>
        <pt x="524" y="535" on="0"/>
        <pt x="490" y="572" on="1"/>
        <pt x="279" y="89" on="1"/>
        <pt x="295" y="86" on="0"/>
        <pt x="313" y="86" on="1"/>
      </contour>
    </TTGlyph>
    <TTGlyph name="Oslashacute" xMin="49" yMin="-131" xMax="658" yMax="961">
      <component glyphName="Oslash" x="0" y="0" flags="0x0"/>
      <component glyphName="acute.case" x="187" y="25" flags="0x0"/>
    </TTGlyph>
    <TTGlyph name="Oslashacute.001" xMin="49" yMin="-131" xMax="658" yMax="961">
      <component glyphName="Oslash" x="0" y="0" flags="0x0"/>
      <component glyphName="acute.case" x="187" y="25" flags="0x0"/>
    </TTGlyph>
    <TTGlyph name="Otilde" xMin="49" yMin="-15" xMax="658" yMax="910">
      <component glyphName="O" x="0" y="0" flags="0x0"/>
      <component glyphName="tilde.case" x="181" y="0" flags="0x0"/>
    </TTGlyph>
    <TTGlyph name="P" xMin="43" yMin="0" xMax="590" yMax="691">
      <contour>
        <pt x="459" y="691" on="0"/>
        <pt x="590" y="596" on="0"/>
        <pt x="590" y="503" on="1"/>
        <pt x="590" y="434" on="0"/>
        <pt x="529" y="316" on="0"/>
        <pt x="394" y="241" on="0"/>
        <pt x="289" y="241" on="1"/>
        <pt x="207" y="241" on="1"/>
        <pt x="174" y="0" on="1"/>
        <pt x="43" y="0" on="1"/>
        <pt x="140" y="691" on="1"/>
        <pt x="340" y="691" on="1"/>
      </contour>
      <contour>
        <pt x="379" y="340" on="0"/>
        <pt x="453" y="432" on="0"/>
        <pt x="453" y="499" on="1"/>
        <pt x="453" y="549" on="0"/>
        <pt x="390" y="594" on="0"/>
        <pt x="329" y="594" on="1"/>
        <pt x="257" y="594" on="1"/>
        <pt x="221" y="340" on="1"/>
        <pt x="289" y="340" on="1"/>
      </contour>
    </TTGlyph>
    <TTGlyph name="Phi" xMin="35" yMin="0" xMax="808" yMax="691">
      <contour>
        <pt x="808" y="301" on="0"/>
        <pt x="736" y="166" on="0"/>
        <pt x="573" y="76" on="0"/>
        <pt x="446" y="72" on="1"/>
        <pt x="436" y="0" on="1"/>
        <pt x="309" y="0" on="1"/>
        <pt x="319" y="72" on="1"/>
        <pt x="183" y="80" on="0"/>
        <pt x="35" y="206" on="0"/>
        <pt x="35" y="315" on="1"/>
        <pt x="35" y="389" on="0"/>
        <pt x="107" y="524" on="0"/>
        <pt x="269" y="614" on="0"/>
        <pt x="396" y="618" on="1"/>
        <pt x="406" y="691" on="1"/>
        <pt x="533" y="691" on="1"/>
        <pt x="523" y="617" on="1"/>
        <pt x="659" y="610" on="0"/>
        <pt x="808" y="484" on="0"/>
        <pt x="808" y="376" on="1"/>
      </contour>
      <contour>
        <pt x="168" y="240" on="0"/>
        <pt x="252" y="162" on="0"/>
        <pt x="336" y="158" on="1"/>
        <pt x="389" y="532" on="1"/>
        <pt x="267" y="523" on="0"/>
        <pt x="168" y="395" on="0"/>
        <pt x="168" y="311" on="1"/>
      </contour>
      <contour>
        <pt x="577" y="166" on="0"/>
        <pt x="675" y="297" on="0"/>
        <pt x="675" y="381" on="1"/>
        <pt x="675" y="450" on="0"/>
        <pt x="592" y="528" on="0"/>
        <pt x="507" y="532" on="1"/>
        <pt x="454" y="157" on="1"/>
      </contour>
    </TTGlyph>
    <TTGlyph name="Pi" xMin="43" yMin="0" xMax="641" yMax="691">
      <component glyphName="uni041F" x="0" y="0" flags="0x0"/>
    </TTGlyph>
    <TTGlyph name="Psi" xMin="47" yMin="0" xMax="737" yMax="691">
      <contour>
        <pt x="700" y="427" on="1"/>
        <pt x="685" y="321" on="0"/>
        <pt x="535" y="200" on="0"/>
        <pt x="406" y="187" on="1"/>
        <pt x="380" y="0" on="1"/>
        <pt x="249" y="0" on="1"/>
        <pt x="275" y="187" on="1"/>
        <pt x="161" y="200" on="0"/>
        <pt x="47" y="302" on="0"/>
        <pt x="47" y="389" on="1"/>
        <pt x="47" y="409" on="0"/>
        <pt x="50" y="430" on="1"/>
        <pt x="87" y="691" on="1"/>
        <pt x="213" y="691" on="1"/>
        <pt x="176" y="427" on="1"/>
        <pt x="174" y="405" on="0"/>
        <pt x="174" y="395" on="1"/>
        <pt x="174" y="344" on="0"/>
        <pt x="231" y="290" on="0"/>
        <pt x="294" y="283" on="1"/>
        <pt x="351" y="691" on="1"/>
        <pt x="473" y="691" on="1"/>
        <pt x="415" y="284" on="1"/>
        <pt x="487" y="293" on="0"/>
        <pt x="565" y="365" on="0"/>
        <pt x="574" y="432" on="1"/>
        <pt x="611" y="691" on="1"/>
        <pt x="737" y="691" on="1"/>
      </contour>
    </TTGlyph>
    <TTGlyph name="Q" xMin="49" yMin="-128" xMax="658" yMax="706">
      <contour>
        <pt x="658" y="303" on="0"/>
        <pt x="563" y="87" on="0"/>
        <pt x="461" y="40" on="1"/>
        <pt x="520" y="38" on="0"/>
        <pt x="606" y="5" on="0"/>
        <pt x="642" y="-24" on="1"/>
        <pt x="549" y="-128" on="1"/>
        <pt x="499" y="-69" on="0"/>
        <pt x="394" y="-15" on="0"/>
        <pt x="306" y="-15" on="1"/>
        <pt x="185" y="-15" on="0"/>
        <pt x="49" y="132" on="0"/>
        <pt x="49" y="266" on="1"/>
        <pt x="49" y="368" on="0"/>
        <pt x="119" y="569" on="0"/>
        <pt x="277" y="706" on="0"/>
        <pt x="401" y="706" on="1"/>
        <pt x="522" y="706" on="0"/>
        <pt x="658" y="559" on="0"/>
        <pt x="658" y="424" on="1"/>
      </contour>
      <contour>
        <pt x="184" y="86" on="0"/>
        <pt x="313" y="86" on="1"/>
        <pt x="391" y="86" on="0"/>
        <pt x="485" y="200" on="0"/>
        <pt x="522" y="363" on="0"/>
        <pt x="522" y="443" on="1"/>
        <pt x="522" y="605" on="0"/>
        <pt x="393" y="605" on="1"/>
        <pt x="316" y="605" on="0"/>
        <pt x="222" y="491" on="0"/>
        <pt x="184" y="330" on="0"/>
        <pt x="184" y="252" on="1"/>
      </contour>
    </TTGlyph>
    <TTGlyph name="R" xMin="43" yMin="0" xMax="588" yMax="691">
      <contour>
        <pt x="588" y="358" on="0"/>
        <pt x="422" y="298" on="1"/>
        <pt x="557" y="0" on="1"/>
        <pt x="413" y="0" on="1"/>
        <pt x="298" y="277" on="1"/>
        <pt x="212" y="277" on="1"/>
        <pt x="174" y="0" on="1"/>
        <pt x="43" y="0" on="1"/>
        <pt x="140" y="691" on="1"/>
        <pt x="342" y="691" on="1"/>
        <pt x="588" y="691" on="0"/>
        <pt x="588" y="520" on="1"/>
      </contour>
      <contour>
        <pt x="310" y="372" on="1"/>
        <pt x="387" y="372" on="0"/>
        <pt x="452" y="457" on="0"/>
        <pt x="452" y="515" on="1"/>
        <pt x="452" y="557" on="0"/>
        <pt x="393" y="595" on="0"/>
        <pt x="330" y="595" on="1"/>
        <pt x="257" y="595" on="1"/>
        <pt x="226" y="372" on="1"/>
      </contour>
    </TTGlyph>
    <TTGlyph name="Racute" xMin="43" yMin="0" xMax="588" yMax="936">
      <component glyphName="R" x="0" y="0" flags="0x0"/>
      <component glyphName="acute.case" x="145" y="0" flags="0x0"/>
    </TTGlyph>
    <TTGlyph name="Rcaron" xMin="43" yMin="0" xMax="588" yMax="928">
      <component glyphName="R" x="0" y="0" flags="0x0"/>
      <component glyphName="caron.case" x="90" y="0" flags="0x0"/>
    </TTGlyph>
    <TTGlyph name="Rcommaaccent" xMin="43" yMin="-312" xMax="588" yMax="691">
      <component glyphName="R" x="0" y="0" flags="0x0"/>
      <component glyphName="uni0326.case" x="209" y="0" flags="0x0"/>
    </TTGlyph>
    <TTGlyph name="Rho" xMin="43" yMin="0" xMax="590" yMax="691">
      <component glyphName="P" x="0" y="0" flags="0x0"/>
    </TTGlyph>
    <TTGlyph name="S" xMin="-9" yMin="-15" xMax="550" yMax="706">
      <contour>
        <pt x="403" y="706" on="0"/>
        <pt x="509" y="662" on="0"/>
        <pt x="550" y="619" on="1"/>
        <pt x="476" y="547" on="1"/>
        <pt x="444" y="577" on="0"/>
        <pt x="376" y="605" on="0"/>
        <pt x="335" y="605" on="1"/>
        <pt x="282" y="605" on="0"/>
        <pt x="213" y="555" on="0"/>
        <pt x="213" y="512" on="1"/>
        <pt x="213" y="489" on="0"/>
        <pt x="235" y="457" on="0"/>
        <pt x="286" y="429" on="0"/>
        <pt x="335" y="412" on="1"/>
        <pt x="422" y="384" on="0"/>
        <pt x="514" y="297" on="0"/>
        <pt x="514" y="219" on="1"/>
        <pt x="514" y="164" on="0"/>
        <pt x="458" y="57" on="0"/>
        <pt x="330" y="-15" on="0"/>
        <pt x="229" y="-15" on="1"/>
        <pt x="79" y="-15" on="0"/>
        <pt x="-9" y="82" on="1"/>
        <pt x="69" y="158" on="1"/>
        <pt x="135" y="89" on="0"/>
        <pt x="231" y="89" on="1"/>
        <pt x="293" y="89" on="0"/>
        <pt x="376" y="150" on="0"/>
        <pt x="376" y="202" on="1"/>
        <pt x="376" y="241" on="0"/>
        <pt x="325" y="288" on="0"/>
        <pt x="259" y="311" on="1"/>
        <pt x="165" y="341" on="0"/>
        <pt x="77" y="430" on="0"/>
        <pt x="77" y="501" on="1"/>
        <pt x="77" y="550" on="0"/>
        <pt x="132" y="644" on="0"/>
        <pt x="248" y="706" on="0"/>
        <pt x="333" y="706" on="1"/>
      </contour>
    </TTGlyph>
    <TTGlyph name="Sacute" xMin="-9" yMin="-15" xMax="550" yMax="936">
      <component glyphName="S" x="0" y="0" flags="0x0"/>
      <component glyphName="acute.case" x="128" y="0" flags="0x0"/>
    </TTGlyph>
    <TTGlyph name="Sacute.loclPLK" xMin="-9" yMin="-15" xMax="550" yMax="947">
      <component glyphName="S" x="0" y="0" flags="0x0"/>
      <component glyphName="acute.case.loclPLK" x="112" y="0" flags="0x0"/>
    </TTGlyph>
    <TTGlyph name="Scaron" xMin="-9" yMin="-15" xMax="550" yMax="928">
      <component glyphName="S" x="0" y="0" flags="0x0"/>
      <component glyphName="caron.case" x="73" y="0" flags="0x0"/>
    </TTGlyph>
    <TTGlyph name="Scedilla" xMin="-9" yMin="-252" xMax="550" yMax="706">
      <contour>
        <pt x="422" y="384" on="0"/>
        <pt x="514" y="297" on="0"/>
        <pt x="514" y="219" on="1"/>
        <pt x="514" y="166" on="0"/>
        <pt x="461" y="61" on="0"/>
        <pt x="340" y="-12" on="0"/>
        <pt x="244" y="-15" on="1"/>
        <pt x="238" y="-51" on="1"/>
        <pt x="281" y="-55" on="0"/>
        <pt x="324" y="-100" on="0"/>
        <pt x="324" y="-134" on="1"/>
        <pt x="324" y="-163" on="0"/>
        <pt x="293" y="-217" on="0"/>
        <pt x="227" y="-252" on="0"/>
        <pt x="176" y="-252" on="1"/>
        <pt x="145" y="-252" on="0"/>
        <pt x="94" y="-236" on="0"/>
        <pt x="77" y="-223" on="1"/>
        <pt x="115" y="-162" on="1"/>
        <pt x="142" y="-178" on="0"/>
        <pt x="173" y="-178" on="1"/>
        <pt x="197" y="-179" on="0"/>
        <pt x="229" y="-158" on="0"/>
        <pt x="229" y="-139" on="1"/>
        <pt x="229" y="-121" on="0"/>
        <pt x="192" y="-106" on="0"/>
        <pt x="145" y="-106" on="1"/>
        <pt x="169" y="-10" on="1"/>
        <pt x="60" y="7" on="0"/>
        <pt x="-9" y="82" on="1"/>
        <pt x="69" y="158" on="1"/>
        <pt x="135" y="89" on="0"/>
        <pt x="231" y="89" on="1"/>
        <pt x="293" y="89" on="0"/>
        <pt x="376" y="150" on="0"/>
        <pt x="376" y="202" on="1"/>
        <pt x="376" y="241" on="0"/>
        <pt x="325" y="288" on="0"/>
        <pt x="259" y="311" on="1"/>
        <pt x="165" y="341" on="0"/>
        <pt x="77" y="430" on="0"/>
        <pt x="77" y="501" on="1"/>
        <pt x="77" y="550" on="0"/>
        <pt x="132" y="644" on="0"/>
        <pt x="248" y="706" on="0"/>
        <pt x="333" y="706" on="1"/>
        <pt x="403" y="706" on="0"/>
        <pt x="509" y="662" on="0"/>
        <pt x="550" y="619" on="1"/>
        <pt x="476" y="547" on="1"/>
        <pt x="444" y="577" on="0"/>
        <pt x="376" y="605" on="0"/>
        <pt x="335" y="605" on="1"/>
        <pt x="282" y="605" on="0"/>
        <pt x="213" y="555" on="0"/>
        <pt x="213" y="512" on="1"/>
        <pt x="213" y="489" on="0"/>
        <pt x="235" y="457" on="0"/>
        <pt x="286" y="429" on="0"/>
        <pt x="335" y="412" on="1"/>
      </contour>
    </TTGlyph>
    <TTGlyph name="Scircumflex" xMin="-9" yMin="-15" xMax="550" yMax="933">
      <component glyphName="S" x="0" y="0" flags="0x0"/>
      <component glyphName="circumflex.case" x="82" y="0" flags="0x0"/>
    </TTGlyph>
    <TTGlyph name="Scommaaccent" xMin="-9" yMin="-312" xMax="550" yMax="706">
      <component glyphName="S" x="0" y="0" flags="0x0"/>
      <component glyphName="uni0326.case" x="175" y="0" flags="0x0"/>
    </TTGlyph>
    <TTGlyph name="Sigma" xMin="-8" yMin="0" xMax="526" yMax="691">
      <contour>
        <pt x="219" y="591" on="1"/>
        <pt x="368" y="373" on="1"/>
        <pt x="361" y="309" on="1"/>
        <pt x="151" y="102" on="1"/>
        <pt x="444" y="102" on="1"/>
        <pt x="429" y="0" on="1"/>
        <pt x="-8" y="0" on="1"/>
        <pt x="5" y="100" on="1"/>
        <pt x="243" y="339" on="1"/>
        <pt x="75" y="591" on="1"/>
        <pt x="89" y="691" on="1"/>
        <pt x="526" y="691" on="1"/>
        <pt x="512" y="591" on="1"/>
      </contour>
    </TTGlyph>
    <TTGlyph name="T" xMin="56" yMin="0" xMax="578" yMax="691">
      <contour>
        <pt x="371" y="586" on="1"/>
        <pt x="289" y="0" on="1"/>
        <pt x="158" y="0" on="1"/>
        <pt x="240" y="586" on="1"/>
        <pt x="56" y="586" on="1"/>
        <pt x="71" y="691" on="1"/>
        <pt x="578" y="691" on="1"/>
        <pt x="549" y="586" on="1"/>
      </contour>
    </TTGlyph>
    <TTGlyph name="Tau" xMin="56" yMin="0" xMax="578" yMax="691">
      <component glyphName="T" x="0" y="0" flags="0x0"/>
    </TTGlyph>
    <TTGlyph name="Tbar" xMin="56" yMin="0" xMax="578" yMax="691">
      <contour>
        <pt x="461" y="390" on="1"/>
        <pt x="450" y="307" on="1"/>
        <pt x="333" y="307" on="1"/>
        <pt x="289" y="0" on="1"/>
        <pt x="158" y="0" on="1"/>
        <pt x="201" y="307" on="1"/>
        <pt x="85" y="307" on="1"/>
        <pt x="96" y="390" on="1"/>
        <pt x="212" y="390" on="1"/>
        <pt x="240" y="586" on="1"/>
        <pt x="56" y="586" on="1"/>
        <pt x="71" y="691" on="1"/>
        <pt x="578" y="691" on="1"/>
        <pt x="549" y="586" on="1"/>
        <pt x="371" y="586" on="1"/>
        <pt x="344" y="390" on="1"/>
      </contour>
    </TTGlyph>
    <TTGlyph name="Tcaron" xMin="56" yMin="0" xMax="578" yMax="928">
      <component glyphName="T" x="0" y="0" flags="0x0"/>
      <component glyphName="caron.case" x="52" y="0" flags="0x0"/>
    </TTGlyph>
    <TTGlyph name="Tcedilla" xMin="56" yMin="-253" xMax="578" yMax="691">
      <contour>
        <pt x="549" y="586" on="1"/>
        <pt x="371" y="586" on="1"/>
        <pt x="290" y="0" on="1"/>
        <pt x="282" y="-52" on="1"/>
        <pt x="325" y="-56" on="0"/>
        <pt x="368" y="-101" on="0"/>
        <pt x="368" y="-135" on="1"/>
        <pt x="368" y="-164" on="0"/>
        <pt x="337" y="-218" on="0"/>
        <pt x="270" y="-253" on="0"/>
        <pt x="219" y="-253" on="1"/>
        <pt x="161" y="-253" on="0"/>
        <pt x="120" y="-223" on="1"/>
        <pt x="159" y="-162" on="1"/>
        <pt x="184" y="-179" on="0"/>
        <pt x="216" y="-179" on="1"/>
        <pt x="240" y="-179" on="0"/>
        <pt x="272" y="-158" on="0"/>
        <pt x="272" y="-139" on="1"/>
        <pt x="272" y="-121" on="0"/>
        <pt x="234" y="-106" on="0"/>
        <pt x="188" y="-106" on="1"/>
        <pt x="214" y="0" on="1"/>
        <pt x="158" y="0" on="1"/>
        <pt x="240" y="586" on="1"/>
        <pt x="56" y="586" on="1"/>
        <pt x="71" y="691" on="1"/>
        <pt x="578" y="691" on="1"/>
      </contour>
    </TTGlyph>
    <TTGlyph name="Theta" xMin="49" yMin="-15" xMax="658" yMax="706">
      <contour>
        <pt x="522" y="706" on="0"/>
        <pt x="658" y="560" on="0"/>
        <pt x="658" y="424" on="1"/>
        <pt x="658" y="324" on="0"/>
        <pt x="588" y="123" on="0"/>
        <pt x="430" y="-15" on="0"/>
        <pt x="306" y="-15" on="1"/>
        <pt x="184" y="-15" on="0"/>
        <pt x="49" y="131" on="0"/>
        <pt x="49" y="266" on="1"/>
        <pt x="49" y="366" on="0"/>
        <pt x="119" y="568" on="0"/>
        <pt x="277" y="706" on="0"/>
        <pt x="400" y="706" on="1"/>
      </contour>
      <contour>
        <pt x="314" y="605" on="0"/>
        <pt x="219" y="494" on="0"/>
        <pt x="180" y="334" on="0"/>
        <pt x="180" y="254" on="1"/>
        <pt x="180" y="86" on="0"/>
        <pt x="313" y="86" on="1"/>
        <pt x="393" y="86" on="0"/>
        <pt x="489" y="198" on="0"/>
        <pt x="527" y="358" on="0"/>
        <pt x="527" y="440" on="1"/>
        <pt x="527" y="526" on="0"/>
        <pt x="459" y="605" on="0"/>
        <pt x="393" y="605" on="1"/>
      </contour>
      <contour>
        <pt x="239" y="310" on="1"/>
        <pt x="252" y="394" on="1"/>
        <pt x="468" y="394" on="1"/>
        <pt x="455" y="310" on="1"/>
      </contour>
    </TTGlyph>
    <TTGlyph name="Thorn" xMin="43" yMin="0" xMax="574" yMax="691">
      <contour>
        <pt x="444" y="578" on="0"/>
        <pt x="574" y="482" on="0"/>
        <pt x="574" y="385" on="1"/>
        <pt x="574" y="319" on="0"/>
        <pt x="516" y="199" on="0"/>
        <pt x="381" y="120" on="0"/>
        <pt x="272" y="120" on="1"/>
        <pt x="190" y="120" on="1"/>
        <pt x="174" y="0" on="1"/>
        <pt x="43" y="0" on="1"/>
        <pt x="140" y="691" on="1"/>
        <pt x="271" y="691" on="1"/>
        <pt x="255" y="578" on="1"/>
        <pt x="324" y="578" on="1"/>
      </contour>
      <contour>
        <pt x="361" y="219" on="0"/>
        <pt x="437" y="315" on="0"/>
        <pt x="437" y="383" on="1"/>
        <pt x="437" y="435" on="0"/>
        <pt x="374" y="481" on="0"/>
        <pt x="313" y="481" on="1"/>
        <pt x="241" y="481" on="1"/>
        <pt x="204" y="219" on="1"/>
        <pt x="272" y="219" on="1"/>
      </contour>
    </TTGlyph>
    <TTGlyph name="U" xMin="62" yMin="-15" xMax="638" yMax="691">
      <contour>
        <pt x="558" y="116" on="0"/>
        <pt x="407" y="-15" on="0"/>
        <pt x="287" y="-15" on="1"/>
        <pt x="177" y="-15" on="0"/>
        <pt x="62" y="93" on="0"/>
        <pt x="62" y="185" on="1"/>
        <pt x="62" y="207" on="0"/>
        <pt x="65" y="228" on="1"/>
        <pt x="130" y="691" on="1"/>
        <pt x="261" y="691" on="1"/>
        <pt x="196" y="230" on="1"/>
        <pt x="193" y="209" on="0"/>
        <pt x="193" y="190" on="1"/>
        <pt x="193" y="138" on="0"/>
        <pt x="243" y="89" on="0"/>
        <pt x="295" y="88" on="1"/>
        <pt x="360" y="88" on="0"/>
        <pt x="431" y="161" on="0"/>
        <pt x="442" y="235" on="1"/>
        <pt x="507" y="691" on="1"/>
        <pt x="638" y="691" on="1"/>
        <pt x="573" y="224" on="1"/>
      </contour>
    </TTGlyph>
    <TTGlyph name="Uacute" xMin="62" yMin="-15" xMax="638" yMax="936">
      <component glyphName="U" x="0" y="0" flags="0x0"/>
      <component glyphName="acute.case" x="169" y="0" flags="0x0"/>
    </TTGlyph>
    <TTGlyph name="Ubreve" xMin="62" yMin="-15" xMax="638" yMax="914">
      <component glyphName="U" x="0" y="0" flags="0x0"/>
      <component glyphName="breve.case" x="126" y="0" flags="0x0"/>
    </TTGlyph>
    <TTGlyph name="Ucircumflex" xMin="62" yMin="-15" xMax="638" yMax="933">
      <component glyphName="U" x="0" y="0" flags="0x0"/>
      <component glyphName="circumflex.case" x="123" y="0" flags="0x0"/>
    </TTGlyph>
    <TTGlyph name="Udieresis" xMin="62" yMin="-15" xMax="638" yMax="911">
      <component glyphName="U" x="0" y="0" flags="0x0"/>
      <component glyphName="dieresis.case" x="157" y="0" flags="0x0"/>
    </TTGlyph>
    <TTGlyph name="Ugrave" xMin="62" yMin="-15" xMax="638" yMax="936">
      <component glyphName="U" x="0" y="0" flags="0x0"/>
      <component glyphName="grave.case" x="169" y="0" flags="0x0"/>
    </TTGlyph>
    <TTGlyph name="Uhungarumlaut" xMin="62" yMin="-15" xMax="638" yMax="974">
      <component glyphName="U" x="0" y="0" flags="0x0"/>
      <component glyphName="hungarumlaut.case" x="170" y="0" flags="0x0"/>
    </TTGlyph>
    <TTGlyph name="Umacron" xMin="62" yMin="-15" xMax="638" yMax="878">
      <component glyphName="U" x="0" y="0" flags="0x0"/>
      <component glyphName="macron.case" x="193" y="0" flags="0x0"/>
    </TTGlyph>
    <TTGlyph name="Uogonek" xMin="62" yMin="-240" xMax="638" yMax="691">
      <contour>
        <pt x="573" y="224" on="1"/>
        <pt x="561" y="139" on="0"/>
        <pt x="460" y="19" on="0"/>
        <pt x="379" y="-3" on="1"/>
        <pt x="311" y="-31" on="0"/>
        <pt x="262" y="-84" on="0"/>
        <pt x="262" y="-113" on="1"/>
        <pt x="262" y="-154" on="0"/>
        <pt x="313" y="-154" on="1"/>
        <pt x="343" y="-154" on="0"/>
        <pt x="375" y="-147" on="1"/>
        <pt x="360" y="-232" on="1"/>
        <pt x="326" y="-240" on="0"/>
        <pt x="293" y="-240" on="1"/>
        <pt x="234" y="-240" on="0"/>
        <pt x="162" y="-182" on="0"/>
        <pt x="162" y="-136" on="1"/>
        <pt x="162" y="-96" on="0"/>
        <pt x="212" y="-34" on="0"/>
        <pt x="257" y="-14" on="1"/>
        <pt x="161" y="-7" on="0"/>
        <pt x="62" y="100" on="0"/>
        <pt x="62" y="185" on="1"/>
        <pt x="62" y="207" on="0"/>
        <pt x="65" y="228" on="1"/>
        <pt x="130" y="691" on="1"/>
        <pt x="261" y="691" on="1"/>
        <pt x="196" y="230" on="1"/>
        <pt x="193" y="209" on="0"/>
        <pt x="193" y="190" on="1"/>
        <pt x="193" y="138" on="0"/>
        <pt x="243" y="89" on="0"/>
        <pt x="295" y="88" on="1"/>
        <pt x="360" y="88" on="0"/>
        <pt x="431" y="161" on="0"/>
        <pt x="442" y="235" on="1"/>
        <pt x="507" y="691" on="1"/>
        <pt x="638" y="691" on="1"/>
      </contour>
    </TTGlyph>
    <TTGlyph name="Upsilon" xMin="58" yMin="0" xMax="628" yMax="691">
      <contour>
        <pt x="312" y="0" on="1"/>
        <pt x="180" y="0" on="1"/>
        <pt x="217" y="261" on="1"/>
        <pt x="58" y="691" on="1"/>
        <pt x="197" y="691" on="1"/>
        <pt x="297" y="370" on="1"/>
        <pt x="487" y="691" on="1"/>
        <pt x="628" y="691" on="1"/>
        <pt x="349" y="262" on="1"/>
      </contour>
    </TTGlyph>
    <TTGlyph name="Upsilondieresis" xMin="58" yMin="0" xMax="628" yMax="911">
      <component glyphName="Y" x="0" y="0" flags="0x0"/>
      <component glyphName="dieresis.case" x="118" y="0" flags="0x0"/>
    </TTGlyph>
    <TTGlyph name="Upsilontonos" xMin="-148" yMin="0" xMax="628" yMax="721">
      <component glyphName="Y" x="0" y="0" flags="0x0"/>
      <component glyphName="tonos.case" x="-216" y="4" flags="0x0"/>
    </TTGlyph>
    <TTGlyph name="Uring" xMin="62" yMin="-15" xMax="638" yMax="979">
      <component glyphName="U" x="0" y="0" flags="0x0"/>
      <component glyphName="ring.case" x="211" y="0" flags="0x0"/>
    </TTGlyph>
    <TTGlyph name="Utilde" xMin="62" yMin="-15" xMax="638" yMax="910">
      <component glyphName="U" x="0" y="0" flags="0x0"/>
      <component glyphName="tilde.case" x="161" y="0" flags="0x0"/>
    </TTGlyph>
    <TTGlyph name="V" xMin="55" yMin="0" xMax="621" yMax="691">
      <contour>
        <pt x="166" y="0" on="1"/>
        <pt x="55" y="691" on="1"/>
        <pt x="192" y="691" on="1"/>
        <pt x="259" y="117" on="1"/>
        <pt x="485" y="691" on="1"/>
        <pt x="621" y="691" on="1"/>
        <pt x="321" y="0" on="1"/>
      </contour>
    </TTGlyph>
    <TTGlyph name="W" xMin="78" yMin="0" xMax="872" yMax="691">
      <contour>
        <pt x="480" y="0" on="1"/>
        <pt x="454" y="551" on="1"/>
        <pt x="270" y="0" on="1"/>
        <pt x="105" y="0" on="1"/>
        <pt x="78" y="691" on="1"/>
        <pt x="205" y="691" on="1"/>
        <pt x="210" y="105" on="1"/>
        <pt x="404" y="691" on="1"/>
        <pt x="543" y="691" on="1"/>
        <pt x="570" y="105" on="1"/>
        <pt x="748" y="691" on="1"/>
        <pt x="872" y="691" on="1"/>
        <pt x="650" y="0" on="1"/>
      </contour>
    </TTGlyph>
    <TTGlyph name="Wacute" xMin="78" yMin="0" xMax="872" yMax="936">
      <component glyphName="W" x="0" y="0" flags="0x0"/>
      <component glyphName="acute.case" x="261" y="0" flags="0x0"/>
    </TTGlyph>
    <TTGlyph name="Wcircumflex" xMin="78" yMin="0" xMax="872" yMax="933">
      <component glyphName="W" x="0" y="0" flags="0x0"/>
      <component glyphName="circumflex.case" x="215" y="0" flags="0x0"/>
    </TTGlyph>
    <TTGlyph name="Wdieresis" xMin="78" yMin="0" xMax="872" yMax="911">
      <component glyphName="W" x="0" y="0" flags="0x0"/>
      <component glyphName="dieresis.case" x="248" y="0" flags="0x0"/>
    </TTGlyph>
    <TTGlyph name="Wgrave" xMin="78" yMin="0" xMax="872" yMax="936">
      <component glyphName="W" x="0" y="0" flags="0x0"/>
      <component glyphName="grave.case" x="261" y="0" flags="0x0"/>
    </TTGlyph>
    <TTGlyph name="X" xMin="-38" yMin="0" xMax="595" yMax="691">
      <contour>
        <pt x="517" y="0" on="1"/>
        <pt x="376" y="0" on="1"/>
        <pt x="281" y="286" on="1"/>
        <pt x="105" y="0" on="1"/>
        <pt x="-38" y="0" on="1"/>
        <pt x="210" y="368" on="1"/>
        <pt x="212" y="369" on="1"/>
        <pt x="76" y="691" on="1"/>
        <pt x="217" y="691" on="1"/>
        <pt x="298" y="449" on="1"/>
        <pt x="453" y="691" on="1"/>
        <pt x="595" y="691" on="1"/>
        <pt x="369" y="373" on="1"/>
        <pt x="368" y="371" on="1"/>
      </contour>
    </TTGlyph>
    <TTGlyph name="Xi" xMin="-1" yMin="0" xMax="531" yMax="691">
      <contour>
        <pt x="79" y="578" on="1"/>
        <pt x="96" y="691" on="1"/>
        <pt x="531" y="691" on="1"/>
        <pt x="499" y="578" on="1"/>
      </contour>
      <contour>
        <pt x="102" y="296" on="1"/>
        <pt x="117" y="405" on="1"/>
        <pt x="428" y="405" on="1"/>
        <pt x="412" y="296" on="1"/>
      </contour>
      <contour>
        <pt x="-1" y="0" on="1"/>
        <pt x="15" y="117" on="1"/>
        <pt x="454" y="117" on="1"/>
        <pt x="438" y="0" on="1"/>
      </contour>
    </TTGlyph>
    <TTGlyph name="Y" xMin="58" yMin="0" xMax="628" yMax="691">
      <contour>
        <pt x="312" y="0" on="1"/>
        <pt x="180" y="0" on="1"/>
        <pt x="217" y="261" on="1"/>
        <pt x="58" y="691" on="1"/>
        <pt x="197" y="691" on="1"/>
        <pt x="297" y="370" on="1"/>
        <pt x="487" y="691" on="1"/>
        <pt x="628" y="691" on="1"/>
        <pt x="349" y="262" on="1"/>
      </contour>
    </TTGlyph>
    <TTGlyph name="Yacute" xMin="58" yMin="0" xMax="628" yMax="936">
      <component glyphName="Y" x="0" y="0" flags="0x0"/>
      <component glyphName="acute.case" x="130" y="0" flags="0x0"/>
    </TTGlyph>
    <TTGlyph name="Ycircumflex" xMin="58" yMin="0" xMax="628" yMax="933">
      <component glyphName="Y" x="0" y="0" flags="0x0"/>
      <component glyphName="circumflex.case" x="84" y="0" flags="0x0"/>
    </TTGlyph>
    <TTGlyph name="Ydieresis" xMin="58" yMin="0" xMax="628" yMax="911">
      <component glyphName="Y" x="0" y="0" flags="0x0"/>
      <component glyphName="dieresis.case" x="118" y="0" flags="0x0"/>
    </TTGlyph>
    <TTGlyph name="Ygrave" xMin="58" yMin="0" xMax="628" yMax="936">
      <component glyphName="Y" x="0" y="0" flags="0x0"/>
      <component glyphName="grave.case" x="130" y="0" flags="0x0"/>
    </TTGlyph>
    <TTGlyph name="Z" xMin="-15" yMin="0" xMax="549" yMax="691">
      <contour>
        <pt x="154" y="108" on="1"/>
        <pt x="470" y="108" on="1"/>
        <pt x="441" y="0" on="1"/>
        <pt x="-15" y="0" on="1"/>
        <pt x="-1" y="101" on="1"/>
        <pt x="385" y="586" on="1"/>
        <pt x="101" y="586" on="1"/>
        <pt x="115" y="691" on="1"/>
        <pt x="549" y="691" on="1"/>
        <pt x="535" y="589" on="1"/>
      </contour>
    </TTGlyph>
    <TTGlyph name="Zacute" xMin="-15" yMin="0" xMax="549" yMax="936">
      <component glyphName="Z" x="0" y="0" flags="0x0"/>
      <component glyphName="acute.case" x="116" y="0" flags="0x0"/>
    </TTGlyph>
    <TTGlyph name="Zacute.loclPLK" xMin="-15" yMin="0" xMax="549" yMax="947">
      <component glyphName="Z" x="0" y="0" flags="0x0"/>
      <component glyphName="acute.case.loclPLK" x="100" y="0" flags="0x0"/>
    </TTGlyph>
    <TTGlyph name="Zcaron" xMin="-15" yMin="0" xMax="549" yMax="928">
      <component glyphName="Z" x="0" y="0" flags="0x0"/>
      <component glyphName="caron.case" x="61" y="0" flags="0x0"/>
    </TTGlyph>
    <TTGlyph name="Zdotaccent" xMin="-15" yMin="0" xMax="549" yMax="923">
      <component glyphName="Z" x="0" y="0" flags="0x0"/>
      <component glyphName="dotaccent.case" x="206" y="0" flags="0x0"/>
    </TTGlyph>
    <TTGlyph name="Zeta" xMin="-15" yMin="0" xMax="549" yMax="691">
      <component glyphName="Z" x="0" y="0" flags="0x0"/>
    </TTGlyph>
    <TTGlyph name="a" xMin="36" yMin="-15" xMax="535" yMax="544">
      <contour>
        <pt x="436" y="544" on="0"/>
        <pt x="535" y="493" on="1"/>
        <pt x="481" y="138" on="1"/>
        <pt x="479" y="120" on="0"/>
        <pt x="479" y="116" on="1"/>
        <pt x="479" y="97" on="0"/>
        <pt x="494" y="77" on="0"/>
        <pt x="510" y="71" on="1"/>
        <pt x="474" y="-13" on="1"/>
        <pt x="380" y="-3" on="0"/>
        <pt x="364" y="75" on="1"/>
        <pt x="299" y="-15" on="0"/>
        <pt x="207" y="-15" on="1"/>
        <pt x="125" y="-15" on="0"/>
        <pt x="36" y="96" on="0"/>
        <pt x="36" y="192" on="1"/>
        <pt x="36" y="274" on="0"/>
        <pt x="97" y="436" on="0"/>
        <pt x="229" y="544" on="0"/>
        <pt x="330" y="544" on="1"/>
      </contour>
      <contour>
        <pt x="274" y="450" on="0"/>
        <pt x="202" y="371" on="0"/>
        <pt x="169" y="252" on="0"/>
        <pt x="169" y="192" on="1"/>
        <pt x="169" y="82" on="0"/>
        <pt x="244" y="82" on="1"/>
        <pt x="276" y="82" on="0"/>
        <pt x="332" y="125" on="0"/>
        <pt x="361" y="166" on="1"/>
        <pt x="402" y="436" on="1"/>
        <pt x="383" y="444" on="0"/>
        <pt x="351" y="450" on="0"/>
        <pt x="329" y="450" on="1"/>
      </contour>
    </TTGlyph>
    <TTGlyph name="a.sc" xMin="-42" yMin="0" xMax="472" yMax="566">
      <contour>
        <pt x="90" y="0" on="1"/>
        <pt x="-42" y="0" on="1"/>
        <pt x="219" y="566" on="1"/>
        <pt x="372" y="566" on="1"/>
        <pt x="472" y="0" on="1"/>
        <pt x="342" y="0" on="1"/>
        <pt x="325" y="125" on="1"/>
        <pt x="141" y="125" on="1"/>
      </contour>
      <contour>
        <pt x="176" y="218" on="1"/>
        <pt x="316" y="218" on="1"/>
        <pt x="281" y="477" on="1"/>
      </contour>
    </TTGlyph>
    <TTGlyph name="aacute" xMin="36" yMin="-15" xMax="535" yMax="820">
      <component glyphName="a" x="0" y="0" flags="0x0"/>
      <component glyphName="acute" x="133" y="0" flags="0x0"/>
    </TTGlyph>
    <TTGlyph name="aacute.sc" xMin="-42" yMin="0" xMax="472" yMax="850">
      <component glyphName="a.sc" x="0" y="0" flags="0x0"/>
      <component glyphName="acute.sc" x="142" y="0" flags="0x0"/>
    </TTGlyph>
    <TTGlyph name="abreve" xMin="36" yMin="-15" xMax="535" yMax="808">
      <component glyphName="a" x="0" y="0" flags="0x0"/>
      <component glyphName="breve" x="111" y="0" flags="0x0"/>
    </TTGlyph>
    <TTGlyph name="abreve.sc" xMin="-42" yMin="0" xMax="483" yMax="838">
      <component glyphName="a.sc" x="0" y="0" flags="0x0"/>
      <component glyphName="breve.sc" x="84" y="0" flags="0x0"/>
    </TTGlyph>
    <TTGlyph name="acircumflex" xMin="36" yMin="-15" xMax="535" yMax="808">
      <component glyphName="a" x="0" y="0" flags="0x0"/>
      <component glyphName="circumflex" x="95" y="0" flags="0x0"/>
    </TTGlyph>
    <TTGlyph name="acircumflex.sc" xMin="-42" yMin="0" xMax="498" yMax="839">
      <component glyphName="a.sc" x="0" y="0" flags="0x0"/>
      <component glyphName="circumflex.sc" x="86" y="0" flags="0x0"/>
    </TTGlyph>
    <TTGlyph name="acute" xMin="89" yMin="630" xMax="350" yMax="820">
      <contour>
        <pt x="116" y="630" on="1"/>
        <pt x="89" y="695" on="1"/>
        <pt x="312" y="820" on="1"/>
        <pt x="350" y="720" on="1"/>
      </contour>
    </TTGlyph>
    <TTGlyph name="acute.case" xMin="104" yMin="751" xMax="366" yMax="936">
      <contour>
        <pt x="134" y="751" on="1"/>
        <pt x="104" y="817" on="1"/>
        <pt x="322" y="936" on="1"/>
        <pt x="366" y="836" on="1"/>
      </contour>
    </TTGlyph>
    <TTGlyph name="acute.case.loclPLK" xMin="164" yMin="738" xMax="375" yMax="947">
      <contour>
        <pt x="219" y="738" on="1"/>
        <pt x="164" y="773" on="1"/>
        <pt x="287" y="947" on="1"/>
        <pt x="375" y="890" on="1"/>
      </contour>
    </TTGlyph>
    <TTGlyph name="acute.loclPLK" xMin="143" yMin="579" xMax="354" yMax="795">
      <contour>
        <pt x="198" y="579" on="1"/>
        <pt x="143" y="614" on="1"/>
        <pt x="266" y="795" on="1"/>
        <pt x="354" y="737" on="1"/>
      </contour>
    </TTGlyph>
    <TTGlyph name="acute.sc" xMin="64" yMin="660" xMax="325" yMax="850">
      <contour>
        <pt x="91" y="660" on="1"/>
        <pt x="64" y="726" on="1"/>
        <pt x="287" y="850" on="1"/>
        <pt x="325" y="750" on="1"/>
      </contour>
    </TTGlyph>
    <TTGlyph name="acute.sc.loclPLK" xMin="146" yMin="623" xMax="356" yMax="838">
      <contour>
        <pt x="201" y="623" on="1"/>
        <pt x="146" y="658" on="1"/>
        <pt x="269" y="838" on="1"/>
        <pt x="356" y="781" on="1"/>
      </contour>
    </TTGlyph>
    <TTGlyph name="acutecomb" xMin="113" yMin="625" xMax="375" yMax="810">
      <contour>
        <pt x="143" y="625" on="1"/>
        <pt x="113" y="691" on="1"/>
        <pt x="331" y="810" on="1"/>
        <pt x="375" y="710" on="1"/>
      </contour>
    </TTGlyph>
    <TTGlyph name="adieresis" xMin="36" yMin="-15" xMax="537" yMax="785">
      <component glyphName="a" x="0" y="0" flags="0x0"/>
      <component glyphName="dieresis" x="87" y="0" flags="0x0"/>
    </TTGlyph>
    <TTGlyph name="adieresis.sc" xMin="-42" yMin="0" xMax="499" yMax="815">
      <component glyphName="a.sc" x="0" y="0" flags="0x0"/>
      <component glyphName="dieresis.sc" x="77" y="0" flags="0x0"/>
    </TTGlyph>
    <TTGlyph name="ae" xMin="24" yMin="-15" xMax="816" yMax="544">
      <contour>
        <pt x="412" y="544" on="0"/>
        <pt x="453" y="467" on="1"/>
        <pt x="483" y="502" on="0"/>
        <pt x="577" y="544" on="0"/>
        <pt x="633" y="544" on="1"/>
        <pt x="691" y="544" on="0"/>
        <pt x="774" y="506" on="0"/>
        <pt x="816" y="442" on="0"/>
        <pt x="816" y="404" on="1"/>
        <pt x="816" y="302" on="0"/>
        <pt x="630" y="212" on="0"/>
        <pt x="472" y="197" on="1"/>
        <pt x="475" y="84" on="0"/>
        <pt x="578" y="84" on="1"/>
        <pt x="613" y="84" on="0"/>
        <pt x="679" y="107" on="0"/>
        <pt x="716" y="133" on="1"/>
        <pt x="764" y="53" on="1"/>
        <pt x="669" y="-15" on="0"/>
        <pt x="563" y="-15" on="1"/>
        <pt x="498" y="-15" on="0"/>
        <pt x="405" y="32" on="0"/>
        <pt x="379" y="76" on="1"/>
        <pt x="336" y="27" on="0"/>
        <pt x="241" y="-15" on="0"/>
        <pt x="182" y="-15" on="1"/>
        <pt x="109" y="-15" on="0"/>
        <pt x="24" y="63" on="0"/>
        <pt x="24" y="127" on="1"/>
        <pt x="24" y="208" on="0"/>
        <pt x="149" y="315" on="0"/>
        <pt x="291" y="315" on="1"/>
        <pt x="360" y="315" on="1"/>
        <pt x="367" y="347" on="0"/>
        <pt x="379" y="379" on="1"/>
        <pt x="376" y="409" on="0"/>
        <pt x="316" y="446" on="0"/>
        <pt x="272" y="446" on="1"/>
        <pt x="215" y="446" on="0"/>
        <pt x="134" y="420" on="1"/>
        <pt x="113" y="510" on="1"/>
        <pt x="205" y="544" on="0"/>
        <pt x="301" y="544" on="1"/>
      </contour>
      <contour>
        <pt x="562" y="453" on="0"/>
        <pt x="490" y="354" on="0"/>
        <pt x="478" y="281" on="1"/>
        <pt x="585" y="291" on="0"/>
        <pt x="687" y="348" on="0"/>
        <pt x="687" y="398" on="1"/>
        <pt x="687" y="420" on="0"/>
        <pt x="658" y="453" on="0"/>
        <pt x="625" y="453" on="1"/>
      </contour>
      <contour>
        <pt x="229" y="237" on="0"/>
        <pt x="160" y="189" on="0"/>
        <pt x="160" y="137" on="1"/>
        <pt x="160" y="78" on="0"/>
        <pt x="223" y="78" on="1"/>
        <pt x="257" y="78" on="0"/>
        <pt x="319" y="116" on="0"/>
        <pt x="351" y="155" on="1"/>
        <pt x="349" y="165" on="0"/>
        <pt x="349" y="209" on="1"/>
        <pt x="349" y="237" on="1"/>
        <pt x="297" y="237" on="1"/>
      </contour>
    </TTGlyph>
    <TTGlyph name="ae.sc" xMin="-54" yMin="0" xMax="694" yMax="566">
      <contour>
        <pt x="432" y="474" on="1"/>
        <pt x="443" y="333" on="1"/>
        <pt x="653" y="333" on="1"/>
        <pt x="641" y="242" on="1"/>
        <pt x="448" y="242" on="1"/>
        <pt x="460" y="93" on="1"/>
        <pt x="659" y="93" on="1"/>
        <pt x="646" y="0" on="1"/>
        <pt x="348" y="0" on="1"/>
        <pt x="340" y="125" on="1"/>
        <pt x="145" y="125" on="1"/>
        <pt x="82" y="0" on="1"/>
        <pt x="-54" y="0" on="1"/>
        <pt x="258" y="566" on="1"/>
        <pt x="694" y="566" on="1"/>
        <pt x="667" y="474" on="1"/>
      </contour>
      <contour>
        <pt x="337" y="218" on="1"/>
        <pt x="321" y="474" on="1"/>
        <pt x="191" y="218" on="1"/>
      </contour>
    </TTGlyph>
    <TTGlyph name="aeacute" xMin="24" yMin="-15" xMax="816" yMax="820">
      <component glyphName="ae" x="0" y="0" flags="0x0"/>
      <component glyphName="acute" x="259" y="0" flags="0x0"/>
    </TTGlyph>
    <TTGlyph name="aeacute.sc" xMin="-54" yMin="0" xMax="694" yMax="850">
      <component glyphName="ae.sc" x="0" y="0" flags="0x0"/>
      <component glyphName="acute.sc" x="295" y="0" flags="0x0"/>
    </TTGlyph>
    <TTGlyph name="agrave" xMin="36" yMin="-15" xMax="535" yMax="820">
      <component glyphName="a" x="0" y="0" flags="0x0"/>
      <component glyphName="grave" x="153" y="0" flags="0x0"/>
    </TTGlyph>
    <TTGlyph name="agrave.sc" xMin="-42" yMin="0" xMax="472" yMax="850">
      <component glyphName="a.sc" x="0" y="0" flags="0x0"/>
      <component glyphName="grave.sc" x="131" y="0" flags="0x0"/>
    </TTGlyph>
    <TTGlyph name="alpha" xMin="36" yMin="-15" xMax="577" yMax="544">
      <contour>
        <pt x="353" y="544" on="0"/>
        <pt x="423" y="471" on="0"/>
        <pt x="429" y="395" on="1"/>
        <pt x="466" y="529" on="1"/>
        <pt x="577" y="529" on="1"/>
        <pt x="477" y="255" on="1"/>
        <pt x="486" y="135" on="1"/>
        <pt x="487" y="112" on="0"/>
        <pt x="506" y="89" on="0"/>
        <pt x="528" y="83" on="1"/>
        <pt x="475" y="-15" on="1"/>
        <pt x="435" y="-10" on="0"/>
        <pt x="385" y="40" on="0"/>
        <pt x="382" y="82" on="1"/>
        <pt x="381" y="122" on="1"/>
        <pt x="313" y="-15" on="0"/>
        <pt x="202" y="-15" on="1"/>
        <pt x="123" y="-15" on="0"/>
        <pt x="36" y="90" on="0"/>
        <pt x="36" y="191" on="1"/>
        <pt x="36" y="273" on="0"/>
        <pt x="87" y="435" on="0"/>
        <pt x="199" y="544" on="0"/>
        <pt x="285" y="544" on="1"/>
      </contour>
      <contour>
        <pt x="249" y="448" on="0"/>
        <pt x="191" y="358" on="0"/>
        <pt x="165" y="236" on="0"/>
        <pt x="165" y="186" on="1"/>
        <pt x="165" y="81" on="0"/>
        <pt x="232" y="81" on="1"/>
        <pt x="272" y="81" on="0"/>
        <pt x="345" y="165" on="0"/>
        <pt x="380" y="272" on="1"/>
        <pt x="376" y="372" on="0"/>
        <pt x="336" y="448" on="0"/>
        <pt x="293" y="448" on="1"/>
      </contour>
    </TTGlyph>
    <TTGlyph name="alpha.sc" xMin="-42" yMin="0" xMax="472" yMax="566">
      <contour>
        <pt x="90" y="0" on="1"/>
        <pt x="-42" y="0" on="1"/>
        <pt x="219" y="566" on="1"/>
        <pt x="372" y="566" on="1"/>
        <pt x="472" y="0" on="1"/>
        <pt x="342" y="0" on="1"/>
        <pt x="325" y="125" on="1"/>
        <pt x="141" y="125" on="1"/>
      </contour>
      <contour>
        <pt x="176" y="218" on="1"/>
        <pt x="316" y="218" on="1"/>
        <pt x="281" y="477" on="1"/>
      </contour>
    </TTGlyph>
    <TTGlyph name="alphatonos" xMin="36" yMin="-15" xMax="577" yMax="834">
      <component glyphName="alpha" x="0" y="0" flags="0x0"/>
      <component glyphName="tonos" x="193" y="0" flags="0x0"/>
    </TTGlyph>
    <TTGlyph name="alphatonos.sc" xMin="-42" yMin="0" xMax="472" yMax="566">
      <component glyphName="a.sc" x="0" y="0" flags="0x0"/>
    </TTGlyph>
    <TTGlyph name="amacron" xMin="36" yMin="-15" xMax="535" yMax="752">
      <component glyphName="a" x="0" y="0" flags="0x0"/>
      <component glyphName="macron" x="128" y="0" flags="0x0"/>
    </TTGlyph>
    <TTGlyph name="amacron.sc" xMin="-42" yMin="0" xMax="472" yMax="782">
      <component glyphName="a.sc" x="0" y="0" flags="0x0"/>
      <component glyphName="macron.sc" x="114" y="0" flags="0x0"/>
    </TTGlyph>
    <TTGlyph name="ampersand" xMin="63" yMin="-15" xMax="688" yMax="706">
      <contour>
        <pt x="411" y="706" on="0"/>
        <pt x="496" y="667" on="0"/>
        <pt x="543" y="599" on="0"/>
        <pt x="543" y="558" on="1"/>
        <pt x="543" y="498" on="0"/>
        <pt x="463" y="412" on="0"/>
        <pt x="380" y="364" on="1"/>
        <pt x="512" y="218" on="1"/>
        <pt x="554" y="284" on="0"/>
        <pt x="583" y="360" on="1"/>
        <pt x="688" y="324" on="1"/>
        <pt x="639" y="224" on="0"/>
        <pt x="577" y="147" on="1"/>
        <pt x="673" y="44" on="1"/>
        <pt x="570" y="-15" on="1"/>
        <pt x="496" y="69" on="1"/>
        <pt x="397" y="-15" on="0"/>
        <pt x="268" y="-15" on="1"/>
        <pt x="205" y="-15" on="0"/>
        <pt x="112" y="32" on="0"/>
        <pt x="63" y="114" on="0"/>
        <pt x="63" y="165" on="1"/>
        <pt x="63" y="229" on="0"/>
        <pt x="132" y="327" on="0"/>
        <pt x="219" y="378" on="1"/>
        <pt x="181" y="421" on="0"/>
        <pt x="145" y="492" on="0"/>
        <pt x="145" y="532" on="1"/>
        <pt x="145" y="578" on="0"/>
        <pt x="190" y="657" on="0"/>
        <pt x="284" y="706" on="0"/>
        <pt x="355" y="706" on="1"/>
      </contour>
      <contour>
        <pt x="312" y="620" on="0"/>
        <pt x="266" y="573" on="0"/>
        <pt x="266" y="534" on="1"/>
        <pt x="266" y="508" on="0"/>
        <pt x="290" y="460" on="0"/>
        <pt x="315" y="432" on="1"/>
        <pt x="370" y="464" on="0"/>
        <pt x="423" y="522" on="0"/>
        <pt x="423" y="558" on="1"/>
        <pt x="423" y="586" on="0"/>
        <pt x="383" y="620" on="0"/>
        <pt x="352" y="620" on="1"/>
      </contour>
      <contour>
        <pt x="230" y="273" on="0"/>
        <pt x="195" y="211" on="0"/>
        <pt x="195" y="173" on="1"/>
        <pt x="195" y="132" on="0"/>
        <pt x="247" y="80" on="0"/>
        <pt x="293" y="80" on="1"/>
        <pt x="367" y="80" on="0"/>
        <pt x="434" y="136" on="1"/>
        <pt x="282" y="306" on="1"/>
      </contour>
    </TTGlyph>
    <TTGlyph name="aogonek" xMin="36" yMin="-253" xMax="535" yMax="544">
      <contour>
        <pt x="479" y="97" on="0"/>
        <pt x="494" y="77" on="0"/>
        <pt x="510" y="71" on="1"/>
        <pt x="474" y="-14" on="1"/>
        <pt x="336" y="-66" on="0"/>
        <pt x="336" y="-133" on="1"/>
        <pt x="336" y="-149" on="0"/>
        <pt x="360" y="-167" on="0"/>
        <pt x="382" y="-167" on="1"/>
        <pt x="407" y="-167" on="0"/>
        <pt x="445" y="-159" on="1"/>
        <pt x="426" y="-246" on="1"/>
        <pt x="389" y="-253" on="0"/>
        <pt x="361" y="-253" on="1"/>
        <pt x="305" y="-253" on="0"/>
        <pt x="237" y="-198" on="0"/>
        <pt x="237" y="-153" on="1"/>
        <pt x="237" y="-45" on="0"/>
        <pt x="400" y="13" on="1"/>
        <pt x="372" y="36" on="0"/>
        <pt x="364" y="75" on="1"/>
        <pt x="299" y="-15" on="0"/>
        <pt x="207" y="-15" on="1"/>
        <pt x="125" y="-15" on="0"/>
        <pt x="36" y="96" on="0"/>
        <pt x="36" y="192" on="1"/>
        <pt x="36" y="274" on="0"/>
        <pt x="97" y="436" on="0"/>
        <pt x="229" y="544" on="0"/>
        <pt x="330" y="544" on="1"/>
        <pt x="436" y="544" on="0"/>
        <pt x="535" y="493" on="1"/>
        <pt x="481" y="138" on="1"/>
        <pt x="479" y="120" on="0"/>
        <pt x="479" y="116" on="1"/>
      </contour>
      <contour>
        <pt x="383" y="444" on="0"/>
        <pt x="351" y="450" on="0"/>
        <pt x="329" y="450" on="1"/>
        <pt x="274" y="450" on="0"/>
        <pt x="202" y="371" on="0"/>
        <pt x="169" y="252" on="0"/>
        <pt x="169" y="192" on="1"/>
        <pt x="169" y="82" on="0"/>
        <pt x="244" y="82" on="1"/>
        <pt x="276" y="82" on="0"/>
        <pt x="332" y="125" on="0"/>
        <pt x="361" y="166" on="1"/>
        <pt x="402" y="436" on="1"/>
      </contour>
    </TTGlyph>
    <TTGlyph name="aogonek.sc" xMin="-42" yMin="-239" xMax="472" yMax="566">
      <contour>
        <pt x="244" y="-153" on="0"/>
        <pt x="290" y="-153" on="1"/>
        <pt x="315" y="-153" on="0"/>
        <pt x="352" y="-145" on="1"/>
        <pt x="334" y="-232" on="1"/>
        <pt x="297" y="-239" on="0"/>
        <pt x="268" y="-239" on="1"/>
        <pt x="212" y="-239" on="0"/>
        <pt x="145" y="-184" on="0"/>
        <pt x="145" y="-139" on="1"/>
        <pt x="145" y="-85" on="0"/>
        <pt x="233" y="4" on="0"/>
        <pt x="337" y="36" on="1"/>
        <pt x="325" y="125" on="1"/>
        <pt x="141" y="125" on="1"/>
        <pt x="90" y="0" on="1"/>
        <pt x="-42" y="0" on="1"/>
        <pt x="219" y="566" on="1"/>
        <pt x="372" y="566" on="1"/>
        <pt x="472" y="0" on="1"/>
        <pt x="381" y="0" on="1"/>
        <pt x="244" y="-53" on="0"/>
        <pt x="244" y="-119" on="1"/>
      </contour>
      <contour>
        <pt x="281" y="477" on="1"/>
        <pt x="176" y="218" on="1"/>
        <pt x="316" y="218" on="1"/>
      </contour>
    </TTGlyph>
    <TTGlyph name="approxequal" xMin="13" yMin="144" xMax="498" yMax="502">
      <component glyphName="asciitilde" x="-13" y="-96" flags="0x0"/>
      <component glyphName="asciitilde" x="14" y="103" flags="0x0"/>
    </TTGlyph>
    <TTGlyph name="approxequal.osf" xMin="13" yMin="144" xMax="498" yMax="502">
      <contour>
        <pt x="236" y="502" on="0"/>
        <pt x="280" y="482" on="0"/>
        <pt x="303" y="464" on="1"/>
        <pt x="321" y="451" on="0"/>
        <pt x="340" y="441" on="0"/>
        <pt x="352" y="441" on="1"/>
        <pt x="376" y="441" on="0"/>
        <pt x="410" y="469" on="0"/>
        <pt x="427" y="495" on="1"/>
        <pt x="498" y="452" on="1"/>
        <pt x="431" y="344" on="0"/>
        <pt x="339" y="344" on="1"/>
        <pt x="305" y="344" on="0"/>
        <pt x="260" y="365" on="0"/>
        <pt x="235" y="383" on="1"/>
        <pt x="220" y="394" on="0"/>
        <pt x="200" y="405" on="0"/>
        <pt x="189" y="405" on="1"/>
        <pt x="164" y="405" on="0"/>
        <pt x="131" y="376" on="0"/>
        <pt x="111" y="348" on="1"/>
        <pt x="41" y="390" on="1"/>
        <pt x="72" y="439" on="0"/>
        <pt x="150" y="502" on="0"/>
        <pt x="203" y="502" on="1"/>
      </contour>
      <contour>
        <pt x="207" y="303" on="0"/>
        <pt x="250" y="283" on="0"/>
        <pt x="275" y="265" on="1"/>
        <pt x="291" y="253" on="0"/>
        <pt x="312" y="242" on="0"/>
        <pt x="324" y="242" on="1"/>
        <pt x="348" y="242" on="0"/>
        <pt x="382" y="269" on="0"/>
        <pt x="399" y="295" on="1"/>
        <pt x="470" y="252" on="1"/>
        <pt x="401" y="144" on="0"/>
        <pt x="311" y="144" on="1"/>
        <pt x="277" y="144" on="0"/>
        <pt x="234" y="164" on="0"/>
        <pt x="207" y="183" on="1"/>
        <pt x="193" y="195" on="0"/>
        <pt x="172" y="206" on="0"/>
        <pt x="161" y="206" on="1"/>
        <pt x="136" y="206" on="0"/>
        <pt x="103" y="177" on="0"/>
        <pt x="83" y="148" on="1"/>
        <pt x="13" y="191" on="1"/>
        <pt x="44" y="240" on="0"/>
        <pt x="122" y="303" on="0"/>
        <pt x="175" y="303" on="1"/>
      </contour>
    </TTGlyph>
    <TTGlyph name="approxequal.tf" xMin="5" yMin="144" xMax="490" yMax="502">
      <contour>
        <pt x="228" y="502" on="0"/>
        <pt x="272" y="482" on="0"/>
        <pt x="295" y="464" on="1"/>
        <pt x="313" y="451" on="0"/>
        <pt x="332" y="441" on="0"/>
        <pt x="344" y="441" on="1"/>
        <pt x="368" y="441" on="0"/>
        <pt x="402" y="469" on="0"/>
        <pt x="419" y="495" on="1"/>
        <pt x="490" y="452" on="1"/>
        <pt x="423" y="344" on="0"/>
        <pt x="331" y="344" on="1"/>
        <pt x="297" y="344" on="0"/>
        <pt x="252" y="365" on="0"/>
        <pt x="227" y="383" on="1"/>
        <pt x="212" y="394" on="0"/>
        <pt x="192" y="405" on="0"/>
        <pt x="181" y="405" on="1"/>
        <pt x="156" y="405" on="0"/>
        <pt x="123" y="376" on="0"/>
        <pt x="103" y="348" on="1"/>
        <pt x="33" y="390" on="1"/>
        <pt x="64" y="439" on="0"/>
        <pt x="142" y="502" on="0"/>
        <pt x="195" y="502" on="1"/>
      </contour>
      <contour>
        <pt x="198" y="303" on="0"/>
        <pt x="241" y="283" on="0"/>
        <pt x="266" y="265" on="1"/>
        <pt x="282" y="253" on="0"/>
        <pt x="303" y="242" on="0"/>
        <pt x="315" y="242" on="1"/>
        <pt x="340" y="242" on="0"/>
        <pt x="373" y="269" on="0"/>
        <pt x="391" y="295" on="1"/>
        <pt x="461" y="252" on="1"/>
        <pt x="431" y="204" on="0"/>
        <pt x="354" y="144" on="0"/>
        <pt x="302" y="144" on="1"/>
        <pt x="268" y="144" on="0"/>
        <pt x="224" y="165" on="0"/>
        <pt x="199" y="183" on="1"/>
        <pt x="185" y="195" on="0"/>
        <pt x="164" y="206" on="0"/>
        <pt x="152" y="206" on="1"/>
        <pt x="127" y="206" on="0"/>
        <pt x="93" y="176" on="0"/>
        <pt x="75" y="148" on="1"/>
        <pt x="5" y="191" on="1"/>
        <pt x="74" y="303" on="0"/>
        <pt x="166" y="303" on="1"/>
      </contour>
    </TTGlyph>
    <TTGlyph name="approxequal.tosf" xMin="5" yMin="144" xMax="490" yMax="502">
      <contour>
        <pt x="228" y="502" on="0"/>
        <pt x="272" y="482" on="0"/>
        <pt x="295" y="464" on="1"/>
        <pt x="313" y="451" on="0"/>
        <pt x="332" y="441" on="0"/>
        <pt x="344" y="441" on="1"/>
        <pt x="368" y="441" on="0"/>
        <pt x="402" y="469" on="0"/>
        <pt x="419" y="495" on="1"/>
        <pt x="490" y="452" on="1"/>
        <pt x="423" y="344" on="0"/>
        <pt x="331" y="344" on="1"/>
        <pt x="297" y="344" on="0"/>
        <pt x="252" y="365" on="0"/>
        <pt x="227" y="383" on="1"/>
        <pt x="212" y="394" on="0"/>
        <pt x="192" y="405" on="0"/>
        <pt x="181" y="405" on="1"/>
        <pt x="156" y="405" on="0"/>
        <pt x="123" y="376" on="0"/>
        <pt x="103" y="348" on="1"/>
        <pt x="33" y="390" on="1"/>
        <pt x="64" y="439" on="0"/>
        <pt x="142" y="502" on="0"/>
        <pt x="195" y="502" on="1"/>
      </contour>
      <contour>
        <pt x="198" y="303" on="0"/>
        <pt x="241" y="283" on="0"/>
        <pt x="266" y="265" on="1"/>
        <pt x="282" y="253" on="0"/>
        <pt x="303" y="242" on="0"/>
        <pt x="315" y="242" on="1"/>
        <pt x="340" y="242" on="0"/>
        <pt x="373" y="269" on="0"/>
        <pt x="391" y="295" on="1"/>
        <pt x="461" y="252" on="1"/>
        <pt x="431" y="204" on="0"/>
        <pt x="354" y="144" on="0"/>
        <pt x="302" y="144" on="1"/>
        <pt x="268" y="144" on="0"/>
        <pt x="224" y="165" on="0"/>
        <pt x="199" y="183" on="1"/>
        <pt x="185" y="195" on="0"/>
        <pt x="164" y="206" on="0"/>
        <pt x="152" y="206" on="1"/>
        <pt x="127" y="206" on="0"/>
        <pt x="93" y="176" on="0"/>
        <pt x="75" y="148" on="1"/>
        <pt x="5" y="191" on="1"/>
        <pt x="74" y="303" on="0"/>
        <pt x="166" y="303" on="1"/>
      </contour>
    </TTGlyph>
    <TTGlyph name="aring" xMin="36" yMin="-15" xMax="535" yMax="853">
      <component glyphName="a" x="0" y="0" flags="0x0"/>
      <component glyphName="ring" x="147" y="0" flags="0x0"/>
    </TTGlyph>
    <TTGlyph name="aring.sc" xMin="-42" yMin="0" xMax="472" yMax="883">
      <component glyphName="a.sc" x="0" y="0" flags="0x0"/>
      <component glyphName="ring.sc" x="132" y="0" flags="0x0"/>
    </TTGlyph>
    <TTGlyph name="arrowdown" xMin="109" yMin="-43" xMax="764" yMax="646">
      <contour>
        <pt x="510" y="154" on="0"/>
        <pt x="540" y="192" on="0"/>
        <pt x="566" y="214" on="1"/>
        <pt x="691" y="330" on="1"/>
        <pt x="764" y="252" on="1"/>
        <pt x="437" y="-43" on="1"/>
        <pt x="109" y="252" on="1"/>
        <pt x="182" y="330" on="1"/>
        <pt x="308" y="214" on="1"/>
        <pt x="334" y="192" on="0"/>
        <pt x="364" y="154" on="0"/>
        <pt x="377" y="128" on="1"/>
        <pt x="377" y="646" on="1"/>
        <pt x="497" y="646" on="1"/>
        <pt x="497" y="128" on="1"/>
      </contour>
    </TTGlyph>
    <TTGlyph name="arrowdownwhite" xMin="60" yMin="-94" xMax="660" yMax="750">
      <contour>
        <pt x="464" y="750" on="0"/>
        <pt x="491" y="723" on="0"/>
        <pt x="491" y="700" on="1"/>
        <pt x="491" y="204" on="1"/>
        <pt x="660" y="204" on="1"/>
        <pt x="360" y="-94" on="1"/>
        <pt x="60" y="204" on="1"/>
        <pt x="229" y="204" on="1"/>
        <pt x="229" y="700" on="1"/>
        <pt x="229" y="723" on="0"/>
        <pt x="257" y="750" on="0"/>
        <pt x="279" y="750" on="1"/>
        <pt x="441" y="750" on="1"/>
      </contour>
      <contour>
        <pt x="169" y="159" on="1"/>
        <pt x="360" y="-30" on="1"/>
        <pt x="551" y="159" on="1"/>
        <pt x="444" y="159" on="1"/>
        <pt x="444" y="706" on="1"/>
        <pt x="276" y="706" on="1"/>
        <pt x="276" y="159" on="1"/>
      </contour>
    </TTGlyph>
    <TTGlyph name="arrowleft" xMin="93" yMin="6" xMax="793" yMax="652">
      <contour>
        <pt x="358" y="455" on="1"/>
        <pt x="332" y="427" on="0"/>
        <pt x="298" y="398" on="0"/>
        <pt x="273" y="382" on="1"/>
        <pt x="793" y="382" on="1"/>
        <pt x="793" y="276" on="1"/>
        <pt x="272" y="276" on="1"/>
        <pt x="312" y="252" on="0"/>
        <pt x="358" y="203" on="1"/>
        <pt x="470" y="81" on="1"/>
        <pt x="383" y="6" on="1"/>
        <pt x="93" y="329" on="1"/>
        <pt x="383" y="652" on="1"/>
        <pt x="470" y="577" on="1"/>
      </contour>
    </TTGlyph>
    <TTGlyph name="arrowleftwhite" xMin="40" yMin="13" xMax="920" yMax="613">
      <contour>
        <pt x="920" y="217" on="0"/>
        <pt x="893" y="189" on="0"/>
        <pt x="870" y="189" on="1"/>
        <pt x="338" y="189" on="1"/>
        <pt x="338" y="13" on="1"/>
        <pt x="40" y="313" on="1"/>
        <pt x="338" y="613" on="1"/>
        <pt x="338" y="437" on="1"/>
        <pt x="870" y="437" on="1"/>
        <pt x="893" y="437" on="0"/>
        <pt x="920" y="410" on="0"/>
        <pt x="920" y="387" on="1"/>
        <pt x="920" y="239" on="1"/>
      </contour>
      <contour>
        <pt x="293" y="504" on="1"/>
        <pt x="104" y="313" on="1"/>
        <pt x="293" y="122" on="1"/>
        <pt x="293" y="233" on="1"/>
        <pt x="876" y="233" on="1"/>
        <pt x="876" y="393" on="1"/>
        <pt x="293" y="393" on="1"/>
      </contour>
    </TTGlyph>
    <TTGlyph name="arrowright" xMin="125" yMin="6" xMax="824" yMax="652">
      <component glyphName="arrowleft" x="917" y="0" scalex="-1.0" scaley="1.0" flags="0x0"/>
    </TTGlyph>
    <TTGlyph name="arrowrightwhite" xMin="54" yMin="13" xMax="934" yMax="613">
      <component glyphName="arrowleftwhite" x="973" y="0" scalex="-1.0" scaley="1.0" flags="0x0"/>
    </TTGlyph>
    <TTGlyph name="arrowup" xMin="136" yMin="0" xMax="791" yMax="689">
      <component glyphName="arrowdown" x="900" y="645" scale="-1.0" flags="0x0"/>
    </TTGlyph>
    <TTGlyph name="arrowupdn" xMin="156" yMin="-207" xMax="811" yMax="880">
      <contour>
        <pt x="738" y="507" on="1"/>
        <pt x="613" y="622" on="1"/>
        <pt x="587" y="645" on="0"/>
        <pt x="557" y="682" on="0"/>
        <pt x="544" y="708" on="1"/>
        <pt x="544" y="-36" on="1"/>
        <pt x="557" y="-10" on="0"/>
        <pt x="587" y="28" on="0"/>
        <pt x="613" y="50" on="1"/>
        <pt x="738" y="166" on="1"/>
        <pt x="811" y="88" on="1"/>
        <pt x="484" y="-207" on="1"/>
        <pt x="156" y="88" on="1"/>
        <pt x="229" y="166" on="1"/>
        <pt x="355" y="50" on="1"/>
        <pt x="381" y="27" on="0"/>
        <pt x="411" y="-10" on="0"/>
        <pt x="424" y="-36" on="1"/>
        <pt x="424" y="708" on="1"/>
        <pt x="411" y="683" on="0"/>
        <pt x="381" y="646" on="0"/>
        <pt x="355" y="622" on="1"/>
        <pt x="229" y="507" on="1"/>
        <pt x="156" y="585" on="1"/>
        <pt x="484" y="880" on="1"/>
        <pt x="811" y="585" on="1"/>
      </contour>
    </TTGlyph>
    <TTGlyph name="arrowupwhite" xMin="60" yMin="-12" xMax="660" yMax="832">
      <contour>
        <pt x="257" y="-12" on="0"/>
        <pt x="229" y="16" on="0"/>
        <pt x="229" y="38" on="1"/>
        <pt x="229" y="534" on="1"/>
        <pt x="60" y="534" on="1"/>
        <pt x="360" y="832" on="1"/>
        <pt x="660" y="534" on="1"/>
        <pt x="491" y="534" on="1"/>
        <pt x="491" y="38" on="1"/>
        <pt x="491" y="16" on="0"/>
        <pt x="464" y="-12" on="0"/>
        <pt x="441" y="-12" on="1"/>
        <pt x="279" y="-12" on="1"/>
      </contour>
      <contour>
        <pt x="551" y="579" on="1"/>
        <pt x="360" y="768" on="1"/>
        <pt x="169" y="579" on="1"/>
        <pt x="276" y="579" on="1"/>
        <pt x="276" y="32" on="1"/>
        <pt x="444" y="32" on="1"/>
        <pt x="444" y="579" on="1"/>
      </contour>
    </TTGlyph>
    <TTGlyph name="asciicircum" xMin="63" yMin="527" xMax="551" yMax="842">
      <contour>
        <pt x="425" y="527" on="1"/>
        <pt x="339" y="741" on="1"/>
        <pt x="193" y="527" on="1"/>
        <pt x="63" y="527" on="1"/>
        <pt x="295" y="842" on="1"/>
        <pt x="409" y="842" on="1"/>
        <pt x="551" y="527" on="1"/>
      </contour>
    </TTGlyph>
    <TTGlyph name="asciitilde" xMin="26" yMin="240" xMax="483" yMax="399">
      <contour>
        <pt x="220" y="399" on="0"/>
        <pt x="263" y="379" on="0"/>
        <pt x="288" y="361" on="1"/>
        <pt x="304" y="349" on="0"/>
        <pt x="325" y="338" on="0"/>
        <pt x="337" y="338" on="1"/>
        <pt x="362" y="338" on="0"/>
        <pt x="395" y="365" on="0"/>
        <pt x="413" y="391" on="1"/>
        <pt x="483" y="348" on="1"/>
        <pt x="453" y="300" on="0"/>
        <pt x="376" y="240" on="0"/>
        <pt x="324" y="240" on="1"/>
        <pt x="290" y="240" on="0"/>
        <pt x="246" y="261" on="0"/>
        <pt x="221" y="279" on="1"/>
        <pt x="205" y="291" on="0"/>
        <pt x="185" y="302" on="0"/>
        <pt x="174" y="301" on="1"/>
        <pt x="148" y="301" on="0"/>
        <pt x="115" y="272" on="0"/>
        <pt x="97" y="244" on="1"/>
        <pt x="26" y="287" on="1"/>
        <pt x="96" y="398" on="0"/>
        <pt x="188" y="398" on="1"/>
      </contour>
    </TTGlyph>
    <TTGlyph name="asciitilde.osf" xMin="26" yMin="240" xMax="483" yMax="398">
      <component glyphName="asciitilde" x="0" y="0" flags="0x0"/>
    </TTGlyph>
    <TTGlyph name="asciitilde.tf" xMin="18" yMin="240" xMax="475" yMax="398">
      <component glyphName="asciitilde" x="-8" y="0" flags="0x0"/>
    </TTGlyph>
    <TTGlyph name="asciitilde.tosf" xMin="18" yMin="240" xMax="475" yMax="398">
      <component glyphName="asciitilde" x="-8" y="0" flags="0x0"/>
    </TTGlyph>
    <TTGlyph name="asterisk" xMin="51" yMin="343" xMax="464" yMax="741">
      <contour>
        <pt x="401" y="411" on="1"/>
        <pt x="302" y="343" on="1"/>
        <pt x="247" y="473" on="1"/>
        <pt x="159" y="343" on="1"/>
        <pt x="77" y="410" on="1"/>
        <pt x="192" y="519" on="1"/>
        <pt x="51" y="547" on="1"/>
        <pt x="98" y="651" on="1"/>
        <pt x="225" y="590" on="1"/>
        <pt x="226" y="741" on="1"/>
        <pt x="345" y="741" on="1"/>
        <pt x="304" y="591" on="1"/>
        <pt x="442" y="654" on="1"/>
        <pt x="464" y="547" on="1"/>
        <pt x="315" y="519" on="1"/>
      </contour>
    </TTGlyph>
    <TTGlyph name="at" xMin="50" yMin="-218" xMax="962" yMax="706">
      <contour>
        <pt x="694" y="706" on="0"/>
        <pt x="871" y="613" on="0"/>
        <pt x="962" y="453" on="0"/>
        <pt x="962" y="354" on="1"/>
        <pt x="962" y="278" on="0"/>
        <pt x="912" y="117" on="0"/>
        <pt x="803" y="6" on="0"/>
        <pt x="719" y="6" on="1"/>
        <pt x="665" y="6" on="0"/>
        <pt x="599" y="67" on="0"/>
        <pt x="595" y="106" on="1"/>
        <pt x="571" y="63" on="0"/>
        <pt x="496" y="9" on="0"/>
        <pt x="445" y="9" on="1"/>
        <pt x="370" y="9" on="0"/>
        <pt x="291" y="104" on="0"/>
        <pt x="291" y="184" on="1"/>
        <pt x="291" y="257" on="0"/>
        <pt x="343" y="401" on="0"/>
        <pt x="460" y="498" on="0"/>
        <pt x="552" y="498" on="1"/>
        <pt x="638" y="498" on="0"/>
        <pt x="711" y="454" on="1"/>
        <pt x="673" y="165" on="1"/>
        <pt x="672" y="142" on="1"/>
        <pt x="672" y="92" on="0"/>
        <pt x="716" y="92" on="1"/>
        <pt x="761" y="92" on="0"/>
        <pt x="819" y="179" on="0"/>
        <pt x="845" y="303" on="0"/>
        <pt x="845" y="361" on="1"/>
        <pt x="845" y="481" on="0"/>
        <pt x="701" y="609" on="0"/>
        <pt x="564" y="609" on="1"/>
        <pt x="422" y="609" on="0"/>
        <pt x="246" y="478" on="0"/>
        <pt x="170" y="284" on="0"/>
        <pt x="170" y="185" on="1"/>
        <pt x="170" y="97" on="0"/>
        <pt x="242" y="-41" on="0"/>
        <pt x="381" y="-120" on="0"/>
        <pt x="478" y="-120" on="1"/>
        <pt x="571" y="-120" on="0"/>
        <pt x="670" y="-85" on="1"/>
        <pt x="692" y="-178" on="1"/>
        <pt x="579" y="-218" on="0"/>
        <pt x="469" y="-218" on="1"/>
        <pt x="344" y="-218" on="0"/>
        <pt x="154" y="-116" on="0"/>
        <pt x="50" y="67" on="0"/>
        <pt x="50" y="184" on="1"/>
        <pt x="50" y="303" on="0"/>
        <pt x="159" y="544" on="0"/>
        <pt x="393" y="706" on="0"/>
        <pt x="571" y="706" on="1"/>
      </contour>
      <contour>
        <pt x="502" y="94" on="0"/>
        <pt x="550" y="139" on="0"/>
        <pt x="564" y="166" on="1"/>
        <pt x="598" y="402" on="1"/>
        <pt x="576" y="413" on="0"/>
        <pt x="545" y="413" on="1"/>
        <pt x="471" y="413" on="0"/>
        <pt x="407" y="266" on="0"/>
        <pt x="407" y="172" on="1"/>
        <pt x="407" y="94" on="0"/>
        <pt x="465" y="94" on="1"/>
      </contour>
    </TTGlyph>
    <TTGlyph name="atilde" xMin="36" yMin="-15" xMax="545" yMax="784">
      <component glyphName="a" x="0" y="0" flags="0x0"/>
      <component glyphName="tilde" x="96" y="0" flags="0x0"/>
    </TTGlyph>
    <TTGlyph name="atilde.sc" xMin="-42" yMin="0" xMax="502" yMax="814">
      <component glyphName="a.sc" x="0" y="0" flags="0x0"/>
      <component glyphName="tilde.sc" x="81" y="0" flags="0x0"/>
    </TTGlyph>
    <TTGlyph name="b" xMin="42" yMin="-15" xMax="543" yMax="755">
      <contour>
        <pt x="265" y="511" on="0"/>
        <pt x="341" y="544" on="0"/>
        <pt x="381" y="544" on="1"/>
        <pt x="459" y="544" on="0"/>
        <pt x="543" y="436" on="0"/>
        <pt x="543" y="337" on="1"/>
        <pt x="543" y="252" on="0"/>
        <pt x="486" y="92" on="0"/>
        <pt x="353" y="-15" on="0"/>
        <pt x="246" y="-15" on="1"/>
        <pt x="195" y="-15" on="0"/>
        <pt x="99" y="4" on="0"/>
        <pt x="42" y="25" on="1"/>
        <pt x="143" y="741" on="1"/>
        <pt x="270" y="755" on="1"/>
        <pt x="232" y="481" on="1"/>
      </contour>
      <contour>
        <pt x="303" y="448" on="0"/>
        <pt x="247" y="412" on="0"/>
        <pt x="218" y="380" on="1"/>
        <pt x="179" y="95" on="1"/>
        <pt x="219" y="81" on="0"/>
        <pt x="258" y="81" on="1"/>
        <pt x="311" y="81" on="0"/>
        <pt x="381" y="161" on="0"/>
        <pt x="413" y="279" on="0"/>
        <pt x="413" y="339" on="1"/>
        <pt x="413" y="448" on="0"/>
        <pt x="335" y="448" on="1"/>
      </contour>
    </TTGlyph>
    <TTGlyph name="b.sc" xMin="43" yMin="0" xMax="515" yMax="567">
      <contour>
        <pt x="515" y="567" on="0"/>
        <pt x="515" y="437" on="1"/>
        <pt x="515" y="379" on="0"/>
        <pt x="442" y="310" on="0"/>
        <pt x="388" y="299" on="1"/>
        <pt x="437" y="291" on="0"/>
        <pt x="503" y="234" on="0"/>
        <pt x="503" y="181" on="1"/>
        <pt x="503" y="0" on="0"/>
        <pt x="230" y="0" on="1"/>
        <pt x="43" y="0" on="1"/>
        <pt x="123" y="567" on="1"/>
        <pt x="290" y="567" on="1"/>
      </contour>
      <contour>
        <pt x="216" y="339" on="1"/>
        <pt x="277" y="339" on="1"/>
        <pt x="325" y="339" on="0"/>
        <pt x="384" y="383" on="0"/>
        <pt x="384" y="424" on="1"/>
        <pt x="384" y="453" on="0"/>
        <pt x="337" y="476" on="0"/>
        <pt x="285" y="476" on="1"/>
        <pt x="235" y="476" on="1"/>
      </contour>
      <contour>
        <pt x="181" y="93" on="1"/>
        <pt x="239" y="93" on="1"/>
        <pt x="313" y="93" on="0"/>
        <pt x="374" y="144" on="0"/>
        <pt x="374" y="189" on="1"/>
        <pt x="374" y="254" on="0"/>
        <pt x="276" y="254" on="1"/>
        <pt x="204" y="254" on="1"/>
      </contour>
    </TTGlyph>
    <TTGlyph name="backslash" xMin="160" yMin="-108" xMax="376" yMax="811">
      <contour>
        <pt x="265" y="-108" on="1"/>
        <pt x="160" y="787" on="1"/>
        <pt x="270" y="811" on="1"/>
        <pt x="376" y="-84" on="1"/>
      </contour>
    </TTGlyph>
    <TTGlyph name="bar" xMin="81" yMin="-104" xMax="324" yMax="809">
      <contour>
        <pt x="81" y="-104" on="1"/>
        <pt x="208" y="809" on="1"/>
        <pt x="324" y="809" on="1"/>
        <pt x="197" y="-104" on="1"/>
      </contour>
    </TTGlyph>
    <TTGlyph name="beta" xMin="8" yMin="-220" xMax="557" yMax="755">
      <contour>
        <pt x="445" y="755" on="0"/>
        <pt x="553" y="662" on="0"/>
        <pt x="553" y="586" on="1"/>
        <pt x="553" y="523" on="0"/>
        <pt x="472" y="417" on="0"/>
        <pt x="387" y="401" on="1"/>
        <pt x="457" y="396" on="0"/>
        <pt x="557" y="315" on="0"/>
        <pt x="557" y="232" on="1"/>
        <pt x="557" y="175" on="0"/>
        <pt x="503" y="61" on="0"/>
        <pt x="391" y="-15" on="0"/>
        <pt x="308" y="-15" on="1"/>
        <pt x="267" y="-15" on="0"/>
        <pt x="194" y="11" on="0"/>
        <pt x="167" y="34" on="1"/>
        <pt x="134" y="-203" on="1"/>
        <pt x="8" y="-220" on="1"/>
        <pt x="115" y="546" on="1"/>
        <pt x="128" y="645" on="0"/>
        <pt x="259" y="755" on="0"/>
        <pt x="357" y="755" on="1"/>
      </contour>
      <contour>
        <pt x="256" y="661" on="0"/>
        <pt x="238" y="542" on="1"/>
        <pt x="180" y="123" on="1"/>
        <pt x="221" y="85" on="0"/>
        <pt x="288" y="85" on="1"/>
        <pt x="362" y="85" on="0"/>
        <pt x="430" y="177" on="0"/>
        <pt x="430" y="236" on="1"/>
        <pt x="430" y="295" on="0"/>
        <pt x="363" y="353" on="0"/>
        <pt x="302" y="353" on="1"/>
        <pt x="256" y="353" on="1"/>
        <pt x="278" y="443" on="1"/>
        <pt x="312" y="443" on="1"/>
        <pt x="353" y="443" on="0"/>
        <pt x="406" y="486" on="0"/>
        <pt x="431" y="549" on="0"/>
        <pt x="431" y="580" on="1"/>
        <pt x="431" y="621" on="0"/>
        <pt x="389" y="661" on="0"/>
        <pt x="352" y="661" on="1"/>
      </contour>
    </TTGlyph>
    <TTGlyph name="beta.sc" xMin="43" yMin="0" xMax="515" yMax="567">
      <component glyphName="b.sc" x="0" y="0" flags="0x0"/>
    </TTGlyph>
    <TTGlyph name="braceleft" xMin="16" yMin="-138" xMax="361" yMax="838">
      <contour>
        <pt x="305" y="746" on="0"/>
        <pt x="263" y="715" on="0"/>
        <pt x="258" y="680" on="1"/>
        <pt x="228" y="470" on="1"/>
        <pt x="220" y="412" on="0"/>
        <pt x="171" y="362" on="0"/>
        <pt x="121" y="347" on="1"/>
        <pt x="159" y="338" on="0"/>
        <pt x="197" y="298" on="0"/>
        <pt x="197" y="257" on="1"/>
        <pt x="197" y="243" on="0"/>
        <pt x="194" y="225" on="1"/>
        <pt x="164" y="15" on="1"/>
        <pt x="163" y="-1" on="1"/>
        <pt x="163" y="-26" on="0"/>
        <pt x="196" y="-46" on="0"/>
        <pt x="237" y="-46" on="1"/>
        <pt x="228" y="-138" on="1"/>
        <pt x="134" y="-138" on="0"/>
        <pt x="45" y="-75" on="0"/>
        <pt x="45" y="-10" on="1"/>
        <pt x="45" y="11" on="0"/>
        <pt x="47" y="22" on="1"/>
        <pt x="74" y="220" on="1"/>
        <pt x="77" y="238" on="0"/>
        <pt x="77" y="250" on="1"/>
        <pt x="77" y="276" on="0"/>
        <pt x="50" y="297" on="0"/>
        <pt x="16" y="297" on="1"/>
        <pt x="32" y="402" on="1"/>
        <pt x="70" y="402" on="0"/>
        <pt x="106" y="441" on="0"/>
        <pt x="112" y="484" on="1"/>
        <pt x="140" y="683" on="1"/>
        <pt x="148" y="739" on="0"/>
        <pt x="192" y="806" on="0"/>
        <pt x="283" y="838" on="0"/>
        <pt x="361" y="838" on="1"/>
        <pt x="351" y="746" on="1"/>
      </contour>
    </TTGlyph>
    <TTGlyph name="braceleft.case" xMin="15" yMin="-148" xMax="360" yMax="828">
      <component glyphName="braceleft" x="-1" y="-10" flags="0x0"/>
    </TTGlyph>
    <TTGlyph name="braceright" xMin="-23" yMin="-138" xMax="322" yMax="838">
      <contour>
        <pt x="34" y="-46" on="0"/>
        <pt x="76" y="-15" on="0"/>
        <pt x="81" y="20" on="1"/>
        <pt x="111" y="230" on="1"/>
        <pt x="119" y="288" on="0"/>
        <pt x="167" y="338" on="0"/>
        <pt x="217" y="353" on="1"/>
        <pt x="180" y="363" on="0"/>
        <pt x="142" y="402" on="0"/>
        <pt x="142" y="444" on="1"/>
        <pt x="142" y="451" on="0"/>
        <pt x="144" y="475" on="1"/>
        <pt x="174" y="685" on="1"/>
        <pt x="176" y="697" on="0"/>
        <pt x="176" y="701" on="1"/>
        <pt x="176" y="726" on="0"/>
        <pt x="143" y="746" on="0"/>
        <pt x="101" y="746" on="1"/>
        <pt x="111" y="838" on="1"/>
        <pt x="205" y="838" on="0"/>
        <pt x="294" y="775" on="0"/>
        <pt x="294" y="710" on="1"/>
        <pt x="294" y="690" on="0"/>
        <pt x="292" y="678" on="1"/>
        <pt x="264" y="480" on="1"/>
        <pt x="262" y="458" on="0"/>
        <pt x="262" y="451" on="1"/>
        <pt x="262" y="425" on="0"/>
        <pt x="288" y="404" on="0"/>
        <pt x="322" y="403" on="1"/>
        <pt x="307" y="298" on="1"/>
        <pt x="269" y="298" on="0"/>
        <pt x="232" y="259" on="0"/>
        <pt x="226" y="216" on="1"/>
        <pt x="199" y="17" on="1"/>
        <pt x="191" y="-39" on="0"/>
        <pt x="147" y="-106" on="0"/>
        <pt x="55" y="-138" on="0"/>
        <pt x="-23" y="-138" on="1"/>
        <pt x="-12" y="-46" on="1"/>
      </contour>
    </TTGlyph>
    <TTGlyph name="braceright.case" xMin="-24" yMin="-148" xMax="321" yMax="828">
      <component glyphName="braceright" x="-1" y="-10" flags="0x0"/>
    </TTGlyph>
    <TTGlyph name="bracketleft" xMin="-8" yMin="-120" xMax="359" yMax="820">
      <contour>
        <pt x="229" y="720" on="1"/>
        <pt x="125" y="-21" on="1"/>
        <pt x="241" y="-21" on="1"/>
        <pt x="227" y="-120" on="1"/>
        <pt x="-8" y="-120" on="1"/>
        <pt x="124" y="820" on="1"/>
        <pt x="359" y="820" on="1"/>
        <pt x="345" y="720" on="1"/>
      </contour>
    </TTGlyph>
    <TTGlyph name="bracketleft.case" xMin="-9" yMin="-130" xMax="358" yMax="810">
      <component glyphName="bracketleft" x="-1" y="-10" flags="0x0"/>
    </TTGlyph>
    <TTGlyph name="bracketright" xMin="-20" yMin="-120" xMax="348" yMax="820">
      <contour>
        <pt x="-20" y="-120" on="1"/>
        <pt x="-6" y="-21" on="1"/>
        <pt x="110" y="-21" on="1"/>
        <pt x="214" y="721" on="1"/>
        <pt x="98" y="721" on="1"/>
        <pt x="112" y="820" on="1"/>
        <pt x="348" y="820" on="1"/>
        <pt x="216" y="-120" on="1"/>
      </contour>
    </TTGlyph>
    <TTGlyph name="bracketright.case" xMin="-21" yMin="-130" xMax="347" yMax="810">
      <component glyphName="bracketright" x="-1" y="-10" flags="0x0"/>
    </TTGlyph>
    <TTGlyph name="breve" xMin="99" yMin="637" xMax="423" yMax="808">
      <contour>
        <pt x="175" y="637" on="0"/>
        <pt x="99" y="725" on="0"/>
        <pt x="102" y="794" on="1"/>
        <pt x="178" y="804" on="1"/>
        <pt x="183" y="766" on="0"/>
        <pt x="217" y="729" on="0"/>
        <pt x="250" y="729" on="1"/>
        <pt x="285" y="729" on="0"/>
        <pt x="336" y="771" on="0"/>
        <pt x="351" y="808" on="1"/>
        <pt x="423" y="789" on="1"/>
        <pt x="408" y="721" on="0"/>
        <pt x="311" y="637" on="0"/>
        <pt x="244" y="637" on="1"/>
      </contour>
    </TTGlyph>
    <TTGlyph name="breve.case" xMin="115" yMin="754" xMax="438" yMax="914">
      <contour>
        <pt x="192" y="754" on="0"/>
        <pt x="115" y="839" on="0"/>
        <pt x="118" y="901" on="1"/>
        <pt x="191" y="911" on="1"/>
        <pt x="196" y="880" on="0"/>
        <pt x="233" y="846" on="0"/>
        <pt x="265" y="846" on="1"/>
        <pt x="299" y="846" on="0"/>
        <pt x="350" y="883" on="0"/>
        <pt x="363" y="914" on="1"/>
        <pt x="438" y="896" on="1"/>
        <pt x="423" y="834" on="0"/>
        <pt x="327" y="754" on="0"/>
        <pt x="260" y="754" on="1"/>
      </contour>
    </TTGlyph>
    <TTGlyph name="breve.sc" xMin="74" yMin="667" xMax="399" yMax="838">
      <contour>
        <pt x="150" y="667" on="0"/>
        <pt x="74" y="755" on="0"/>
        <pt x="78" y="824" on="1"/>
        <pt x="153" y="835" on="1"/>
        <pt x="158" y="797" on="0"/>
        <pt x="192" y="759" on="0"/>
        <pt x="225" y="759" on="1"/>
        <pt x="260" y="759" on="0"/>
        <pt x="311" y="801" on="0"/>
        <pt x="326" y="838" on="1"/>
        <pt x="399" y="820" on="1"/>
        <pt x="384" y="751" on="0"/>
        <pt x="287" y="667" on="0"/>
        <pt x="219" y="667" on="1"/>
      </contour>
    </TTGlyph>
    <TTGlyph name="brevecy" xMin="100" yMin="637" xMax="421" yMax="790">
      <contour>
        <pt x="177" y="637" on="0"/>
        <pt x="102" y="714" on="0"/>
        <pt x="100" y="777" on="1"/>
        <pt x="174" y="787" on="1"/>
        <pt x="179" y="756" on="0"/>
        <pt x="217" y="729" on="0"/>
        <pt x="251" y="729" on="1"/>
        <pt x="322" y="729" on="0"/>
        <pt x="347" y="790" on="1"/>
        <pt x="421" y="772" on="1"/>
        <pt x="407" y="709" on="0"/>
        <pt x="313" y="637" on="0"/>
        <pt x="245" y="637" on="1"/>
      </contour>
    </TTGlyph>
    <TTGlyph name="brevecy.case" xMin="77" yMin="763" xMax="398" yMax="917">
      <contour>
        <pt x="154" y="763" on="0"/>
        <pt x="79" y="840" on="0"/>
        <pt x="77" y="903" on="1"/>
        <pt x="151" y="913" on="1"/>
        <pt x="156" y="882" on="0"/>
        <pt x="194" y="855" on="0"/>
        <pt x="228" y="855" on="1"/>
        <pt x="264" y="855" on="0"/>
        <pt x="311" y="885" on="0"/>
        <pt x="324" y="917" on="1"/>
        <pt x="398" y="898" on="1"/>
        <pt x="384" y="835" on="0"/>
        <pt x="290" y="763" on="0"/>
        <pt x="222" y="763" on="1"/>
      </contour>
    </TTGlyph>
    <TTGlyph name="brevecy.sc" xMin="72" yMin="667" xMax="393" yMax="821">
      <contour>
        <pt x="149" y="667" on="0"/>
        <pt x="74" y="744" on="0"/>
        <pt x="72" y="807" on="1"/>
        <pt x="146" y="817" on="1"/>
        <pt x="151" y="786" on="0"/>
        <pt x="189" y="759" on="0"/>
        <pt x="223" y="759" on="1"/>
        <pt x="294" y="759" on="0"/>
        <pt x="320" y="821" on="1"/>
        <pt x="393" y="802" on="1"/>
        <pt x="379" y="739" on="0"/>
        <pt x="286" y="667" on="0"/>
        <pt x="218" y="667" on="1"/>
      </contour>
    </TTGlyph>
    <TTGlyph name="brokenbar" xMin="81" yMin="-104" xMax="324" yMax="809">
      <contour>
        <pt x="157" y="443" on="1"/>
        <pt x="208" y="809" on="1"/>
        <pt x="324" y="809" on="1"/>
        <pt x="273" y="443" on="1"/>
      </contour>
      <contour>
        <pt x="81" y="-104" on="1"/>
        <pt x="132" y="262" on="1"/>
        <pt x="248" y="262" on="1"/>
        <pt x="197" y="-104" on="1"/>
      </contour>
    </TTGlyph>
    <TTGlyph name="bullet" xMin="50" yMin="215" xMax="300" yMax="468">
      <contour>
        <pt x="238" y="468" on="0"/>
        <pt x="300" y="405" on="0"/>
        <pt x="300" y="357" on="1"/>
        <pt x="300" y="318" on="0"/>
        <pt x="262" y="253" on="0"/>
        <pt x="198" y="215" on="0"/>
        <pt x="160" y="215" on="1"/>
        <pt x="112" y="215" on="0"/>
        <pt x="50" y="278" on="0"/>
        <pt x="50" y="326" on="1"/>
        <pt x="50" y="365" on="0"/>
        <pt x="88" y="430" on="0"/>
        <pt x="152" y="468" on="0"/>
        <pt x="189" y="468" on="1"/>
      </contour>
    </TTGlyph>
    <TTGlyph name="bulletoperator" xMin="46" yMin="228" xMax="206" yMax="390">
      <component glyphName="periodcentered" x="0" y="0" flags="0x0"/>
    </TTGlyph>
    <TTGlyph name="c" xMin="38" yMin="-15" xMax="484" yMax="544">
      <contour>
        <pt x="420" y="544" on="0"/>
        <pt x="484" y="481" on="1"/>
        <pt x="420" y="405" on="1"/>
        <pt x="397" y="426" on="0"/>
        <pt x="351" y="443" on="0"/>
        <pt x="322" y="443" on="1"/>
        <pt x="267" y="443" on="0"/>
        <pt x="199" y="368" on="0"/>
        <pt x="170" y="258" on="0"/>
        <pt x="170" y="201" on="1"/>
        <pt x="170" y="89" on="0"/>
        <pt x="265" y="89" on="1"/>
        <pt x="294" y="89" on="0"/>
        <pt x="345" y="108" on="0"/>
        <pt x="377" y="128" on="1"/>
        <pt x="426" y="43" on="1"/>
        <pt x="343" y="-15" on="0"/>
        <pt x="251" y="-15" on="1"/>
        <pt x="150" y="-15" on="0"/>
        <pt x="38" y="104" on="0"/>
        <pt x="38" y="208" on="1"/>
        <pt x="38" y="284" on="0"/>
        <pt x="97" y="439" on="0"/>
        <pt x="225" y="544" on="0"/>
        <pt x="321" y="544" on="1"/>
      </contour>
    </TTGlyph>
    <TTGlyph name="c.sc" xMin="41" yMin="-13" xMax="516" yMax="578">
      <contour>
        <pt x="447" y="578" on="0"/>
        <pt x="516" y="512" on="1"/>
        <pt x="445" y="443" on="1"/>
        <pt x="400" y="483" on="0"/>
        <pt x="346" y="483" on="1"/>
        <pt x="284" y="483" on="0"/>
        <pt x="206" y="404" on="0"/>
        <pt x="172" y="286" on="0"/>
        <pt x="172" y="224" on="1"/>
        <pt x="172" y="154" on="0"/>
        <pt x="231" y="86" on="0"/>
        <pt x="284" y="86" on="1"/>
        <pt x="318" y="86" on="0"/>
        <pt x="377" y="112" on="0"/>
        <pt x="410" y="135" on="1"/>
        <pt x="462" y="56" on="1"/>
        <pt x="426" y="26" on="0"/>
        <pt x="327" y="-13" on="0"/>
        <pt x="270" y="-13" on="1"/>
        <pt x="164" y="-13" on="0"/>
        <pt x="41" y="112" on="0"/>
        <pt x="41" y="227" on="1"/>
        <pt x="41" y="311" on="0"/>
        <pt x="104" y="472" on="0"/>
        <pt x="239" y="578" on="0"/>
        <pt x="342" y="578" on="1"/>
      </contour>
    </TTGlyph>
    <TTGlyph name="cacute" xMin="38" yMin="-15" xMax="484" yMax="820">
      <component glyphName="c" x="0" y="0" flags="0x0"/>
      <component glyphName="acute" x="119" y="0" flags="0x0"/>
    </TTGlyph>
    <TTGlyph name="cacute.loclPLK" xMin="38" yMin="-15" xMax="484" yMax="795">
      <component glyphName="c" x="0" y="0" flags="0x0"/>
      <component glyphName="acute.loclPLK" x="129" y="0" flags="0x0"/>
    </TTGlyph>
    <TTGlyph name="cacute.sc" xMin="41" yMin="-13" xMax="524" yMax="850">
      <component glyphName="c.sc" x="0" y="0" flags="0x0"/>
      <component glyphName="acute.sc" x="199" y="0" flags="0x0"/>
    </TTGlyph>
    <TTGlyph name="cacute.sc.loclPLK" xMin="41" yMin="-13" xMax="516" yMax="838">
      <component glyphName="c.sc" x="0" y="0" flags="0x0"/>
      <component glyphName="acute.sc.loclPLK" x="124" y="0" flags="0x0"/>
    </TTGlyph>
    <TTGlyph name="capslock" xMin="60" yMin="-12" xMax="660" yMax="832">
      <contour>
        <pt x="60" y="534" on="1"/>
        <pt x="360" y="832" on="1"/>
        <pt x="660" y="534" on="1"/>
        <pt x="491" y="534" on="1"/>
        <pt x="491" y="255" on="1"/>
        <pt x="229" y="255" on="1"/>
        <pt x="229" y="534" on="1"/>
      </contour>
      <contour>
        <pt x="551" y="579" on="1"/>
        <pt x="360" y="768" on="1"/>
        <pt x="169" y="579" on="1"/>
        <pt x="276" y="579" on="1"/>
        <pt x="276" y="297" on="1"/>
        <pt x="444" y="297" on="1"/>
        <pt x="444" y="579" on="1"/>
      </contour>
      <contour>
        <pt x="491" y="16" on="0"/>
        <pt x="464" y="-12" on="0"/>
        <pt x="441" y="-12" on="1"/>
        <pt x="279" y="-12" on="1"/>
        <pt x="257" y="-12" on="0"/>
        <pt x="229" y="16" on="0"/>
        <pt x="229" y="38" on="1"/>
        <pt x="229" y="155" on="1"/>
        <pt x="491" y="155" on="1"/>
        <pt x="491" y="38" on="1"/>
      </contour>
      <contour>
        <pt x="444" y="32" on="1"/>
        <pt x="444" y="113" on="1"/>
        <pt x="276" y="113" on="1"/>
        <pt x="276" y="32" on="1"/>
      </contour>
    </TTGlyph>
    <TTGlyph name="caron" xMin="96" yMin="619" xMax="448" yMax="800">
      <contour>
        <pt x="295" y="619" on="1"/>
        <pt x="216" y="619" on="1"/>
        <pt x="96" y="744" on="1"/>
        <pt x="148" y="800" on="1"/>
        <pt x="263" y="712" on="1"/>
        <pt x="406" y="800" on="1"/>
        <pt x="448" y="744" on="1"/>
      </contour>
    </TTGlyph>
    <TTGlyph name="caron.alt" xMin="98" yMin="490" xMax="240" yMax="703">
      <contour>
        <pt x="166" y="490" on="1"/>
        <pt x="98" y="498" on="1"/>
        <pt x="140" y="703" on="1"/>
        <pt x="240" y="691" on="1"/>
      </contour>
    </TTGlyph>
    <TTGlyph name="caron.case" xMin="114" yMin="752" xMax="466" yMax="928">
      <contour>
        <pt x="314" y="752" on="1"/>
        <pt x="235" y="752" on="1"/>
        <pt x="114" y="872" on="1"/>
        <pt x="167" y="928" on="1"/>
        <pt x="283" y="845" on="1"/>
        <pt x="423" y="928" on="1"/>
        <pt x="466" y="872" on="1"/>
      </contour>
    </TTGlyph>
    <TTGlyph name="caron.sc" xMin="68" yMin="649" xMax="421" yMax="831">
      <contour>
        <pt x="267" y="649" on="1"/>
        <pt x="188" y="649" on="1"/>
        <pt x="68" y="775" on="1"/>
        <pt x="120" y="831" on="1"/>
        <pt x="235" y="742" on="1"/>
        <pt x="378" y="831" on="1"/>
        <pt x="421" y="775" on="1"/>
      </contour>
    </TTGlyph>
    <TTGlyph name="ccaron" xMin="38" yMin="-15" xMax="529" yMax="800">
      <component glyphName="c" x="0" y="0" flags="0x0"/>
      <component glyphName="caron" x="81" y="0" flags="0x0"/>
    </TTGlyph>
    <TTGlyph name="ccaron.sc" xMin="41" yMin="-13" xMax="554" yMax="831">
      <component glyphName="c.sc" x="0" y="0" flags="0x0"/>
      <component glyphName="caron.sc" x="133" y="0" flags="0x0"/>
    </TTGlyph>
    <TTGlyph name="ccedilla" xMin="38" yMin="-252" xMax="484" yMax="544">
      <contour>
        <pt x="353" y="-8" on="0"/>
        <pt x="272" y="-14" on="1"/>
        <pt x="266" y="-51" on="1"/>
        <pt x="309" y="-55" on="0"/>
        <pt x="353" y="-100" on="0"/>
        <pt x="353" y="-134" on="1"/>
        <pt x="353" y="-163" on="0"/>
        <pt x="322" y="-217" on="0"/>
        <pt x="255" y="-252" on="0"/>
        <pt x="204" y="-252" on="1"/>
        <pt x="145" y="-252" on="0"/>
        <pt x="105" y="-223" on="1"/>
        <pt x="144" y="-162" on="1"/>
        <pt x="170" y="-178" on="0"/>
        <pt x="201" y="-178" on="1"/>
        <pt x="225" y="-179" on="0"/>
        <pt x="257" y="-158" on="0"/>
        <pt x="257" y="-139" on="1"/>
        <pt x="257" y="-121" on="0"/>
        <pt x="219" y="-106" on="0"/>
        <pt x="173" y="-106" on="1"/>
        <pt x="197" y="-10" on="1"/>
        <pt x="121" y="6" on="0"/>
        <pt x="38" y="119" on="0"/>
        <pt x="38" y="208" on="1"/>
        <pt x="38" y="284" on="0"/>
        <pt x="97" y="439" on="0"/>
        <pt x="225" y="544" on="0"/>
        <pt x="321" y="544" on="1"/>
        <pt x="420" y="544" on="0"/>
        <pt x="484" y="481" on="1"/>
        <pt x="420" y="405" on="1"/>
        <pt x="397" y="426" on="0"/>
        <pt x="351" y="443" on="0"/>
        <pt x="322" y="443" on="1"/>
        <pt x="267" y="443" on="0"/>
        <pt x="199" y="368" on="0"/>
        <pt x="170" y="258" on="0"/>
        <pt x="170" y="201" on="1"/>
        <pt x="170" y="89" on="0"/>
        <pt x="265" y="89" on="1"/>
        <pt x="294" y="89" on="0"/>
        <pt x="345" y="108" on="0"/>
        <pt x="377" y="128" on="1"/>
        <pt x="426" y="43" on="1"/>
      </contour>
    </TTGlyph>
    <TTGlyph name="ccedilla.sc" xMin="41" yMin="-253" xMax="516" yMax="578">
      <contour>
        <pt x="430" y="29" on="0"/>
        <pt x="342" y="-9" on="0"/>
        <pt x="292" y="-13" on="1"/>
        <pt x="285" y="-52" on="1"/>
        <pt x="328" y="-56" on="0"/>
        <pt x="372" y="-101" on="0"/>
        <pt x="372" y="-135" on="1"/>
        <pt x="372" y="-164" on="0"/>
        <pt x="341" y="-218" on="0"/>
        <pt x="274" y="-253" on="0"/>
        <pt x="223" y="-253" on="1"/>
        <pt x="165" y="-253" on="0"/>
        <pt x="124" y="-223" on="1"/>
        <pt x="163" y="-162" on="1"/>
        <pt x="188" y="-179" on="0"/>
        <pt x="220" y="-179" on="1"/>
        <pt x="244" y="-179" on="0"/>
        <pt x="277" y="-158" on="0"/>
        <pt x="277" y="-139" on="1"/>
        <pt x="277" y="-121" on="0"/>
        <pt x="239" y="-106" on="0"/>
        <pt x="192" y="-106" on="1"/>
        <pt x="216" y="-9" on="1"/>
        <pt x="134" y="6" on="0"/>
        <pt x="41" y="128" on="0"/>
        <pt x="41" y="227" on="1"/>
        <pt x="41" y="311" on="0"/>
        <pt x="104" y="472" on="0"/>
        <pt x="239" y="578" on="0"/>
        <pt x="342" y="578" on="1"/>
        <pt x="447" y="578" on="0"/>
        <pt x="516" y="512" on="1"/>
        <pt x="445" y="443" on="1"/>
        <pt x="400" y="483" on="0"/>
        <pt x="346" y="483" on="1"/>
        <pt x="284" y="483" on="0"/>
        <pt x="206" y="404" on="0"/>
        <pt x="172" y="286" on="0"/>
        <pt x="172" y="224" on="1"/>
        <pt x="172" y="154" on="0"/>
        <pt x="231" y="86" on="0"/>
        <pt x="284" y="86" on="1"/>
        <pt x="318" y="86" on="0"/>
        <pt x="377" y="112" on="0"/>
        <pt x="410" y="135" on="1"/>
        <pt x="462" y="56" on="1"/>
      </contour>
    </TTGlyph>
    <TTGlyph name="ccircumflex" xMin="38" yMin="-15" xMax="520" yMax="808">
      <component glyphName="c" x="0" y="0" flags="0x0"/>
      <component glyphName="circumflex" x="81" y="0" flags="0x0"/>
    </TTGlyph>
    <TTGlyph name="ccircumflex.sc" xMin="41" yMin="-13" xMax="555" yMax="839">
      <component glyphName="c.sc" x="0" y="0" flags="0x0"/>
      <component glyphName="circumflex.sc" x="143" y="0" flags="0x0"/>
    </TTGlyph>
    <TTGlyph name="cdotaccent" xMin="38" yMin="-15" xMax="484" yMax="797">
      <component glyphName="c" x="0" y="0" flags="0x0"/>
      <component glyphName="dotaccent" x="179" y="0" flags="0x0"/>
    </TTGlyph>
    <TTGlyph name="cdotaccent.sc" xMin="41" yMin="-13" xMax="516" yMax="827">
      <component glyphName="c.sc" x="0" y="0" flags="0x0"/>
      <component glyphName="dotaccent.sc" x="209" y="0" flags="0x0"/>
    </TTGlyph>
    <TTGlyph name="cedilla" xMin="-40" yMin="-253" xMax="207" yMax="16">
      <contour>
        <pt x="164" y="-56" on="0"/>
        <pt x="207" y="-101" on="0"/>
        <pt x="207" y="-134" on="1"/>
        <pt x="207" y="-163" on="0"/>
        <pt x="176" y="-218" on="0"/>
        <pt x="110" y="-253" on="0"/>
        <pt x="59" y="-253" on="1"/>
        <pt x="29" y="-253" on="0"/>
        <pt x="-23" y="-236" on="0"/>
        <pt x="-40" y="-223" on="1"/>
        <pt x="-2" y="-162" on="1"/>
        <pt x="25" y="-178" on="0"/>
        <pt x="56" y="-178" on="1"/>
        <pt x="80" y="-179" on="0"/>
        <pt x="112" y="-158" on="0"/>
        <pt x="112" y="-139" on="1"/>
        <pt x="112" y="-121" on="0"/>
        <pt x="75" y="-106" on="0"/>
        <pt x="28" y="-106" on="1"/>
        <pt x="58" y="16" on="1"/>
        <pt x="132" y="16" on="1"/>
        <pt x="121" y="-52" on="1"/>
      </contour>
    </TTGlyph>
    <TTGlyph name="cedilla.case" xMin="-67" yMin="-253" xMax="181" yMax="16">
      <contour>
        <pt x="138" y="-56" on="0"/>
        <pt x="181" y="-101" on="0"/>
        <pt x="181" y="-135" on="1"/>
        <pt x="181" y="-164" on="0"/>
        <pt x="150" y="-218" on="0"/>
        <pt x="84" y="-253" on="0"/>
        <pt x="33" y="-253" on="1"/>
        <pt x="-26" y="-253" on="0"/>
        <pt x="-67" y="-223" on="1"/>
        <pt x="-28" y="-162" on="1"/>
        <pt x="-3" y="-179" on="0"/>
        <pt x="30" y="-179" on="1"/>
        <pt x="53" y="-179" on="0"/>
        <pt x="86" y="-158" on="0"/>
        <pt x="86" y="-139" on="1"/>
        <pt x="86" y="-121" on="0"/>
        <pt x="48" y="-106" on="0"/>
        <pt x="2" y="-106" on="1"/>
        <pt x="32" y="16" on="1"/>
        <pt x="106" y="16" on="1"/>
        <pt x="95" y="-52" on="1"/>
      </contour>
    </TTGlyph>
    <TTGlyph name="cedilla.sc" xMin="-40" yMin="-253" xMax="207" yMax="16">
      <contour>
        <pt x="164" y="-56" on="0"/>
        <pt x="207" y="-101" on="0"/>
        <pt x="207" y="-134" on="1"/>
        <pt x="207" y="-163" on="0"/>
        <pt x="176" y="-218" on="0"/>
        <pt x="110" y="-253" on="0"/>
        <pt x="59" y="-253" on="1"/>
        <pt x="29" y="-253" on="0"/>
        <pt x="-23" y="-236" on="0"/>
        <pt x="-40" y="-223" on="1"/>
        <pt x="-2" y="-162" on="1"/>
        <pt x="25" y="-178" on="0"/>
        <pt x="56" y="-178" on="1"/>
        <pt x="80" y="-179" on="0"/>
        <pt x="112" y="-158" on="0"/>
        <pt x="112" y="-139" on="1"/>
        <pt x="112" y="-121" on="0"/>
        <pt x="75" y="-106" on="0"/>
        <pt x="28" y="-106" on="1"/>
        <pt x="58" y="16" on="1"/>
        <pt x="132" y="16" on="1"/>
        <pt x="121" y="-52" on="1"/>
      </contour>
    </TTGlyph>
    <TTGlyph name="cent" xMin="38" yMin="-158" xMax="484" yMax="688">
      <contour>
        <pt x="355" y="-6" on="0"/>
        <pt x="281" y="-13" on="1"/>
        <pt x="260" y="-158" on="1"/>
        <pt x="163" y="-158" on="1"/>
        <pt x="184" y="-7" on="1"/>
        <pt x="114" y="11" on="0"/>
        <pt x="38" y="123" on="0"/>
        <pt x="38" y="208" on="1"/>
        <pt x="38" y="276" on="0"/>
        <pt x="85" y="415" on="0"/>
        <pt x="186" y="522" on="0"/>
        <pt x="262" y="538" on="1"/>
        <pt x="283" y="688" on="1"/>
        <pt x="379" y="688" on="1"/>
        <pt x="358" y="542" on="1"/>
        <pt x="432" y="531" on="0"/>
        <pt x="484" y="481" on="1"/>
        <pt x="420" y="405" on="1"/>
        <pt x="397" y="426" on="0"/>
        <pt x="351" y="443" on="0"/>
        <pt x="322" y="443" on="1"/>
        <pt x="267" y="443" on="0"/>
        <pt x="199" y="368" on="0"/>
        <pt x="170" y="258" on="0"/>
        <pt x="170" y="201" on="1"/>
        <pt x="170" y="89" on="0"/>
        <pt x="265" y="89" on="1"/>
        <pt x="294" y="89" on="0"/>
        <pt x="345" y="108" on="0"/>
        <pt x="377" y="128" on="1"/>
        <pt x="426" y="43" on="1"/>
      </contour>
    </TTGlyph>
    <TTGlyph name="cent.osf" xMin="38" yMin="-158" xMax="484" yMax="688">
      <component glyphName="cent" x="0" y="0" flags="0x0"/>
    </TTGlyph>
    <TTGlyph name="cent.tf" xMin="28" yMin="-158" xMax="474" yMax="688">
      <contour>
        <pt x="350" y="-6" on="0"/>
        <pt x="272" y="-13" on="1"/>
        <pt x="251" y="-158" on="1"/>
        <pt x="154" y="-158" on="1"/>
        <pt x="175" y="-7" on="1"/>
        <pt x="104" y="11" on="0"/>
        <pt x="28" y="123" on="0"/>
        <pt x="28" y="208" on="1"/>
        <pt x="28" y="275" on="0"/>
        <pt x="76" y="415" on="0"/>
        <pt x="177" y="522" on="0"/>
        <pt x="253" y="538" on="1"/>
        <pt x="273" y="688" on="1"/>
        <pt x="369" y="688" on="1"/>
        <pt x="349" y="542" on="1"/>
        <pt x="422" y="531" on="0"/>
        <pt x="474" y="481" on="1"/>
        <pt x="411" y="406" on="1"/>
        <pt x="388" y="426" on="0"/>
        <pt x="342" y="444" on="0"/>
        <pt x="313" y="444" on="1"/>
        <pt x="258" y="444" on="0"/>
        <pt x="190" y="369" on="0"/>
        <pt x="161" y="258" on="0"/>
        <pt x="161" y="202" on="1"/>
        <pt x="161" y="89" on="0"/>
        <pt x="255" y="89" on="1"/>
        <pt x="285" y="89" on="0"/>
        <pt x="335" y="108" on="0"/>
        <pt x="368" y="128" on="1"/>
        <pt x="416" y="44" on="1"/>
      </contour>
    </TTGlyph>
    <TTGlyph name="cent.tosf" xMin="-9" yMin="-158" xMax="437" yMax="688">
      <component glyphName="cent.tf" x="-37" y="0" flags="0x0"/>
    </TTGlyph>
    <TTGlyph name="chi" xMin="-81" yMin="-216" xMax="492" yMax="541">
      <contour>
        <pt x="407" y="-197" on="1"/>
        <pt x="279" y="-216" on="1"/>
        <pt x="206" y="85" on="1"/>
        <pt x="45" y="-216" on="1"/>
        <pt x="-81" y="-202" on="1"/>
        <pt x="153" y="185" on="1"/>
        <pt x="110" y="322" on="0"/>
        <pt x="54" y="453" on="0"/>
        <pt x="14" y="503" on="1"/>
        <pt x="141" y="540" on="1"/>
        <pt x="175" y="487" on="0"/>
        <pt x="214" y="386" on="0"/>
        <pt x="235" y="285" on="1"/>
        <pt x="361" y="541" on="1"/>
        <pt x="492" y="527" on="1"/>
        <pt x="287" y="184" on="1"/>
      </contour>
    </TTGlyph>
    <TTGlyph name="chi.sc" xMin="-38" yMin="0" xMax="519" yMax="567">
      <component glyphName="x.sc" x="0" y="0" flags="0x0"/>
    </TTGlyph>
    <TTGlyph name="circumflex" xMin="87" yMin="627" xMax="439" yMax="808">
      <contour>
        <pt x="241" y="808" on="1"/>
        <pt x="320" y="808" on="1"/>
        <pt x="439" y="682" on="1"/>
        <pt x="385" y="627" on="1"/>
        <pt x="270" y="715" on="1"/>
        <pt x="131" y="627" on="1"/>
        <pt x="87" y="682" on="1"/>
      </contour>
    </TTGlyph>
    <TTGlyph name="circumflex.case" xMin="106" yMin="757" xMax="458" yMax="933">
      <contour>
        <pt x="150" y="757" on="1"/>
        <pt x="106" y="812" on="1"/>
        <pt x="259" y="933" on="1"/>
        <pt x="338" y="933" on="1"/>
        <pt x="458" y="812" on="1"/>
        <pt x="406" y="757" on="1"/>
        <pt x="289" y="840" on="1"/>
      </contour>
    </TTGlyph>
    <TTGlyph name="circumflex.sc" xMin="59" yMin="657" xMax="412" yMax="839">
      <contour>
        <pt x="213" y="839" on="1"/>
        <pt x="292" y="839" on="1"/>
        <pt x="412" y="713" on="1"/>
        <pt x="357" y="657" on="1"/>
        <pt x="242" y="745" on="1"/>
        <pt x="103" y="657" on="1"/>
        <pt x="59" y="713" on="1"/>
      </contour>
    </TTGlyph>
    <TTGlyph name="clear" xMin="100" yMin="-12" xMax="1140" yMax="713">
      <contour>
        <pt x="128" y="-12" on="0"/>
        <pt x="100" y="16" on="0"/>
        <pt x="100" y="38" on="1"/>
        <pt x="100" y="663" on="1"/>
        <pt x="100" y="686" on="0"/>
        <pt x="128" y="713" on="0"/>
        <pt x="150" y="713" on="1"/>
        <pt x="1090" y="713" on="1"/>
        <pt x="1113" y="713" on="0"/>
        <pt x="1140" y="686" on="0"/>
        <pt x="1140" y="663" on="1"/>
        <pt x="1140" y="38" on="1"/>
        <pt x="1140" y="16" on="0"/>
        <pt x="1113" y="-12" on="0"/>
        <pt x="1090" y="-12" on="1"/>
        <pt x="150" y="-12" on="1"/>
      </contour>
      <contour>
        <pt x="620" y="288" on="1"/>
        <pt x="774" y="134" on="1"/>
        <pt x="841" y="201" on="1"/>
        <pt x="687" y="355" on="1"/>
        <pt x="841" y="508" on="1"/>
        <pt x="774" y="577" on="1"/>
        <pt x="620" y="422" on="1"/>
        <pt x="466" y="577" on="1"/>
        <pt x="399" y="508" on="1"/>
        <pt x="553" y="355" on="1"/>
        <pt x="399" y="201" on="1"/>
        <pt x="466" y="134" on="1"/>
      </contour>
    </TTGlyph>
    <TTGlyph name="colon" xMin="12" yMin="-15" xMax="222" yMax="503">
      <component glyphName="period" x="0" y="0" flags="0x0"/>
      <component glyphName="period" x="50" y="355" flags="0x0"/>
    </TTGlyph>
    <TTGlyph name="comma" xMin="-28" yMin="-172" xMax="173" yMax="147">
      <contour>
        <pt x="132" y="147" on="0"/>
        <pt x="173" y="106" on="0"/>
        <pt x="173" y="75" on="1"/>
        <pt x="173" y="54" on="0"/>
        <pt x="157" y="13" on="0"/>
        <pt x="136" y="-25" on="1"/>
        <pt x="51" y="-172" on="1"/>
        <pt x="-28" y="-172" on="1"/>
        <pt x="39" y="1" on="1"/>
        <pt x="13" y="22" on="0"/>
        <pt x="13" y="57" on="1"/>
        <pt x="13" y="94" on="0"/>
        <pt x="64" y="147" on="0"/>
        <pt x="101" y="147" on="1"/>
      </contour>
    </TTGlyph>
    <TTGlyph name="copyright" xMin="78" yMin="109" xMax="732" yMax="758">
      <contour>
        <pt x="495" y="758" on="0"/>
        <pt x="645" y="671" on="0"/>
        <pt x="732" y="522" on="0"/>
        <pt x="732" y="433" on="1"/>
        <pt x="732" y="344" on="0"/>
        <pt x="645" y="196" on="0"/>
        <pt x="495" y="109" on="0"/>
        <pt x="406" y="109" on="1"/>
        <pt x="317" y="109" on="0"/>
        <pt x="166" y="196" on="0"/>
        <pt x="78" y="345" on="0"/>
        <pt x="78" y="433" on="1"/>
        <pt x="78" y="522" on="0"/>
        <pt x="166" y="671" on="0"/>
        <pt x="317" y="758" on="0"/>
        <pt x="406" y="758" on="1"/>
      </contour>
      <contour>
        <pt x="336" y="691" on="0"/>
        <pt x="221" y="622" on="0"/>
        <pt x="156" y="504" on="0"/>
        <pt x="156" y="433" on="1"/>
        <pt x="156" y="362" on="0"/>
        <pt x="221" y="245" on="0"/>
        <pt x="336" y="177" on="0"/>
        <pt x="406" y="177" on="1"/>
        <pt x="476" y="177" on="0"/>
        <pt x="590" y="245" on="0"/>
        <pt x="655" y="362" on="0"/>
        <pt x="655" y="433" on="1"/>
        <pt x="655" y="504" on="0"/>
        <pt x="590" y="622" on="0"/>
        <pt x="476" y="691" on="0"/>
        <pt x="406" y="691" on="1"/>
      </contour>
      <contour>
        <pt x="478" y="628" on="0"/>
        <pt x="532" y="582" on="1"/>
        <pt x="489" y="526" on="1"/>
        <pt x="471" y="541" on="0"/>
        <pt x="437" y="553" on="0"/>
        <pt x="416" y="553" on="1"/>
        <pt x="379" y="553" on="0"/>
        <pt x="334" y="495" on="0"/>
        <pt x="334" y="434" on="1"/>
        <pt x="334" y="374" on="0"/>
        <pt x="377" y="316" on="0"/>
        <pt x="415" y="316" on="1"/>
        <pt x="439" y="316" on="0"/>
        <pt x="477" y="331" on="0"/>
        <pt x="497" y="347" on="1"/>
        <pt x="536" y="290" on="1"/>
        <pt x="481" y="240" on="0"/>
        <pt x="409" y="240" on="1"/>
        <pt x="331" y="240" on="0"/>
        <pt x="238" y="342" on="0"/>
        <pt x="238" y="434" on="1"/>
        <pt x="238" y="494" on="0"/>
        <pt x="283" y="582" on="0"/>
        <pt x="360" y="628" on="0"/>
        <pt x="408" y="628" on="1"/>
      </contour>
    </TTGlyph>
    <TTGlyph name="currency" xMin="23" yMin="83" xMax="538" yMax="601">
      <contour>
        <pt x="497" y="273" on="0"/>
        <pt x="462" y="221" on="1"/>
        <pt x="538" y="146" on="1"/>
        <pt x="475" y="83" on="1"/>
        <pt x="397" y="159" on="1"/>
        <pt x="346" y="128" on="0"/>
        <pt x="279" y="128" on="1"/>
        <pt x="215" y="128" on="0"/>
        <pt x="164" y="160" on="1"/>
        <pt x="86" y="83" on="1"/>
        <pt x="23" y="146" on="1"/>
        <pt x="100" y="223" on="1"/>
        <pt x="66" y="274" on="0"/>
        <pt x="66" y="341" on="1"/>
        <pt x="66" y="406" on="0"/>
        <pt x="99" y="459" on="1"/>
        <pt x="23" y="538" on="1"/>
        <pt x="86" y="601" on="1"/>
        <pt x="164" y="522" on="1"/>
        <pt x="215" y="554" on="0"/>
        <pt x="279" y="554" on="1"/>
        <pt x="346" y="554" on="0"/>
        <pt x="397" y="523" on="1"/>
        <pt x="475" y="601" on="1"/>
        <pt x="538" y="538" on="1"/>
        <pt x="462" y="461" on="1"/>
        <pt x="497" y="409" on="0"/>
        <pt x="497" y="341" on="1"/>
      </contour>
      <contour>
        <pt x="334" y="219" on="0"/>
        <pt x="389" y="284" on="0"/>
        <pt x="389" y="342" on="1"/>
        <pt x="389" y="400" on="0"/>
        <pt x="334" y="464" on="0"/>
        <pt x="281" y="464" on="1"/>
        <pt x="228" y="464" on="0"/>
        <pt x="172" y="400" on="0"/>
        <pt x="172" y="342" on="1"/>
        <pt x="172" y="283" on="0"/>
        <pt x="228" y="219" on="0"/>
        <pt x="281" y="219" on="1"/>
      </contour>
    </TTGlyph>
    <TTGlyph name="currency.osf" xMin="23" yMin="83" xMax="538" yMax="601">
      <component glyphName="currency" x="0" y="0" flags="0x0"/>
    </TTGlyph>
    <TTGlyph name="currency.tf" xMin="23" yMin="83" xMax="538" yMax="601">
      <component glyphName="currency" x="0" y="0" flags="0x0"/>
    </TTGlyph>
    <TTGlyph name="currency.tosf" xMin="23" yMin="83" xMax="538" yMax="601">
      <component glyphName="currency" x="0" y="0" flags="0x0"/>
    </TTGlyph>
    <TTGlyph name="d" xMin="43" yMin="-15" xMax="583" yMax="755">
      <contour>
        <pt x="479" y="0" on="1"/>
        <pt x="367" y="0" on="1"/>
        <pt x="368" y="81" on="1"/>
        <pt x="340" y="37" on="0"/>
        <pt x="260" y="-15" on="0"/>
        <pt x="210" y="-15" on="1"/>
        <pt x="128" y="-15" on="0"/>
        <pt x="43" y="97" on="0"/>
        <pt x="43" y="197" on="1"/>
        <pt x="43" y="276" on="0"/>
        <pt x="95" y="435" on="0"/>
        <pt x="209" y="544" on="0"/>
        <pt x="296" y="544" on="1"/>
        <pt x="335" y="544" on="0"/>
        <pt x="398" y="513" on="0"/>
        <pt x="420" y="486" on="1"/>
        <pt x="458" y="755" on="1"/>
        <pt x="583" y="741" on="1"/>
      </contour>
      <contour>
        <pt x="267" y="448" on="0"/>
        <pt x="203" y="366" on="0"/>
        <pt x="175" y="249" on="0"/>
        <pt x="175" y="193" on="1"/>
        <pt x="175" y="82" on="0"/>
        <pt x="247" y="82" on="1"/>
        <pt x="284" y="82" on="0"/>
        <pt x="346" y="137" on="0"/>
        <pt x="379" y="190" on="1"/>
        <pt x="408" y="398" on="1"/>
        <pt x="391" y="423" on="0"/>
        <pt x="348" y="448" on="0"/>
        <pt x="319" y="448" on="1"/>
      </contour>
    </TTGlyph>
    <TTGlyph name="d.sc" xMin="43" yMin="0" xMax="547" yMax="566">
      <contour>
        <pt x="399" y="566" on="0"/>
        <pt x="547" y="467" on="0"/>
        <pt x="547" y="343" on="1"/>
        <pt x="547" y="193" on="0"/>
        <pt x="387" y="0" on="0"/>
        <pt x="214" y="0" on="1"/>
        <pt x="43" y="0" on="1"/>
        <pt x="123" y="566" on="1"/>
        <pt x="276" y="566" on="1"/>
      </contour>
      <contour>
        <pt x="181" y="93" on="1"/>
        <pt x="232" y="93" on="1"/>
        <pt x="332" y="93" on="0"/>
        <pt x="417" y="244" on="0"/>
        <pt x="417" y="347" on="1"/>
        <pt x="417" y="419" on="0"/>
        <pt x="348" y="473" on="0"/>
        <pt x="286" y="473" on="1"/>
        <pt x="235" y="473" on="1"/>
      </contour>
    </TTGlyph>
    <TTGlyph name="dagger" xMin="54" yMin="0" xMax="517" yMax="673">
      <contour>
        <pt x="517" y="529" on="1"/>
        <pt x="503" y="425" on="1"/>
        <pt x="339" y="425" on="1"/>
        <pt x="279" y="0" on="1"/>
        <pt x="159" y="0" on="1"/>
        <pt x="219" y="425" on="1"/>
        <pt x="54" y="425" on="1"/>
        <pt x="69" y="529" on="1"/>
        <pt x="233" y="529" on="1"/>
        <pt x="253" y="673" on="1"/>
        <pt x="373" y="673" on="1"/>
        <pt x="353" y="529" on="1"/>
      </contour>
    </TTGlyph>
    <TTGlyph name="dagger.osf" xMin="54" yMin="0" xMax="517" yMax="673">
      <component glyphName="dagger" x="0" y="0" flags="0x0"/>
    </TTGlyph>
    <TTGlyph name="dagger.tf" xMin="72" yMin="0" xMax="552" yMax="691">
      <contour>
        <pt x="552" y="548" on="1"/>
        <pt x="537" y="443" on="1"/>
        <pt x="365" y="443" on="1"/>
        <pt x="303" y="0" on="1"/>
        <pt x="183" y="0" on="1"/>
        <pt x="245" y="443" on="1"/>
        <pt x="72" y="443" on="1"/>
        <pt x="87" y="548" on="1"/>
        <pt x="260" y="548" on="1"/>
        <pt x="280" y="691" on="1"/>
        <pt x="400" y="691" on="1"/>
        <pt x="379" y="548" on="1"/>
      </contour>
    </TTGlyph>
    <TTGlyph name="dagger.tosf" xMin="37" yMin="0" xMax="500" yMax="673">
      <component glyphName="dagger" x="-17" y="0" flags="0x0"/>
    </TTGlyph>
    <TTGlyph name="daggerdbl" xMin="17" yMin="0" xMax="517" yMax="673">
      <contour>
        <pt x="315" y="256" on="1"/>
        <pt x="481" y="256" on="1"/>
        <pt x="466" y="151" on="1"/>
        <pt x="300" y="151" on="1"/>
        <pt x="279" y="0" on="1"/>
        <pt x="159" y="0" on="1"/>
        <pt x="181" y="151" on="1"/>
        <pt x="17" y="151" on="1"/>
        <pt x="32" y="256" on="1"/>
        <pt x="195" y="256" on="1"/>
        <pt x="219" y="425" on="1"/>
        <pt x="54" y="425" on="1"/>
        <pt x="69" y="529" on="1"/>
        <pt x="233" y="529" on="1"/>
        <pt x="253" y="673" on="1"/>
        <pt x="373" y="673" on="1"/>
        <pt x="353" y="529" on="1"/>
        <pt x="517" y="529" on="1"/>
        <pt x="503" y="425" on="1"/>
        <pt x="339" y="425" on="1"/>
      </contour>
    </TTGlyph>
    <TTGlyph name="daggerdbl.osf" xMin="17" yMin="0" xMax="517" yMax="673">
      <component glyphName="daggerdbl" x="0" y="0" flags="0x0"/>
    </TTGlyph>
    <TTGlyph name="daggerdbl.tf" xMin="34" yMin="0" xMax="552" yMax="691">
      <contour>
        <pt x="341" y="278" on="1"/>
        <pt x="511" y="278" on="1"/>
        <pt x="496" y="173" on="1"/>
        <pt x="327" y="173" on="1"/>
        <pt x="303" y="0" on="1"/>
        <pt x="183" y="0" on="1"/>
        <pt x="208" y="173" on="1"/>
        <pt x="34" y="173" on="1"/>
        <pt x="49" y="278" on="1"/>
        <pt x="222" y="278" on="1"/>
        <pt x="245" y="443" on="1"/>
        <pt x="72" y="443" on="1"/>
        <pt x="87" y="548" on="1"/>
        <pt x="260" y="548" on="1"/>
        <pt x="280" y="691" on="1"/>
        <pt x="400" y="691" on="1"/>
        <pt x="379" y="548" on="1"/>
        <pt x="552" y="548" on="1"/>
        <pt x="537" y="443" on="1"/>
        <pt x="365" y="443" on="1"/>
      </contour>
    </TTGlyph>
    <TTGlyph name="daggerdbl.tosf" xMin="0" yMin="0" xMax="500" yMax="673">
      <component glyphName="daggerdbl" x="-17" y="0" flags="0x0"/>
    </TTGlyph>
    <TTGlyph name="dcaron" xMin="40" yMin="-15" xMax="751" yMax="755">
      <component glyphName="d" x="-3" y="0" flags="0x0"/>
      <component glyphName="caron.alt" x="511" y="49" flags="0x0"/>
    </TTGlyph>
    <TTGlyph name="dcaron.sc" xMin="43" yMin="0" xMax="547" yMax="831">
      <component glyphName="d.sc" x="0" y="0" flags="0x0"/>
      <component glyphName="caron.sc" x="94" y="0" flags="0x0"/>
    </TTGlyph>
    <TTGlyph name="dcroat" xMin="43" yMin="-15" xMax="643" yMax="755">
      <contour>
        <pt x="563" y="601" on="1"/>
        <pt x="479" y="0" on="1"/>
        <pt x="367" y="0" on="1"/>
        <pt x="368" y="81" on="1"/>
        <pt x="340" y="37" on="0"/>
        <pt x="260" y="-15" on="0"/>
        <pt x="210" y="-15" on="1"/>
        <pt x="128" y="-15" on="0"/>
        <pt x="43" y="97" on="0"/>
        <pt x="43" y="197" on="1"/>
        <pt x="43" y="276" on="0"/>
        <pt x="95" y="435" on="0"/>
        <pt x="209" y="544" on="0"/>
        <pt x="296" y="544" on="1"/>
        <pt x="335" y="544" on="0"/>
        <pt x="398" y="513" on="0"/>
        <pt x="420" y="486" on="1"/>
        <pt x="436" y="601" on="1"/>
        <pt x="299" y="601" on="1"/>
        <pt x="299" y="683" on="1"/>
        <pt x="448" y="683" on="1"/>
        <pt x="458" y="755" on="1"/>
        <pt x="583" y="741" on="1"/>
        <pt x="575" y="683" on="1"/>
        <pt x="643" y="683" on="1"/>
        <pt x="632" y="601" on="1"/>
      </contour>
      <contour>
        <pt x="391" y="423" on="0"/>
        <pt x="348" y="448" on="0"/>
        <pt x="319" y="448" on="1"/>
        <pt x="267" y="448" on="0"/>
        <pt x="203" y="366" on="0"/>
        <pt x="175" y="249" on="0"/>
        <pt x="175" y="193" on="1"/>
        <pt x="175" y="82" on="0"/>
        <pt x="247" y="82" on="1"/>
        <pt x="284" y="82" on="0"/>
        <pt x="346" y="137" on="0"/>
        <pt x="379" y="190" on="1"/>
        <pt x="408" y="398" on="1"/>
      </contour>
    </TTGlyph>
    <TTGlyph name="dcroat.sc" xMin="-12" yMin="0" xMax="492" yMax="567">
      <component glyphName="eth.sc" x="0" y="0" flags="0x0"/>
    </TTGlyph>
    <TTGlyph name="degree" xMin="83" yMin="375" xMax="424" yMax="706">
      <contour>
        <pt x="193" y="375" on="0"/>
        <pt x="125" y="410" on="0"/>
        <pt x="83" y="475" on="0"/>
        <pt x="83" y="519" on="1"/>
        <pt x="83" y="576" on="0"/>
        <pt x="139" y="661" on="0"/>
        <pt x="226" y="706" on="0"/>
        <pt x="273" y="706" on="1"/>
        <pt x="313" y="706" on="0"/>
        <pt x="382" y="672" on="0"/>
        <pt x="424" y="607" on="0"/>
        <pt x="424" y="563" on="1"/>
        <pt x="424" y="506" on="0"/>
        <pt x="368" y="420" on="0"/>
        <pt x="280" y="375" on="0"/>
        <pt x="233" y="375" on="1"/>
      </contour>
      <contour>
        <pt x="272" y="453" on="0"/>
        <pt x="324" y="503" on="0"/>
        <pt x="330" y="545" on="1"/>
        <pt x="332" y="551" on="0"/>
        <pt x="332" y="562" on="1"/>
        <pt x="332" y="594" on="0"/>
        <pt x="298" y="628" on="0"/>
        <pt x="269" y="628" on="1"/>
        <pt x="235" y="628" on="0"/>
        <pt x="182" y="579" on="0"/>
        <pt x="176" y="537" on="1"/>
        <pt x="175" y="531" on="0"/>
        <pt x="175" y="520" on="1"/>
        <pt x="175" y="488" on="0"/>
        <pt x="209" y="453" on="0"/>
        <pt x="237" y="453" on="1"/>
      </contour>
    </TTGlyph>
    <TTGlyph name="degree.osf" xMin="83" yMin="375" xMax="424" yMax="706">
      <component glyphName="degree" x="0" y="0" flags="0x0"/>
    </TTGlyph>
    <TTGlyph name="degree.tf" xMin="69" yMin="395" xMax="410" yMax="726">
      <component glyphName="degree" x="-14" y="20" flags="0x0"/>
    </TTGlyph>
    <TTGlyph name="degree.tosf" xMin="66" yMin="375" xMax="407" yMax="706">
      <component glyphName="degree" x="-17" y="0" flags="0x0"/>
    </TTGlyph>
    <TTGlyph name="deleterightKey" xMin="100" yMin="-12" xMax="1360" yMax="713">
      <contour>
        <pt x="128" y="-12" on="0"/>
        <pt x="100" y="16" on="0"/>
        <pt x="100" y="38" on="1"/>
        <pt x="100" y="663" on="1"/>
        <pt x="100" y="686" on="0"/>
        <pt x="128" y="713" on="0"/>
        <pt x="150" y="713" on="1"/>
        <pt x="980" y="713" on="1"/>
        <pt x="1360" y="352" on="1"/>
        <pt x="980" y="-12" on="1"/>
        <pt x="150" y="-12" on="1"/>
      </contour>
      <contour>
        <pt x="570" y="288" on="1"/>
        <pt x="724" y="134" on="1"/>
        <pt x="791" y="201" on="1"/>
        <pt x="637" y="355" on="1"/>
        <pt x="791" y="508" on="1"/>
        <pt x="724" y="577" on="1"/>
        <pt x="570" y="422" on="1"/>
        <pt x="416" y="577" on="1"/>
        <pt x="349" y="508" on="1"/>
        <pt x="503" y="355" on="1"/>
        <pt x="349" y="201" on="1"/>
        <pt x="416" y="134" on="1"/>
      </contour>
    </TTGlyph>
    <TTGlyph name="delta" xMin="38" yMin="-15" xMax="535" yMax="755">
      <contour>
        <pt x="413" y="755" on="0"/>
        <pt x="502" y="720" on="0"/>
        <pt x="535" y="687" on="1"/>
        <pt x="468" y="618" on="1"/>
        <pt x="443" y="642" on="0"/>
        <pt x="393" y="662" on="0"/>
        <pt x="362" y="662" on="1"/>
        <pt x="316" y="662" on="0"/>
        <pt x="270" y="623" on="0"/>
        <pt x="270" y="597" on="1"/>
        <pt x="270" y="569" on="0"/>
        <pt x="307" y="535" on="0"/>
        <pt x="363" y="510" on="1"/>
        <pt x="449" y="472" on="0"/>
        <pt x="531" y="372" on="0"/>
        <pt x="531" y="294" on="1"/>
        <pt x="531" y="230" on="0"/>
        <pt x="473" y="86" on="0"/>
        <pt x="347" y="-15" on="0"/>
        <pt x="251" y="-15" on="1"/>
        <pt x="186" y="-15" on="0"/>
        <pt x="89" y="41" on="0"/>
        <pt x="38" y="138" on="0"/>
        <pt x="38" y="200" on="1"/>
        <pt x="38" y="293" on="0"/>
        <pt x="123" y="428" on="0"/>
        <pt x="225" y="470" on="1"/>
        <pt x="182" y="498" on="0"/>
        <pt x="146" y="560" on="0"/>
        <pt x="146" y="599" on="1"/>
        <pt x="146" y="635" on="0"/>
        <pt x="189" y="707" on="0"/>
        <pt x="281" y="755" on="0"/>
        <pt x="350" y="755" on="1"/>
      </contour>
      <contour>
        <pt x="222" y="388" on="0"/>
        <pt x="169" y="273" on="0"/>
        <pt x="169" y="194" on="1"/>
        <pt x="169" y="142" on="0"/>
        <pt x="214" y="82" on="0"/>
        <pt x="258" y="82" on="1"/>
        <pt x="310" y="82" on="0"/>
        <pt x="374" y="155" on="0"/>
        <pt x="400" y="255" on="0"/>
        <pt x="400" y="299" on="1"/>
        <pt x="400" y="346" on="0"/>
        <pt x="352" y="406" on="0"/>
        <pt x="294" y="434" on="1"/>
      </contour>
    </TTGlyph>
    <TTGlyph name="delta.sc" xMin="-42" yMin="0" xMax="481" yMax="568">
      <contour>
        <pt x="-42" y="0" on="1"/>
        <pt x="223" y="568" on="1"/>
        <pt x="376" y="568" on="1"/>
        <pt x="481" y="0" on="1"/>
      </contour>
      <contour>
        <pt x="340" y="95" on="1"/>
        <pt x="286" y="474" on="1"/>
        <pt x="125" y="95" on="1"/>
      </contour>
    </TTGlyph>
    <TTGlyph name="dieresis" xMin="93" yMin="647" xMax="450" yMax="785">
      <contour>
        <pt x="196" y="785" on="0"/>
        <pt x="231" y="750" on="0"/>
        <pt x="231" y="723" on="1"/>
        <pt x="231" y="692" on="0"/>
        <pt x="187" y="647" on="0"/>
        <pt x="156" y="647" on="1"/>
        <pt x="128" y="647" on="0"/>
        <pt x="93" y="683" on="0"/>
        <pt x="93" y="710" on="1"/>
        <pt x="93" y="741" on="0"/>
        <pt x="137" y="785" on="0"/>
        <pt x="168" y="785" on="1"/>
      </contour>
      <contour>
        <pt x="415" y="785" on="0"/>
        <pt x="450" y="750" on="0"/>
        <pt x="450" y="723" on="1"/>
        <pt x="450" y="692" on="0"/>
        <pt x="406" y="647" on="0"/>
        <pt x="374" y="647" on="1"/>
        <pt x="347" y="647" on="0"/>
        <pt x="312" y="683" on="0"/>
        <pt x="312" y="710" on="1"/>
        <pt x="312" y="741" on="0"/>
        <pt x="357" y="785" on="0"/>
        <pt x="387" y="785" on="1"/>
      </contour>
    </TTGlyph>
    <TTGlyph name="dieresis.case" xMin="70" yMin="773" xMax="427" yMax="911">
      <contour>
        <pt x="173" y="911" on="0"/>
        <pt x="208" y="876" on="0"/>
        <pt x="208" y="849" on="1"/>
        <pt x="208" y="818" on="0"/>
        <pt x="163" y="773" on="0"/>
        <pt x="132" y="773" on="1"/>
        <pt x="105" y="773" on="0"/>
        <pt x="70" y="809" on="0"/>
        <pt x="70" y="836" on="1"/>
        <pt x="70" y="867" on="0"/>
        <pt x="114" y="911" on="0"/>
        <pt x="145" y="911" on="1"/>
      </contour>
      <contour>
        <pt x="392" y="911" on="0"/>
        <pt x="427" y="876" on="0"/>
        <pt x="427" y="849" on="1"/>
        <pt x="427" y="818" on="0"/>
        <pt x="383" y="773" on="0"/>
        <pt x="351" y="773" on="1"/>
        <pt x="323" y="773" on="0"/>
        <pt x="288" y="809" on="0"/>
        <pt x="288" y="836" on="1"/>
        <pt x="288" y="867" on="0"/>
        <pt x="333" y="911" on="0"/>
        <pt x="364" y="911" on="1"/>
      </contour>
    </TTGlyph>
    <TTGlyph name="dieresis.sc" xMin="65" yMin="677" xMax="422" yMax="815">
      <contour>
        <pt x="168" y="815" on="0"/>
        <pt x="203" y="780" on="0"/>
        <pt x="203" y="753" on="1"/>
        <pt x="203" y="722" on="0"/>
        <pt x="159" y="677" on="0"/>
        <pt x="128" y="677" on="1"/>
        <pt x="100" y="677" on="0"/>
        <pt x="65" y="713" on="0"/>
        <pt x="65" y="740" on="1"/>
        <pt x="65" y="771" on="0"/>
        <pt x="109" y="815" on="0"/>
        <pt x="140" y="815" on="1"/>
      </contour>
      <contour>
        <pt x="387" y="815" on="0"/>
        <pt x="422" y="780" on="0"/>
        <pt x="422" y="753" on="1"/>
        <pt x="422" y="722" on="0"/>
        <pt x="378" y="677" on="0"/>
        <pt x="346" y="677" on="1"/>
        <pt x="319" y="677" on="0"/>
        <pt x="284" y="713" on="0"/>
        <pt x="284" y="740" on="1"/>
        <pt x="284" y="771" on="0"/>
        <pt x="329" y="815" on="0"/>
        <pt x="359" y="815" on="1"/>
      </contour>
    </TTGlyph>
    <TTGlyph name="dieresistonos" xMin="88" yMin="616" xMax="472" yMax="936">
      <contour>
        <pt x="324" y="733" on="1"/>
        <pt x="247" y="745" on="1"/>
        <pt x="303" y="936" on="1"/>
        <pt x="417" y="915" on="1"/>
      </contour>
      <contour>
        <pt x="190" y="752" on="0"/>
        <pt x="225" y="717" on="0"/>
        <pt x="225" y="690" on="1"/>
        <pt x="225" y="659" on="0"/>
        <pt x="181" y="616" on="0"/>
        <pt x="151" y="616" on="1"/>
        <pt x="124" y="616" on="0"/>
        <pt x="88" y="652" on="0"/>
        <pt x="88" y="678" on="1"/>
        <pt x="88" y="709" on="0"/>
        <pt x="133" y="752" on="0"/>
        <pt x="163" y="752" on="1"/>
      </contour>
      <contour>
        <pt x="437" y="752" on="0"/>
        <pt x="472" y="717" on="0"/>
        <pt x="472" y="690" on="1"/>
        <pt x="472" y="659" on="0"/>
        <pt x="428" y="616" on="0"/>
        <pt x="397" y="616" on="1"/>
        <pt x="370" y="616" on="0"/>
        <pt x="334" y="652" on="0"/>
        <pt x="334" y="678" on="1"/>
        <pt x="334" y="708" on="0"/>
        <pt x="379" y="752" on="0"/>
        <pt x="409" y="752" on="1"/>
      </contour>
    </TTGlyph>
    <TTGlyph name="divide" xMin="55" yMin="16" xMax="466" yMax="649">
      <component glyphName="period" x="135" y="31" flags="0x0"/>
      <component glyphName="period" x="201" y="501" flags="0x0"/>
      <component glyphName="minus" x="0" y="0" flags="0x0"/>
    </TTGlyph>
    <TTGlyph name="divide.osf" xMin="55" yMin="17" xMax="466" yMax="649">
      <contour>
        <pt x="333" y="649" on="0"/>
        <pt x="373" y="608" on="0"/>
        <pt x="373" y="577" on="1"/>
        <pt x="373" y="540" on="0"/>
        <pt x="321" y="488" on="0"/>
        <pt x="285" y="488" on="1"/>
        <pt x="254" y="488" on="0"/>
        <pt x="214" y="530" on="0"/>
        <pt x="214" y="561" on="1"/>
        <pt x="214" y="596" on="0"/>
        <pt x="266" y="649" on="0"/>
        <pt x="301" y="649" on="1"/>
      </contour>
      <contour>
        <pt x="466" y="383" on="1"/>
        <pt x="451" y="281" on="1"/>
        <pt x="55" y="281" on="1"/>
        <pt x="70" y="383" on="1"/>
      </contour>
      <contour>
        <pt x="267" y="178" on="0"/>
        <pt x="307" y="137" on="0"/>
        <pt x="307" y="106" on="1"/>
        <pt x="307" y="69" on="0"/>
        <pt x="255" y="17" on="0"/>
        <pt x="219" y="17" on="1"/>
        <pt x="188" y="17" on="0"/>
        <pt x="148" y="59" on="0"/>
        <pt x="148" y="90" on="1"/>
        <pt x="148" y="125" on="0"/>
        <pt x="200" y="178" on="0"/>
        <pt x="235" y="178" on="1"/>
      </contour>
    </TTGlyph>
    <TTGlyph name="divide.tf" xMin="80" yMin="17" xMax="490" yMax="649">
      <contour>
        <pt x="357" y="649" on="0"/>
        <pt x="397" y="608" on="0"/>
        <pt x="397" y="577" on="1"/>
        <pt x="397" y="540" on="0"/>
        <pt x="345" y="488" on="0"/>
        <pt x="309" y="488" on="1"/>
        <pt x="278" y="488" on="0"/>
        <pt x="238" y="530" on="0"/>
        <pt x="238" y="561" on="1"/>
        <pt x="238" y="596" on="0"/>
        <pt x="290" y="649" on="0"/>
        <pt x="325" y="649" on="1"/>
      </contour>
      <contour>
        <pt x="490" y="383" on="1"/>
        <pt x="476" y="282" on="1"/>
        <pt x="80" y="282" on="1"/>
        <pt x="94" y="383" on="1"/>
      </contour>
      <contour>
        <pt x="291" y="178" on="0"/>
        <pt x="331" y="137" on="0"/>
        <pt x="331" y="106" on="1"/>
        <pt x="331" y="69" on="0"/>
        <pt x="279" y="17" on="0"/>
        <pt x="243" y="17" on="1"/>
        <pt x="212" y="17" on="0"/>
        <pt x="172" y="59" on="0"/>
        <pt x="172" y="90" on="1"/>
        <pt x="172" y="125" on="0"/>
        <pt x="224" y="178" on="0"/>
        <pt x="259" y="178" on="1"/>
      </contour>
    </TTGlyph>
    <TTGlyph name="divide.tosf" xMin="83" yMin="17" xMax="493" yMax="649">
      <contour>
        <pt x="359" y="649" on="0"/>
        <pt x="400" y="607" on="0"/>
        <pt x="400" y="577" on="1"/>
        <pt x="400" y="540" on="0"/>
        <pt x="348" y="488" on="0"/>
        <pt x="312" y="488" on="1"/>
        <pt x="280" y="488" on="0"/>
        <pt x="240" y="530" on="0"/>
        <pt x="240" y="561" on="1"/>
        <pt x="240" y="596" on="0"/>
        <pt x="292" y="649" on="0"/>
        <pt x="328" y="649" on="1"/>
      </contour>
      <contour>
        <pt x="493" y="383" on="1"/>
        <pt x="479" y="282" on="1"/>
        <pt x="83" y="282" on="1"/>
        <pt x="97" y="383" on="1"/>
      </contour>
      <contour>
        <pt x="294" y="178" on="0"/>
        <pt x="334" y="137" on="0"/>
        <pt x="334" y="106" on="1"/>
        <pt x="334" y="69" on="0"/>
        <pt x="282" y="17" on="0"/>
        <pt x="246" y="17" on="1"/>
        <pt x="215" y="17" on="0"/>
        <pt x="175" y="59" on="0"/>
        <pt x="175" y="90" on="1"/>
        <pt x="175" y="125" on="0"/>
        <pt x="227" y="178" on="0"/>
        <pt x="262" y="178" on="1"/>
      </contour>
    </TTGlyph>
    <TTGlyph name="divisionslash" xMin="-212" yMin="-82" xMax="375" yMax="755">
      <component glyphName="fraction" x="0" y="0" flags="0x0"/>
    </TTGlyph>
    <TTGlyph name="dollar" xMin="-11" yMin="-158" xMax="532" yMax="827">
      <contour>
        <pt x="403" y="373" on="0"/>
        <pt x="492" y="282" on="0"/>
        <pt x="492" y="210" on="1"/>
        <pt x="492" y="162" on="0"/>
        <pt x="449" y="71" on="0"/>
        <pt x="352" y="3" on="0"/>
        <pt x="276" y="-7" on="1"/>
        <pt x="255" y="-158" on="1"/>
        <pt x="157" y="-158" on="1"/>
        <pt x="179" y="-9" on="1"/>
        <pt x="118" y="-3" on="0"/>
        <pt x="22" y="45" on="0"/>
        <pt x="-11" y="83" on="1"/>
        <pt x="65" y="154" on="1"/>
        <pt x="127" y="87" on="0"/>
        <pt x="220" y="87" on="1"/>
        <pt x="282" y="87" on="0"/>
        <pt x="361" y="144" on="0"/>
        <pt x="361" y="200" on="1"/>
        <pt x="361" y="232" on="0"/>
        <pt x="311" y="279" on="0"/>
        <pt x="250" y="301" on="1"/>
        <pt x="77" y="358" on="0"/>
        <pt x="77" y="485" on="1"/>
        <pt x="77" y="562" on="0"/>
        <pt x="184" y="668" on="0"/>
        <pt x="275" y="680" on="1"/>
        <pt x="296" y="827" on="1"/>
        <pt x="393" y="827" on="1"/>
        <pt x="372" y="680" on="1"/>
        <pt x="460" y="668" on="0"/>
        <pt x="532" y="599" on="1"/>
        <pt x="462" y="530" on="1"/>
        <pt x="396" y="586" on="0"/>
        <pt x="327" y="586" on="1"/>
        <pt x="273" y="586" on="0"/>
        <pt x="208" y="542" on="0"/>
        <pt x="208" y="498" on="1"/>
        <pt x="208" y="465" on="0"/>
        <pt x="257" y="423" on="0"/>
        <pt x="323" y="400" on="1"/>
      </contour>
    </TTGlyph>
    <TTGlyph name="dollar.osf" xMin="-11" yMin="-158" xMax="532" yMax="827">
      <component glyphName="dollar" x="0" y="0" flags="0x0"/>
    </TTGlyph>
    <TTGlyph name="dollar.tf" xMin="2" yMin="-158" xMax="543" yMax="849">
      <contour>
        <pt x="415" y="384" on="0"/>
        <pt x="506" y="291" on="0"/>
        <pt x="506" y="218" on="1"/>
        <pt x="506" y="168" on="0"/>
        <pt x="461" y="74" on="0"/>
        <pt x="362" y="6" on="0"/>
        <pt x="284" y="-3" on="1"/>
        <pt x="263" y="-158" on="1"/>
        <pt x="165" y="-158" on="1"/>
        <pt x="186" y="-3" on="1"/>
        <pt x="72" y="9" on="0"/>
        <pt x="2" y="88" on="1"/>
        <pt x="76" y="161" on="1"/>
        <pt x="137" y="94" on="0"/>
        <pt x="233" y="94" on="1"/>
        <pt x="296" y="94" on="0"/>
        <pt x="375" y="151" on="0"/>
        <pt x="375" y="207" on="1"/>
        <pt x="375" y="241" on="0"/>
        <pt x="324" y="290" on="0"/>
        <pt x="262" y="312" on="1"/>
        <pt x="173" y="340" on="0"/>
        <pt x="86" y="433" on="0"/>
        <pt x="86" y="499" on="1"/>
        <pt x="86" y="542" on="0"/>
        <pt x="128" y="626" on="0"/>
        <pt x="217" y="686" on="0"/>
        <pt x="285" y="695" on="1"/>
        <pt x="307" y="849" on="1"/>
        <pt x="404" y="849" on="1"/>
        <pt x="382" y="695" on="1"/>
        <pt x="431" y="688" on="0"/>
        <pt x="509" y="648" on="0"/>
        <pt x="543" y="614" on="1"/>
        <pt x="470" y="543" on="1"/>
        <pt x="412" y="600" on="0"/>
        <pt x="335" y="600" on="1"/>
        <pt x="282" y="600" on="0"/>
        <pt x="215" y="553" on="0"/>
        <pt x="215" y="508" on="1"/>
        <pt x="215" y="477" on="0"/>
        <pt x="266" y="434" on="0"/>
        <pt x="334" y="411" on="1"/>
      </contour>
    </TTGlyph>
    <TTGlyph name="dollar.tosf" xMin="4" yMin="-158" xMax="536" yMax="828">
      <contour>
        <pt x="410" y="373" on="0"/>
        <pt x="497" y="282" on="0"/>
        <pt x="497" y="207" on="1"/>
        <pt x="497" y="158" on="0"/>
        <pt x="454" y="68" on="0"/>
        <pt x="358" y="2" on="0"/>
        <pt x="283" y="-7" on="1"/>
        <pt x="263" y="-158" on="1"/>
        <pt x="165" y="-158" on="1"/>
        <pt x="186" y="-8" on="1"/>
        <pt x="129" y="-1" on="0"/>
        <pt x="37" y="46" on="0"/>
        <pt x="4" y="83" on="1"/>
        <pt x="80" y="155" on="1"/>
        <pt x="142" y="88" on="0"/>
        <pt x="230" y="88" on="1"/>
        <pt x="298" y="88" on="0"/>
        <pt x="368" y="148" on="0"/>
        <pt x="368" y="193" on="1"/>
        <pt x="368" y="231" on="0"/>
        <pt x="321" y="280" on="0"/>
        <pt x="260" y="302" on="1"/>
        <pt x="175" y="332" on="0"/>
        <pt x="91" y="423" on="0"/>
        <pt x="91" y="485" on="1"/>
        <pt x="91" y="561" on="0"/>
        <pt x="195" y="667" on="0"/>
        <pt x="283" y="680" on="1"/>
        <pt x="303" y="828" on="1"/>
        <pt x="401" y="828" on="1"/>
        <pt x="380" y="681" on="1"/>
        <pt x="471" y="668" on="0"/>
        <pt x="536" y="600" on="1"/>
        <pt x="467" y="531" on="1"/>
        <pt x="410" y="587" on="0"/>
        <pt x="336" y="587" on="1"/>
        <pt x="285" y="587" on="0"/>
        <pt x="219" y="542" on="0"/>
        <pt x="219" y="498" on="1"/>
        <pt x="219" y="468" on="0"/>
        <pt x="269" y="423" on="0"/>
        <pt x="332" y="400" on="1"/>
      </contour>
    </TTGlyph>
    <TTGlyph name="dotaccent" xMin="91" yMin="642" xMax="250" yMax="797">
      <contour>
        <pt x="211" y="797" on="0"/>
        <pt x="250" y="758" on="0"/>
        <pt x="250" y="727" on="1"/>
        <pt x="250" y="691" on="0"/>
        <pt x="200" y="642" on="0"/>
        <pt x="163" y="642" on="1"/>
        <pt x="130" y="642" on="0"/>
        <pt x="91" y="681" on="0"/>
        <pt x="91" y="712" on="1"/>
        <pt x="91" y="748" on="0"/>
        <pt x="141" y="797" on="0"/>
        <pt x="178" y="797" on="1"/>
      </contour>
    </TTGlyph>
    <TTGlyph name="dotaccent.case" xMin="67" yMin="768" xMax="226" yMax="923">
      <contour>
        <pt x="187" y="923" on="0"/>
        <pt x="226" y="884" on="0"/>
        <pt x="226" y="853" on="1"/>
        <pt x="226" y="817" on="0"/>
        <pt x="176" y="768" on="0"/>
        <pt x="139" y="768" on="1"/>
        <pt x="107" y="768" on="0"/>
        <pt x="67" y="808" on="0"/>
        <pt x="67" y="838" on="1"/>
        <pt x="67" y="874" on="0"/>
        <pt x="118" y="923" on="0"/>
        <pt x="155" y="923" on="1"/>
      </contour>
    </TTGlyph>
    <TTGlyph name="dotaccent.sc" xMin="91" yMin="672" xMax="250" yMax="827">
      <contour>
        <pt x="211" y="827" on="0"/>
        <pt x="250" y="788" on="0"/>
        <pt x="250" y="757" on="1"/>
        <pt x="250" y="721" on="0"/>
        <pt x="200" y="672" on="0"/>
        <pt x="162" y="672" on="1"/>
        <pt x="130" y="672" on="0"/>
        <pt x="91" y="711" on="0"/>
        <pt x="91" y="742" on="1"/>
        <pt x="91" y="778" on="0"/>
        <pt x="141" y="827" on="0"/>
        <pt x="178" y="827" on="1"/>
      </contour>
    </TTGlyph>
    <TTGlyph name="dotlessi" xMin="39" yMin="0" xMax="240" yMax="529">
      <contour>
        <pt x="39" y="0" on="1"/>
        <pt x="113" y="529" on="1"/>
        <pt x="240" y="529" on="1"/>
        <pt x="166" y="0" on="1"/>
      </contour>
    </TTGlyph>
    <TTGlyph name="dotlessi.sc" xMin="43" yMin="0" xMax="250" yMax="566">
      <component glyphName="i.sc" x="0" y="0" flags="0x0"/>
    </TTGlyph>
    <TTGlyph name="dotlessj.sc" xMin="-54" yMin="-136" xMax="251" yMax="566">
      <component glyphName="j.sc" x="0" y="0" flags="0x0"/>
    </TTGlyph>
    <TTGlyph name="dotmath" xMin="46" yMin="228" xMax="206" yMax="390">
      <component glyphName="periodcentered" x="0" y="0" flags="0x0"/>
    </TTGlyph>
    <TTGlyph name="e" xMin="38" yMin="-15" xMax="509" yMax="544">
      <contour>
        <pt x="509" y="302" on="0"/>
        <pt x="324" y="210" on="0"/>
        <pt x="168" y="195" on="1"/>
        <pt x="171" y="84" on="0"/>
        <pt x="270" y="84" on="1"/>
        <pt x="306" y="84" on="0"/>
        <pt x="372" y="107" on="0"/>
        <pt x="408" y="133" on="1"/>
        <pt x="457" y="53" on="1"/>
        <pt x="361" y="-15" on="0"/>
        <pt x="256" y="-15" on="1"/>
        <pt x="150" y="-15" on="0"/>
        <pt x="38" y="102" on="0"/>
        <pt x="38" y="205" on="1"/>
        <pt x="38" y="285" on="0"/>
        <pt x="97" y="440" on="0"/>
        <pt x="226" y="544" on="0"/>
        <pt x="326" y="544" on="1"/>
        <pt x="384" y="544" on="0"/>
        <pt x="467" y="506" on="0"/>
        <pt x="509" y="442" on="0"/>
        <pt x="509" y="404" on="1"/>
      </contour>
      <contour>
        <pt x="278" y="288" on="0"/>
        <pt x="379" y="348" on="0"/>
        <pt x="379" y="398" on="1"/>
        <pt x="379" y="420" on="0"/>
        <pt x="350" y="453" on="0"/>
        <pt x="317" y="453" on="1"/>
        <pt x="255" y="453" on="0"/>
        <pt x="185" y="353" on="0"/>
        <pt x="173" y="278" on="1"/>
      </contour>
    </TTGlyph>
    <TTGlyph name="e.sc" xMin="43" yMin="0" xMax="476" yMax="566">
      <contour>
        <pt x="235" y="474" on="1"/>
        <pt x="216" y="334" on="1"/>
        <pt x="402" y="334" on="1"/>
        <pt x="390" y="243" on="1"/>
        <pt x="203" y="243" on="1"/>
        <pt x="181" y="93" on="1"/>
        <pt x="409" y="93" on="1"/>
        <pt x="396" y="0" on="1"/>
        <pt x="43" y="0" on="1"/>
        <pt x="123" y="566" on="1"/>
        <pt x="476" y="566" on="1"/>
        <pt x="449" y="474" on="1"/>
      </contour>
    </TTGlyph>
    <TTGlyph name="eacute" xMin="38" yMin="-15" xMax="509" yMax="820">
      <component glyphName="e" x="0" y="0" flags="0x0"/>
      <component glyphName="acute" x="111" y="0" flags="0x0"/>
    </TTGlyph>
    <TTGlyph name="eacute.sc" xMin="43" yMin="0" xMax="476" yMax="850">
      <component glyphName="e.sc" x="0" y="0" flags="0x0"/>
      <component glyphName="acute.sc" x="147" y="0" flags="0x0"/>
    </TTGlyph>
    <TTGlyph name="ebreve" xMin="38" yMin="-15" xMax="512" yMax="808">
      <component glyphName="e" x="0" y="0" flags="0x0"/>
      <component glyphName="breve" x="88" y="0" flags="0x0"/>
    </TTGlyph>
    <TTGlyph name="ebreve.sc" xMin="43" yMin="0" xMax="488" yMax="838">
      <component glyphName="e.sc" x="0" y="0" flags="0x0"/>
      <component glyphName="breve.sc" x="89" y="0" flags="0x0"/>
    </TTGlyph>
    <TTGlyph name="ecaron" xMin="38" yMin="-15" xMax="521" yMax="800">
      <component glyphName="e" x="0" y="0" flags="0x0"/>
      <component glyphName="caron" x="73" y="0" flags="0x0"/>
    </TTGlyph>
    <TTGlyph name="ecaron.sc" xMin="43" yMin="0" xMax="502" yMax="831">
      <component glyphName="e.sc" x="0" y="0" flags="0x0"/>
      <component glyphName="caron.sc" x="81" y="0" flags="0x0"/>
    </TTGlyph>
    <TTGlyph name="ecircumflex" xMin="38" yMin="-15" xMax="512" yMax="808">
      <component glyphName="e" x="0" y="0" flags="0x0"/>
      <component glyphName="circumflex" x="73" y="0" flags="0x0"/>
    </TTGlyph>
    <TTGlyph name="ecircumflex.sc" xMin="43" yMin="0" xMax="503" yMax="839">
      <component glyphName="e.sc" x="0" y="0" flags="0x0"/>
      <component glyphName="circumflex.sc" x="91" y="0" flags="0x0"/>
    </TTGlyph>
    <TTGlyph name="edieresis" xMin="38" yMin="-15" xMax="514" yMax="785">
      <component glyphName="e" x="0" y="0" flags="0x0"/>
      <component glyphName="dieresis" x="64" y="0" flags="0x0"/>
    </TTGlyph>
    <TTGlyph name="edieresis.sc" xMin="43" yMin="0" xMax="504" yMax="815">
      <component glyphName="e.sc" x="0" y="0" flags="0x0"/>
      <component glyphName="dieresis.sc" x="82" y="0" flags="0x0"/>
    </TTGlyph>
    <TTGlyph name="edotaccent" xMin="38" yMin="-15" xMax="509" yMax="797">
      <component glyphName="e" x="0" y="0" flags="0x0"/>
      <component glyphName="dotaccent" x="171" y="0" flags="0x0"/>
    </TTGlyph>
    <TTGlyph name="edotaccent.sc" xMin="43" yMin="0" xMax="476" yMax="827">
      <component glyphName="e.sc" x="0" y="0" flags="0x0"/>
      <component glyphName="dotaccent.sc" x="156" y="0" flags="0x0"/>
    </TTGlyph>
    <TTGlyph name="egrave" xMin="38" yMin="-15" xMax="509" yMax="820">
      <component glyphName="e" x="0" y="0" flags="0x0"/>
      <component glyphName="grave" x="131" y="0" flags="0x0"/>
    </TTGlyph>
    <TTGlyph name="egrave.sc" xMin="43" yMin="0" xMax="476" yMax="850">
      <component glyphName="e.sc" x="0" y="0" flags="0x0"/>
      <component glyphName="grave.sc" x="136" y="0" flags="0x0"/>
    </TTGlyph>
    <TTGlyph name="eight" xMin="22" yMin="-15" xMax="534" yMax="685">
      <contour>
        <pt x="513" y="303" on="0"/>
        <pt x="513" y="202" on="1"/>
        <pt x="513" y="142" on="0"/>
        <pt x="445" y="43" on="0"/>
        <pt x="321" y="-15" on="0"/>
        <pt x="242" y="-15" on="1"/>
        <pt x="174" y="-15" on="0"/>
        <pt x="75" y="31" on="0"/>
        <pt x="22" y="112" on="0"/>
        <pt x="22" y="164" on="1"/>
        <pt x="22" y="291" on="0"/>
        <pt x="176" y="352" on="1"/>
        <pt x="95" y="401" on="0"/>
        <pt x="95" y="490" on="1"/>
        <pt x="95" y="547" on="0"/>
        <pt x="157" y="635" on="0"/>
        <pt x="265" y="685" on="0"/>
        <pt x="333" y="685" on="1"/>
        <pt x="419" y="685" on="0"/>
        <pt x="534" y="601" on="0"/>
        <pt x="534" y="527" on="1"/>
        <pt x="534" y="475" on="0"/>
        <pt x="471" y="392" on="0"/>
        <pt x="402" y="359" on="1"/>
      </contour>
      <contour>
        <pt x="271" y="595" on="0"/>
        <pt x="217" y="532" on="0"/>
        <pt x="217" y="493" on="1"/>
        <pt x="217" y="458" on="0"/>
        <pt x="258" y="417" on="0"/>
        <pt x="302" y="399" on="1"/>
        <pt x="319" y="393" on="1"/>
        <pt x="373" y="424" on="0"/>
        <pt x="411" y="488" on="0"/>
        <pt x="411" y="523" on="1"/>
        <pt x="411" y="557" on="0"/>
        <pt x="370" y="595" on="0"/>
        <pt x="330" y="595" on="1"/>
      </contour>
      <contour>
        <pt x="313" y="80" on="0"/>
        <pt x="386" y="151" on="0"/>
        <pt x="386" y="206" on="1"/>
        <pt x="386" y="240" on="0"/>
        <pt x="339" y="284" on="0"/>
        <pt x="281" y="306" on="1"/>
        <pt x="254" y="315" on="1"/>
        <pt x="197" y="288" on="0"/>
        <pt x="151" y="210" on="0"/>
        <pt x="151" y="168" on="1"/>
        <pt x="151" y="127" on="0"/>
        <pt x="204" y="80" on="0"/>
        <pt x="251" y="80" on="1"/>
      </contour>
    </TTGlyph>
    <TTGlyph name="eight.dnom" xMin="8" yMin="-11" xMax="354" yMax="428">
      <contour>
        <pt x="306" y="205" on="0"/>
        <pt x="341" y="156" on="0"/>
        <pt x="341" y="120" on="1"/>
        <pt x="341" y="85" on="0"/>
        <pt x="296" y="25" on="0"/>
        <pt x="214" y="-11" on="0"/>
        <pt x="159" y="-11" on="1"/>
        <pt x="88" y="-11" on="0"/>
        <pt x="8" y="52" on="0"/>
        <pt x="8" y="100" on="1"/>
        <pt x="8" y="181" on="0"/>
        <pt x="106" y="218" on="1"/>
        <pt x="53" y="251" on="0"/>
        <pt x="53" y="305" on="1"/>
        <pt x="53" y="339" on="0"/>
        <pt x="93" y="395" on="0"/>
        <pt x="166" y="428" on="0"/>
        <pt x="214" y="428" on="1"/>
        <pt x="276" y="428" on="0"/>
        <pt x="354" y="374" on="0"/>
        <pt x="354" y="329" on="1"/>
        <pt x="354" y="260" on="0"/>
        <pt x="270" y="223" on="1"/>
      </contour>
      <contour>
        <pt x="181" y="362" on="0"/>
        <pt x="149" y="336" on="0"/>
        <pt x="149" y="310" on="1"/>
        <pt x="149" y="290" on="0"/>
        <pt x="170" y="264" on="0"/>
        <pt x="195" y="255" on="1"/>
        <pt x="206" y="251" on="1"/>
        <pt x="233" y="266" on="0"/>
        <pt x="257" y="298" on="0"/>
        <pt x="257" y="319" on="1"/>
        <pt x="257" y="339" on="0"/>
        <pt x="232" y="362" on="0"/>
        <pt x="207" y="362" on="1"/>
      </contour>
      <contour>
        <pt x="201" y="61" on="0"/>
        <pt x="244" y="96" on="0"/>
        <pt x="244" y="122" on="1"/>
        <pt x="244" y="143" on="0"/>
        <pt x="217" y="170" on="0"/>
        <pt x="185" y="181" on="1"/>
        <pt x="164" y="188" on="1"/>
        <pt x="134" y="174" on="0"/>
        <pt x="107" y="134" on="0"/>
        <pt x="107" y="107" on="1"/>
        <pt x="107" y="86" on="0"/>
        <pt x="138" y="61" on="0"/>
        <pt x="165" y="61" on="1"/>
      </contour>
    </TTGlyph>
    <TTGlyph name="eight.numr" xMin="9" yMin="261" xMax="355" yMax="700">
      <component glyphName="eight.dnom" x="1" y="272" flags="0x0"/>
    </TTGlyph>
    <TTGlyph name="eight.osf" xMin="22" yMin="-15" xMax="534" yMax="685">
      <contour>
        <pt x="513" y="303" on="0"/>
        <pt x="513" y="202" on="1"/>
        <pt x="513" y="142" on="0"/>
        <pt x="445" y="43" on="0"/>
        <pt x="321" y="-15" on="0"/>
        <pt x="242" y="-15" on="1"/>
        <pt x="174" y="-15" on="0"/>
        <pt x="75" y="31" on="0"/>
        <pt x="22" y="112" on="0"/>
        <pt x="22" y="164" on="1"/>
        <pt x="22" y="291" on="0"/>
        <pt x="176" y="352" on="1"/>
        <pt x="95" y="401" on="0"/>
        <pt x="95" y="490" on="1"/>
        <pt x="95" y="547" on="0"/>
        <pt x="157" y="635" on="0"/>
        <pt x="266" y="685" on="0"/>
        <pt x="334" y="685" on="1"/>
        <pt x="421" y="685" on="0"/>
        <pt x="534" y="601" on="0"/>
        <pt x="534" y="527" on="1"/>
        <pt x="534" y="475" on="0"/>
        <pt x="471" y="392" on="0"/>
        <pt x="402" y="359" on="1"/>
      </contour>
      <contour>
        <pt x="271" y="595" on="0"/>
        <pt x="217" y="532" on="0"/>
        <pt x="217" y="493" on="1"/>
        <pt x="217" y="457" on="0"/>
        <pt x="257" y="417" on="0"/>
        <pt x="302" y="399" on="1"/>
        <pt x="319" y="393" on="1"/>
        <pt x="373" y="424" on="0"/>
        <pt x="411" y="488" on="0"/>
        <pt x="411" y="523" on="1"/>
        <pt x="411" y="557" on="0"/>
        <pt x="370" y="595" on="0"/>
        <pt x="330" y="595" on="1"/>
      </contour>
      <contour>
        <pt x="313" y="80" on="0"/>
        <pt x="386" y="151" on="0"/>
        <pt x="386" y="206" on="1"/>
        <pt x="386" y="240" on="0"/>
        <pt x="339" y="284" on="0"/>
        <pt x="281" y="306" on="1"/>
        <pt x="254" y="315" on="1"/>
        <pt x="197" y="288" on="0"/>
        <pt x="151" y="210" on="0"/>
        <pt x="151" y="168" on="1"/>
        <pt x="151" y="127" on="0"/>
        <pt x="204" y="80" on="0"/>
        <pt x="251" y="80" on="1"/>
      </contour>
    </TTGlyph>
    <TTGlyph name="eight.tf" xMin="25" yMin="-15" xMax="534" yMax="706">
      <contour>
        <pt x="512" y="314" on="0"/>
        <pt x="512" y="204" on="1"/>
        <pt x="512" y="153" on="0"/>
        <pt x="456" y="52" on="0"/>
        <pt x="334" y="-15" on="0"/>
        <pt x="241" y="-15" on="1"/>
        <pt x="175" y="-15" on="0"/>
        <pt x="77" y="33" on="0"/>
        <pt x="25" y="116" on="0"/>
        <pt x="25" y="168" on="1"/>
        <pt x="25" y="299" on="0"/>
        <pt x="179" y="362" on="1"/>
        <pt x="100" y="415" on="0"/>
        <pt x="100" y="501" on="1"/>
        <pt x="100" y="550" on="0"/>
        <pt x="152" y="645" on="0"/>
        <pt x="259" y="706" on="0"/>
        <pt x="337" y="706" on="1"/>
        <pt x="421" y="706" on="0"/>
        <pt x="534" y="621" on="0"/>
        <pt x="534" y="546" on="1"/>
        <pt x="534" y="488" on="0"/>
        <pt x="471" y="402" on="0"/>
        <pt x="402" y="369" on="1"/>
      </contour>
      <contour>
        <pt x="276" y="617" on="0"/>
        <pt x="220" y="549" on="0"/>
        <pt x="220" y="502" on="1"/>
        <pt x="220" y="466" on="0"/>
        <pt x="264" y="424" on="0"/>
        <pt x="312" y="406" on="1"/>
        <pt x="321" y="403" on="1"/>
        <pt x="375" y="434" on="0"/>
        <pt x="412" y="501" on="0"/>
        <pt x="412" y="539" on="1"/>
        <pt x="412" y="575" on="0"/>
        <pt x="371" y="617" on="0"/>
        <pt x="333" y="617" on="1"/>
      </contour>
      <contour>
        <pt x="319" y="80" on="0"/>
        <pt x="386" y="156" on="0"/>
        <pt x="386" y="206" on="1"/>
        <pt x="386" y="247" on="0"/>
        <pt x="338" y="296" on="0"/>
        <pt x="280" y="315" on="1"/>
        <pt x="255" y="325" on="1"/>
        <pt x="198" y="296" on="0"/>
        <pt x="152" y="215" on="0"/>
        <pt x="152" y="173" on="1"/>
        <pt x="152" y="131" on="0"/>
        <pt x="205" y="80" on="0"/>
        <pt x="251" y="80" on="1"/>
      </contour>
    </TTGlyph>
    <TTGlyph name="eight.tosf" xMin="28" yMin="-15" xMax="534" yMax="685">
      <contour>
        <pt x="514" y="303" on="0"/>
        <pt x="514" y="201" on="1"/>
        <pt x="514" y="141" on="0"/>
        <pt x="446" y="42" on="0"/>
        <pt x="324" y="-15" on="0"/>
        <pt x="246" y="-15" on="1"/>
        <pt x="178" y="-15" on="0"/>
        <pt x="80" y="31" on="0"/>
        <pt x="28" y="112" on="0"/>
        <pt x="28" y="164" on="1"/>
        <pt x="28" y="291" on="0"/>
        <pt x="181" y="352" on="1"/>
        <pt x="101" y="401" on="0"/>
        <pt x="101" y="490" on="1"/>
        <pt x="101" y="547" on="0"/>
        <pt x="162" y="635" on="0"/>
        <pt x="271" y="685" on="0"/>
        <pt x="339" y="685" on="1"/>
        <pt x="423" y="685" on="0"/>
        <pt x="534" y="601" on="0"/>
        <pt x="534" y="527" on="1"/>
        <pt x="534" y="474" on="0"/>
        <pt x="471" y="392" on="0"/>
        <pt x="402" y="359" on="1"/>
      </contour>
      <contour>
        <pt x="275" y="595" on="0"/>
        <pt x="222" y="532" on="0"/>
        <pt x="222" y="493" on="1"/>
        <pt x="222" y="456" on="0"/>
        <pt x="263" y="417" on="0"/>
        <pt x="309" y="399" on="1"/>
        <pt x="325" y="393" on="1"/>
        <pt x="377" y="425" on="0"/>
        <pt x="413" y="488" on="0"/>
        <pt x="413" y="523" on="1"/>
        <pt x="413" y="557" on="0"/>
        <pt x="372" y="595" on="0"/>
        <pt x="333" y="595" on="1"/>
      </contour>
      <contour>
        <pt x="315" y="80" on="0"/>
        <pt x="388" y="152" on="0"/>
        <pt x="388" y="206" on="1"/>
        <pt x="388" y="242" on="0"/>
        <pt x="343" y="288" on="0"/>
        <pt x="287" y="306" on="1"/>
        <pt x="260" y="315" on="1"/>
        <pt x="203" y="288" on="0"/>
        <pt x="156" y="209" on="0"/>
        <pt x="156" y="168" on="1"/>
        <pt x="156" y="127" on="0"/>
        <pt x="209" y="80" on="0"/>
        <pt x="256" y="80" on="1"/>
      </contour>
    </TTGlyph>
    <TTGlyph name="eightinferior" xMin="-58" yMin="-215" xMax="289" yMax="225">
      <component glyphName="eight.dnom" x="-65" y="-203" flags="0x0"/>
    </TTGlyph>
    <TTGlyph name="eightsuperior" xMin="16" yMin="311" xMax="362" yMax="750">
      <component glyphName="eight.dnom" x="8" y="321" flags="0x0"/>
    </TTGlyph>
    <TTGlyph name="ellipsis" xMin="12" yMin="-15" xMax="663" yMax="147">
      <component glyphName="period" x="245" y="0" flags="0x0"/>
      <component glyphName="period" x="491" y="0" flags="0x0"/>
      <component glyphName="period" x="0" y="0" flags="0x0"/>
    </TTGlyph>
    <TTGlyph name="emacron" xMin="38" yMin="-15" xMax="509" yMax="752">
      <component glyphName="e" x="0" y="0" flags="0x0"/>
      <component glyphName="macron" x="106" y="0" flags="0x0"/>
    </TTGlyph>
    <TTGlyph name="emacron.sc" xMin="43" yMin="0" xMax="476" yMax="782">
      <component glyphName="e.sc" x="0" y="0" flags="0x0"/>
      <component glyphName="macron.sc" x="119" y="0" flags="0x0"/>
    </TTGlyph>
    <TTGlyph name="emdash" xMin="25" yMin="262" xMax="769" yMax="364">
      <contour>
        <pt x="769" y="364" on="1"/>
        <pt x="755" y="262" on="1"/>
        <pt x="25" y="262" on="1"/>
        <pt x="39" y="364" on="1"/>
      </contour>
    </TTGlyph>
    <TTGlyph name="emdash.case" xMin="31" yMin="307" xMax="775" yMax="409">
      <component glyphName="emdash" x="6" y="45" flags="0x0"/>
    </TTGlyph>
</ttFont>
